<?xml version="1.0" encoding="utf-8"?>
<!-- Generator: Adobe Illustrator 23.1.0, SVG Export Plug-In . SVG Version: 6.00 Build 0)  -->
<svg version="1.1" id="Layer_1" xmlns="http://www.w3.org/2000/svg" xmlns:xlink="http://www.w3.org/1999/xlink" x="0px" y="0px"
	 viewBox="0 0 560.12 638.58" style="enable-background:new 0 0 560.12 638.58;" xml:space="preserve">
<style type="text/css">
	.st0{fill:#060504;}
	.st1{fill:#880400;}
	.st2{fill:#40723F;}
	.st3{fill:#FEFEFE;}
	.st4{fill:#BD423D;}
	.st5{fill:#ECD26C;}
	.st6{fill:#8A7624;}
</style>
<g>
	<path class="st0" d="M0,529.17c10.42-6.14,17.59-15.45,24.25-25.19c6.43-9.41,11.3-19.69,16.23-29.93
		c1.82-3.77,0.92-7.87,0.94-11.81c0.08-23.93,0.07-47.86-0.02-71.8c-0.01-2.08,0.76-2.87,2.55-3.54c4.93-1.85,9.78-3.9,14.89-5.97
		c0-106.07,0-212.19,0-318.7c17.91-4.13,35.68-8.22,53.45-12.33c54.17-12.52,108.33-25.04,162.49-37.56
		C291,8.59,307.23,4.82,323.46,1.06c0.77-0.18,1.7-0.01,2-1.06c2,0,3.99,0,5.99,0c9.36,3.94,19.41,5.36,29.14,7.91
		c17.48,4.58,35.05,8.84,52.86,13.3c-0.8,13.98-1.53,27.73-2.38,41.47c-0.84,13.59-1.83,27.17-2.72,40.76
		c-1.25,19.22-2.49,38.45-3.68,57.68c-1.15,18.74-2.22,37.48-3.33,56.22c-1.38,23.05-2.7,46.1-4.24,69.14
		c-0.21,3.15,0.82,4.64,3.42,6.2c51.25,30.7,102.32,61.7,153.8,92.01c5.29,3.12,5.78,6.12,5.77,10.9
		c-0.07,24.63-0.09,49.25,0.04,73.88c0.02,3.02-0.8,4.59-3.59,6.07c-101.32,53.93-202.58,107.95-303.8,162.05
		c-2.8,1.5-4.52,1.31-6.99-0.67c-44.79-35.98-89.67-71.85-134.53-107.74c-1.55-1.24-3.17-2.4-4.97-3.76
		c-5.15,12.09-9.98,24.13-16.48,35.36c-7.94,13.71-17.56,25.7-32.97,31.73c-5.29,2.07-10.82,2.6-16.79,3.67
		c4.61-15.43,8.44-30.58,9.75-46.17c0.63-7.56,1.7-15.17,0.96-23.27c-16.43,6.69-32.74,13.5-50.69,6.43C0,531.84,0,530.5,0,529.17z
		 M48.36,406.48c0.05,16.75-1.86,33.5-1.1,50.98c2.88-2.13,3.52-4.44,4.86-6.27c3.25-4.43,6.65-8.65,11.79-11.11
		c2.8-1.34,4.86-1.3,7.5,0.94c13.3,11.29,26.84,22.29,40.29,33.39c6.5,5.36,12.98,10.74,19.66,16.27c-3.34,2-6.62,3.32-9.06,5.56
		c-4.34,3.99-7.73,8.78-8.48,14.93c-5.13,4.77-5.74,8.35-1.92,11.4c44.54,35.59,89.1,71.16,133.59,106.82
		c2.94,2.36,5.16,2.89,8.77,0.94c29.17-15.79,58.48-31.3,87.75-46.91c39.53-21.08,79.05-42.17,118.57-63.26
		c30.06-16.05,60.11-32.12,90.2-48.12c2.3-1.22,3.4-2.57,3.38-5.36c-0.18-22.96-0.33-45.93-0.15-68.89
		c0.04-4.75-1.45-7.34-5.58-9.78c-37.27-22.06-74.4-44.37-111.55-66.63c-26.51-15.88-53.01-31.77-79.45-47.76
		c-3.4-2.06-6.24-3.43-10.52-1.69c-40.6,16.46-81.29,32.68-121.96,48.95c-36.3,14.52-72.62,29.01-108.93,43.51
		c-21.44,8.56-42.88,17.11-64.31,25.71c-1.64,0.66-4.26,0.93-4.35,2.86C47.15,397.46,45.93,402.14,48.36,406.48z M69.93,375.99
		c1.27-0.34,2.59-0.55,3.8-1.04c23.65-9.49,47.28-19.02,70.92-28.54c16.8-6.65,33.63-13.24,50.4-19.98
		c22.45-9.01,44.85-18.16,67.29-27.21c25.18-10.15,50.43-20.13,75.55-30.44c13.68-5.62,13.56-5.81,26.4,2.01
		c8.72,5.31,17.53,10.47,26.84,16.02c1.75-27.3,3.42-53.76,5.15-80.21c1.12-17.16,1.48-34.35,2.89-51.51
		c1.83-22.31,2.53-44.71,4.3-67.02c0.55-6.94,0.7-13.89,1.34-20.83c1.17-12.71,1.64-25.48,2.41-38.22c0.12-2.01-0.24-3.52-2.66-3.99
		c-5.04-0.98-10.03-2.17-15.05-3.27c-0.87-1.54-2.49-1.38-3.89-1.71c-16.27-3.85-32.55-7.71-48.82-11.57
		c-3.63-0.9-6.9-2.99-11.05-2.02c-39.06,9.12-78.15,18.1-117.24,27.12c-46.53,10.74-93.05,21.53-139.62,32.11
		c-3.43,0.78-4.19,2.15-4.17,5.31c0.16,18.13,0.15,36.26,0.19,54.39c-3.75-0.15-1.87,2.8-1.86,4.06
		c0.16,34.33,0.49,68.65,0.75,102.98c0.01,1.87,0.2,3.62,1.23,5.21c-0.08,45.9-0.17,91.8-0.23,137.7c0,0.61,0.28,1.22,0.43,1.87
		C67.19,377.73,68.68,377.34,69.93,375.99z M66.94,445.3c-7.15,3.77-10.56,10.14-13.84,16.45c-5.35,10.29-10.19,20.84-15.57,31.12
		c-7.15,13.69-15.94,26.23-28.29,37.07c18.08,1.81,32.68-5.27,47.63-13.43c-0.61,24.86-1.5,48.84-8.86,72.5
		c7.44-1.72,13.34-4.59,18.6-8.8c7.79-6.23,13.49-14.14,18.36-22.72c7.46-13.13,12.78-27.23,18.77-41.03
		c4.2-9.69,8.13-19.58,16.73-27.03C102.59,474.69,84.88,460.09,66.94,445.3z"/>
	<path class="st1" d="M64.92,125.39c-0.05-18.13-0.04-36.26-0.19-54.39c-0.03-3.16,0.74-4.53,4.17-5.31
		c46.57-10.58,93.09-21.37,139.62-32.11c39.08-9.02,78.18-18,117.24-27.12c4.15-0.97,7.41,1.13,11.05,2.02
		c-0.56,0.28-1.1,0.69-1.7,0.83c-35.5,8.32-71.01,16.65-106.52,24.93c-46.22,10.77-92.44,21.51-139.24,32.4
		c10.87,10.45,23.15,16.99,37.39,20.19c9.74,2.19,19.1,1.95,28.59-1.5c7.04-2.56,14.52-3.66,21.63-6.34
		c7.16-2.69,14.98-3.57,22.4-5.65c32.95-9.24,66.21-17.38,98.87-27.69c7.83-2.47,16.22-3.26,23.88-6.1
		c6.03-2.24,12.32-3.56,18.39-5.36c6.56-1.95,13.33-3.83,20.16-5.17c9.73-1.9,19.05-5.6,28.86-7.27c5.01,1.1,10.01,2.29,15.05,3.27
		c2.42,0.47,2.78,1.97,2.66,3.99c-0.77,12.74-1.24,25.52-2.41,38.22c-0.64,6.94-0.8,13.89-1.34,20.83
		c-1.77,22.31-2.47,44.71-4.3,67.02c-1.4,17.16-1.77,34.35-2.89,51.51c-1.73,26.45-3.4,52.91-5.15,80.21
		c-9.31-5.55-18.12-10.71-26.84-16.02c-12.84-7.82-12.72-7.63-26.4-2.01c-25.12,10.31-50.37,20.29-75.55,30.44
		c-22.44,9.05-44.84,18.2-67.29,27.21c-16.77,6.73-33.6,13.32-50.4,19.98c0-22.74,0-45.49,0-68.55
		c-27.55-3.59-52.64-12.36-74.72-30.67c0,43.72,0,86.26,0,128.79c-1.25,1.35-2.73,1.74-4.68,1.22c-0.16-0.65-0.43-1.26-0.43-1.87
		c0.06-45.9,0.15-91.8,0.23-137.7c20.28,23.88,47.74,32.39,77.99,37.1c-0.93-39.5,1.49-78.08,0.49-116.63
		C112.64,157.19,86.96,145.62,64.92,125.39z M69.89,71.29c0,18.67,0.01,35.89-0.01,53.11c0,1.84,0.83,3.22,2.21,4.25
		c8.22,6.2,16.65,12.06,26.15,16.22c13.78,6.02,28,9.95,43.17,10.3c3.15,0.07,3.27-1.33,3.27-3.44c0.01-15.96-0.03-31.91,0.02-47.87
		c0.01-2.77-1.14-3.91-3.86-3.9c-3.99,0.02-8.11,0.51-11.94-0.3C107.49,95.11,86.95,88.52,69.89,71.29z"/>
	<path class="st2" d="M48.36,406.48c-2.43-4.34-1.2-9.02-1-13.52c0.09-1.94,2.71-2.21,4.35-2.86c21.42-8.6,42.87-17.15,64.31-25.71
		c36.31-14.5,72.62-28.99,108.93-43.51c40.67-16.27,81.37-32.49,121.96-48.95c4.28-1.73,7.12-0.37,10.52,1.69
		c26.44,15.99,52.94,31.88,79.45,47.76c37.15,22.26,74.28,44.57,111.55,66.63c4.13,2.45,5.62,5.03,5.58,9.78
		c-0.19,22.96-0.03,45.92,0.15,68.89c0.02,2.79-1.07,4.13-3.38,5.36c-30.09,15.99-60.14,32.07-90.2,48.12
		c-39.52,21.09-79.04,42.18-118.57,63.26c-29.26,15.61-58.58,31.12-87.75,46.91c-3.61,1.95-5.84,1.42-8.77-0.94
		c-44.49-35.66-89.05-71.23-133.59-106.82c-3.82-3.05-3.21-6.63,1.92-11.4c1.76,0.28,2.8,1.69,4.07,2.7
		c34.11,27.18,68.2,54.38,102.29,81.59c8.84,7.05,17.75,14.02,26.46,21.23c2.52,2.09,4.36,2.45,7.4,0.78
		c12.33-6.81,24.86-13.25,37.31-19.84c85.41-45.24,170.8-90.51,256.25-135.69c2.54-1.34,3.38-2.84,3.43-5.71
		c0.3-18.74,0.06-37.5,1.3-56.38c-0.57,0.22-1.03,0.36-1.45,0.57c-31.48,16.02-62.95,32.07-94.43,48.08
		C388.57,483,320.69,517.47,252.88,552.06c-3.04,1.55-4.95,1.09-7.51-0.82c-16.21-12.14-32.55-24.11-48.84-36.13
		c-30.68-22.64-61.3-45.35-92.05-67.89C85.84,433.55,67.73,419.14,48.36,406.48z M260.26,326.4c17.5,10.7,34.19,20.91,50.88,31.12
		c36.41,22.26,72.82,44.5,109.2,66.81c2.51,1.54,4.55,1.62,7.33,0.4c23.57-10.33,47.25-20.39,70.82-30.72
		c3.81-1.67,8.06-2.68,11.67-5.7c-1.09-0.71-1.76-1.16-2.45-1.59c-25.11-15.57-50.23-31.13-75.33-46.72
		c-26.09-16.19-52.2-32.35-78.2-48.68c-3.26-2.05-5.96-2-9.29-0.54c-10.03,4.4-20.15,8.59-30.25,12.83
		C296.79,311.11,278.91,318.59,260.26,326.4z"/>
	<path class="st3" d="M48.36,406.48c19.38,12.66,37.48,27.08,56.12,40.75c30.75,22.54,61.37,45.25,92.05,67.89
		c16.29,12.02,32.63,24,48.84,36.13c2.55,1.91,4.47,2.37,7.51,0.82C320.69,517.47,388.57,483,456.43,448.5
		c31.49-16.01,62.95-32.06,94.43-48.08c0.42-0.21,0.88-0.35,1.45-0.57c-1.24,18.88-1,37.64-1.3,56.38
		c-0.05,2.87-0.89,4.36-3.43,5.71c-85.44,45.18-170.84,90.44-256.25,135.69c-12.45,6.59-24.98,13.04-37.31,19.84
		c-3.03,1.67-4.88,1.31-7.4-0.78c-8.71-7.21-17.62-14.18-26.46-21.23c-34.09-27.2-68.18-54.41-102.29-81.59
		c-1.27-1.01-2.31-2.41-4.07-2.7c0.76-6.15,4.14-10.95,8.48-14.94c2.44-2.24,5.73-3.56,9.06-5.56
		c-6.68-5.53-13.16-10.91-19.66-16.27c-13.45-11.11-27-22.1-40.29-33.39c-2.64-2.24-4.69-2.28-7.5-0.94
		c-5.14,2.46-8.54,6.68-11.79,11.11c-1.34,1.82-1.98,4.14-4.86,6.27C46.5,439.97,48.41,423.23,48.36,406.48z"/>
	<path class="st3" d="M389.51,21.76c-9.82,1.67-19.13,5.37-28.86,7.27c-6.84,1.33-13.61,3.22-20.16,5.17
		c-6.07,1.8-12.36,3.12-18.39,5.36c-7.66,2.85-16.05,3.63-23.88,6.1c-32.66,10.3-65.92,18.44-98.87,27.69
		c-7.42,2.08-15.24,2.95-22.4,5.65c-7.11,2.67-14.6,3.77-21.63,6.34c-9.49,3.46-18.85,3.69-28.59,1.5
		c-14.23-3.2-26.52-9.74-37.39-20.19c46.8-10.89,93.02-21.62,139.24-32.4c35.51-8.28,71.02-16.6,106.52-24.93
		c0.6-0.14,1.14-0.55,1.7-0.83c16.27,3.86,32.54,7.72,48.82,11.57C387.02,20.39,388.63,20.23,389.51,21.76z"/>
	<path class="st4" d="M69.93,375.99c0-42.54,0-85.07,0-128.79c22.08,18.31,47.17,27.08,74.72,30.67c0,23.06,0,45.8,0,68.55
		c-23.64,9.52-47.27,19.04-70.92,28.54C72.52,375.44,71.2,375.65,69.93,375.99z"/>
	<path class="st5" d="M66.94,445.3c17.94,14.79,35.65,29.38,53.54,44.13c-8.6,7.45-12.52,17.34-16.73,27.03
		c-5.99,13.8-11.31,27.9-18.77,41.03c-4.88,8.58-10.58,16.49-18.36,22.72c-5.27,4.21-11.17,7.08-18.6,8.8
		c7.35-23.66,8.24-47.65,8.86-72.5c-14.95,8.16-29.55,15.24-47.63,13.43c12.35-10.85,21.14-23.39,28.29-37.07
		c5.37-10.28,10.21-20.83,15.57-31.12C56.37,455.44,59.79,449.07,66.94,445.3z"/>
	<path class="st6" d="M64.92,125.39c22.04,20.24,47.72,31.8,78.6,32.72c1,38.56-1.41,77.13-0.49,116.63
		c-30.25-4.71-57.71-13.21-77.99-37.1c-1.04-1.59-1.22-3.34-1.23-5.21c-0.26-34.33-0.59-68.65-0.75-102.98
		C63.05,128.19,61.17,125.24,64.92,125.39z M139.9,270.93c-0.42-36.78,1.24-73.05,0.36-109.72c-28.22-1.21-52.42-12.03-74.03-29.89
		c-0.71,32.23,0.91,63.78,0.28,95.33c-0.15,7.6,2.97,12.42,8.09,17.04c9.91,8.94,21.52,15.01,33.81,19.7
		C118.28,267.15,128.52,269.89,139.9,270.93z"/>
	<path class="st4" d="M69.89,71.29c17.05,17.23,37.59,23.83,59.01,28.37c3.83,0.81,7.95,0.32,11.94,0.3
		c2.72-0.01,3.87,1.13,3.86,3.9c-0.05,15.96-0.01,31.91-0.02,47.87c0,2.11-0.12,3.51-3.27,3.44c-15.17-0.34-29.39-4.27-43.17-10.3
		c-9.5-4.15-17.93-10.02-26.15-16.22c-1.37-1.04-2.21-2.41-2.21-4.25C69.9,107.17,69.89,89.95,69.89,71.29z"/>
	<path class="st6" d="M260.26,326.4c18.66-7.82,36.53-15.29,54.39-22.79c10.1-4.24,20.22-8.44,30.25-12.83
		c3.33-1.46,6.03-1.51,9.29,0.54c26,16.33,52.11,32.49,78.2,48.68c25.11,15.58,50.22,31.14,75.33,46.72
		c0.69,0.43,1.35,0.88,2.45,1.59c-3.61,3.03-7.86,4.03-11.67,5.7c-23.57,10.33-47.26,20.38-70.82,30.72
		c-2.79,1.22-4.83,1.14-7.33-0.4c-36.38-22.31-72.79-44.55-109.2-66.81C294.45,347.32,277.76,337.11,260.26,326.4z M504.29,388.21
		c-8.28-5.15-15.96-9.92-23.62-14.7c-24.06-15-48.08-30.07-72.19-45c-18.34-11.35-36.83-22.48-55.17-33.83
		c-2.55-1.58-4.63-1.69-7.38-0.48c-8.59,3.77-17.32,7.2-25.98,10.81c-17.28,7.2-34.54,14.44-52.32,21.87
		c8.85,5.61,17.17,11.04,25.64,16.23c42.03,25.76,84.12,51.41,126.1,77.26c3.56,2.19,6.37,2.31,10.1,0.6
		c11.74-5.4,23.66-10.42,35.5-15.58C477.86,399.74,490.76,394.11,504.29,388.21z"/>
	<path class="st5" d="M139.9,270.93c-11.38-1.04-21.62-3.78-31.49-7.54c-12.29-4.69-23.9-10.76-33.81-19.7
		c-5.12-4.61-8.24-9.44-8.09-17.04c0.63-31.55-0.99-63.1-0.28-95.33c21.61,17.86,45.81,28.68,74.03,29.89
		C141.14,197.88,139.48,234.15,139.9,270.93z M70.84,141.69c0,9.24,0,18.13,0,27.02c0.45,0,0.9-0.01,1.35-0.01
		c0-3.75,0-7.49,0-11.23c3.28-0.61,6.05-1.1,8.57-2.41c2.51-1.31,3.25-2.98,0.57-4.79C77.51,147.68,73.98,144.74,70.84,141.69z"/>
	<path class="st5" d="M504.29,388.21c-13.53,5.9-26.43,11.54-39.33,17.16c-11.85,5.17-23.76,10.19-35.5,15.58
		c-3.73,1.72-6.54,1.6-10.1-0.6c-41.97-25.85-84.07-51.5-126.1-77.26c-8.47-5.19-16.78-10.62-25.64-16.23
		c17.77-7.43,35.04-14.67,52.32-21.87c8.66-3.61,17.4-7.04,25.98-10.81c2.75-1.21,4.82-1.09,7.38,0.48
		c18.35,11.35,36.83,22.47,55.17,33.83c24.11,14.92,48.13,29.99,72.19,45C488.34,378.28,496.01,383.05,504.29,388.21z"/>
	<path class="st3" d="M70.84,141.69c3.14,3.05,6.67,5.99,10.48,8.58c2.68,1.82,1.93,3.48-0.57,4.79c-2.51,1.31-5.28,1.8-8.57,2.41
		c0,3.74,0,7.48,0,11.23c-0.45,0-0.9,0.01-1.35,0.01C70.84,159.82,70.84,150.93,70.84,141.69z"/>
</g>
</svg>
