<?xml version="1.0" encoding="UTF-8"?>
<svg id="Layer_1" data-name="Layer 1" xmlns="http://www.w3.org/2000/svg" viewBox="0 0 150 150">
  <path d="m150,150H0V0h150v150ZM75.8,14.9c-32.9-1.1-61,26.3-60.8,60.5.2,34.1,26.6,61,61.2,60.8,34.5-.2,60.5-27.5,60.3-61.3-.2-33.5-27.8-61.1-60.7-60Z"/>
  <path d="m75.8,14.9c32.9-1.1,60.5,26.5,60.7,60,.2,33.8-25.9,61.1-60.3,61.3-34.6.2-61-26.7-61.2-60.8-.2-34.2,28-61.6,60.8-60.5Zm0,7.2c-28.5-.4-53.2,24-53.3,53-.1,32,27.2,52.7,50.9,53.5,32.6,1.1,55.8-26.1,55.6-53.3-.2-28-23.1-53.4-53.2-53.1Z" fill="#fff"/>
  <path d="m75.8,22.1c30.1-.2,53.1,25.1,53.2,53.1.2,27.3-23,54.5-55.6,53.3-23.8-.8-51.1-21.5-50.9-53.5.1-29,24.9-53.4,53.3-53Zm37.7,84.4c0-.1-.1-.3-.2-.4-.3,0-.6,0-.9,0-7.8.8-15.6,1.3-23.4.4-8.3-.9-15.6-3.8-21.4-9.9-4.5-4.7-6.5-10.3-4.6-16.7,2.1-6.9,6.8-11.3,13.9-12.4,7-1.1,12.8,1.4,16.8,7.5.2.4,1.1.7,1.5.6,2.3-1,4.5-2.2,6.7-3.3,0-.2,0-.4-.2-.6-7.1-11.2-19.6-15-30.7-11.2-13.7,4.7-20.8,20.5-14.8,33.8,3,6.6,7.9,11.5,14.3,15.1,8.4,4.6,17.5,5.2,26.8,4.9,2.1,0,4.2-.3,6.3-.5,1-.1,2.2,0,2.9-.6,2.5-2.1,4.8-4.4,7.2-6.6Zm-10.6,9c0-.1,0-.2,0-.3-.5,0-1,0-1.5,0-1.4.2-2.7.7-4,.7-4.2,0-8.3,0-12.5-.3-9.5-.9-17.9-4.6-24.6-11.5-7.2-7.3-11.5-19.1-6.4-30.7,5.6-12.9,21-20.7,34.6-14.9.9.4,1.2,0,1.6-.7.7-1.5,1.4-3.1,2.2-4.6.8-1.7.7-1.8-1-2.5-6.4-2.6-13.2-2.9-19.7-1.4-22.8,5-33.1,27.6-25.5,47.5,4.2,11,12.6,18,23.8,21.3,4.7,1.4,9.7,2.1,14.6,2.8,2.4.3,5.1.6,7.4-.1,3.6-1.1,6.9-3.1,10.4-4.7.3-.1.5-.4.8-.6Zm-23.9-77.6c-.6,0-1,0-1.4,0-4.9.2-9.7.9-14.3,2.5-10.8,3.7-19.2,10.5-24.7,20.5-6.2,11.5-7.3,23.6-3.1,36.1,2.4,7.3,6,13.8,12.4,18.3,10.1,7,21.4,9.6,33.6,8.5,1.6-.1,3.3-.4,4.9-.7-2.1-.6-4.2-1-6.4-1.1-9-.6-17.1-3.5-24.1-9-7-5.5-11.4-12.7-13.6-21.3-1.4-5.4-1.6-10.9-.3-16.3,2.9-11.9,9.7-20.6,20.8-26,4.7-2.2,9.6-3.3,14.7-3.4.7,0,1.5.1,1.5-1.1,0-2.3,0-4.6,0-7.1Z"/>
  <path d="m113.5,106.5c-2.4,2.2-4.7,4.5-7.2,6.6-.7.6-1.9.5-2.9.6-2.1.2-4.2.5-6.3.5-9.3.3-18.4-.3-26.8-4.9-6.4-3.5-11.3-8.4-14.3-15.1-5.9-13.2,1.1-29.1,14.8-33.8,11.1-3.8,23.6,0,30.7,11.2.1.2.1.4.2.6-2.2,1.1-4.4,2.3-6.7,3.3-.4.2-1.2-.2-1.5-.6-4-6.1-9.8-8.6-16.8-7.5-7.1,1.1-11.8,5.5-13.9,12.4-2,6.5,0,12,4.6,16.7,5.8,6.1,13.1,9,21.4,9.9,7.8.8,15.6.4,23.4-.4.3,0,.6,0,.9,0,0,.1.1.3.2.4Z" fill="#fff"/>
  <path d="m102.9,115.5c-.3.2-.5.5-.8.6-3.4,1.6-6.8,3.6-10.4,4.7-2.3.7-5,.5-7.4.1-4.9-.7-9.9-1.4-14.6-2.8-11.2-3.3-19.6-10.3-23.8-21.3-7.7-19.9,2.7-42.4,25.5-47.5,6.5-1.4,13.3-1.2,19.7,1.4,1.7.7,1.8.8,1,2.5-.7,1.5-1.5,3-2.2,4.6-.3.7-.7,1.1-1.6.7-13.6-5.8-29,1.9-34.6,14.9-5,11.6-.7,23.4,6.4,30.7,6.8,6.9,15.1,10.6,24.6,11.5,4.1.4,8.3.3,12.5.3,1.3,0,2.7-.5,4-.7.5,0,1,0,1.5,0,0,.1,0,.2,0,.3Z" fill="#fff"/>
  <path d="m78.9,37.8c0,2.5,0,4.8,0,7.1,0,1.2-.8,1-1.5,1.1-5.1.1-10.1,1.1-14.7,3.4-11.1,5.3-17.9,14.1-20.8,26-1.3,5.5-1.1,10.9.3,16.3,2.1,8.6,6.6,15.8,13.6,21.3,7.1,5.5,15.2,8.4,24.1,9,2.1.1,4.2.5,6.4,1.1-1.6.2-3.3.5-4.9.7-12.2,1.1-23.5-1.5-33.6-8.5-6.4-4.5-10-11.1-12.4-18.3-4.2-12.5-3.1-24.6,3.1-36.1,5.4-10,13.8-16.8,24.7-20.5,4.6-1.6,9.4-2.3,14.3-2.5.4,0,.7,0,1.4,0Z" fill="#fff"/>
</svg>