<?xml version="1.0" encoding="utf-8"?>
<!-- Generator: Adobe Illustrator 23.1.0, SVG Export Plug-In . SVG Version: 6.00 Build 0)  -->
<svg version="1.1" id="Layer_1" xmlns="http://www.w3.org/2000/svg" xmlns:xlink="http://www.w3.org/1999/xlink" x="0px" y="0px"
	 viewBox="0 0 494.23 640.2" style="enable-background:new 0 0 494.23 640.2;" xml:space="preserve">
<style type="text/css">
	.st0{fill:#EEEDEE;}
	.st1{fill:#52A4BD;}
	.st2{fill:#FEA96E;}
	.st3{fill:#7F8083;}
	.st4{fill:#FEA96D;}
	.st5{fill:#68BD52;}
	.st6{fill:#BABCBE;}
	.st7{fill:#BBBDBF;}
	.st8{fill:#B9BBBD;}
	.st9{fill:#BD5252;}
	.st10{fill:#808184;}
	.st11{fill:#808183;}
	.st12{fill:#58595B;}
	.st13{fill:#57585A;}
</style>
<g>
	<path class="st0" d="M442.25,639.86H52.35c-3.01-1.44-6.38-1.25-9.53-2.18c-22.73-6.67-35.95-22.11-41.67-44.65
		c-0.44-1.73,1.06-3.7-0.79-5.16V51.99c1.44-6.54,2.62-13.13,5.73-19.21C15.46,14.44,30.04,3.5,50.63,0.9
		c0.7-0.09,1.24-0.44,1.73-0.9h389.64c0.12,0.11,0.27,0.17,0.44,0.17c0.44,0.39,0.92,0.7,1.54,0.73
		c16.14,0.64,34.9,13.38,44.35,31.46c3.25,6.21,4.61,12.89,5.92,19.63v535.89c-1.35,6.21-2.41,12.42-5.28,18.27
		c-9.38,19.07-24.3,30.25-45.47,32.92C442.99,639.12,442.6,639.51,442.25,639.86z"/>
	<path class="st1" d="M357.57,134.38c2.43,0.06,3.87-1.2,5.45-1.99c19.06-9.49,38.15-18.89,57.07-28.64
		c3.6-1.86,4.67-0.95,6.03,2.29c18.99,45.16-10.18,96.25-58.73,102.75c-40.83,5.47-78.99-24.45-83.25-65.27
		c-4.32-41.35,24.21-77.36,65.24-82.36c0.33-0.04,0.66-0.06,1-0.09c7.2-0.59,7.2-0.59,7.2,6.47c0,20.65,0,41.29,0,61.94
		C357.57,131.09,357.57,132.7,357.57,134.38z"/>
	<path class="st2" d="M170.34,486.39c0-22.97-0.01-45.95,0.01-68.92c0-7.1,1.44-8.56,8.39-8.57c9.32-0.02,18.65-0.01,27.97,0
		c6.86,0.01,8.45,1.59,8.45,8.54c0.01,44.45,0.01,88.9,0.01,133.35c0,2.66,0.14,5.34-0.05,7.99c-0.28,3.83-2.18,6.14-6.35,6.12
		c-10.65-0.05-21.31,0.05-31.96-0.05c-4.55-0.04-6.41-2.26-6.43-7.54c-0.05-15.32-0.02-30.63-0.02-45.95
		C170.34,503.04,170.34,494.71,170.34,486.39z"/>
	<path class="st2" d="M159.32,498.41c0,19.47,0.01,38.94-0.01,58.41c0,6.4-1.6,8.05-7.85,8.07c-9.65,0.03-19.3,0.03-28.95,0
		c-5.98-0.02-7.95-1.81-7.95-7.59c-0.04-39.44-0.05-78.88,0.01-118.31c0.01-6.11,2.03-7.95,8.2-7.98c9.48-0.04,18.97-0.05,28.45,0
		c6.21,0.03,8.07,1.87,8.08,8C159.34,458.81,159.32,478.61,159.32,498.41z"/>
	<path class="st3" d="M342.28,438.76c-29.15,0-58.3-0.13-87.45,0.13c-4.84,0.04-5.84-1.55-5.6-5.9c0.33-6.15,0.35-12.34-0.01-18.48
		c-0.26-4.44,0.91-5.92,5.66-5.86c22.49,0.27,44.98,0.12,67.46,0.12c35.65,0,71.3,0,106.94,0c6.29,0,6.29,0,6.3,6.51
		c0,6-0.27,12.01,0.09,17.99c0.26,4.3-0.89,5.65-5.43,5.61C400.92,438.65,371.6,438.76,342.28,438.76z"/>
	<path class="st4" d="M103.46,509.39c0,15.99,0.02,31.99-0.01,47.99c-0.01,5.94-1.52,7.47-7.31,7.5c-10,0.04-19.99,0.05-29.99-0.01
		c-5.23-0.03-6.91-1.65-6.92-6.87c-0.04-32.49-0.04-64.98,0-97.47c0.01-5.49,1.35-6.83,6.8-6.87c10.16-0.07,20.33-0.07,30.49,0
		c5.68,0.04,6.92,1.35,6.93,7.24C103.48,477.07,103.46,493.23,103.46,509.39z"/>
	<path class="st5" d="M368.28,113.84c0-24.28,0.04-47.57-0.05-70.85c-0.01-2.77,1.09-3.37,3.55-3.21
		c27.4,1.74,47.7,14.82,61.53,38.33c0.85,1.44,1.36,2.58-0.64,3.58C411.44,92.25,390.24,102.86,368.28,113.84z"/>
	<path class="st6" d="M342.13,475.89c-28.98,0-57.96-0.08-86.94,0.08c-4.29,0.02-6.22-0.72-6.01-5.65c0.39-9.44,0.08-9.45,9.62-9.45
		c56.79,0,113.59,0.08,170.38-0.13c5.22-0.02,6.51,1.49,6.27,6.45c-0.49,10.05,1.2,8.65-8.88,8.68
		C398.42,475.93,370.28,475.89,342.13,475.89z"/>
	<path class="st6" d="M342.05,505.82c-28.98,0-57.95-0.09-86.92,0.09c-4.43,0.03-6.13-0.93-5.94-5.73c0.36-9.38,0.08-9.39,9.7-9.39
		c56.62,0,113.24,0,169.85,0c6.6,0,6.65,0.01,6.59,6.4c-0.09,9.92,1.31,8.59-8.85,8.61C398.34,505.86,370.2,505.82,342.05,505.82z"
		/>
	<path class="st7" d="M342.05,534.96c-28.98,0-57.96-0.09-86.93,0.09c-4.45,0.03-6.11-0.98-5.93-5.75c0.35-9.36,0.07-9.37,9.2-9.37
		c56.79,0,113.58,0,170.37,0c6.58,0,6.64,0,6.58,6.39c-0.09,10.01,1.25,8.59-8.84,8.61C398.34,535,370.2,534.96,342.05,534.96z"/>
	<path class="st6" d="M341.74,564.88c-28.98,0-57.96-0.09-86.94,0.1c-4.36,0.03-5.76-1.06-5.61-5.55c0.31-9.54,0.06-9.55,9.49-9.55
		c56.62,0,113.25,0,169.87,0c6.78,0,6.82,0,6.77,6.69c-0.08,9.44,1.19,8.28-8.15,8.29C398.7,564.91,370.22,564.88,341.74,564.88z"/>
	<path class="st6" d="M176.82,78.98c-20.81,0-41.62-0.08-62.43,0.07c-3.75,0.03-5.25-0.78-5.2-4.93
		c0.13-12.13-0.06-12.13,11.91-12.13c38.96,0,77.92,0.08,116.87-0.11c4.85-0.02,6.69,0.89,6.47,6.22
		c-0.45,10.87-0.12,10.88-11.19,10.88C214.45,78.98,195.64,78.98,176.82,78.98z"/>
	<path class="st6" d="M176.83,122.89c-20.47,0-40.95-0.14-61.41,0.1c-4.64,0.05-6.39-0.97-6.24-5.97
		c0.35-11.13,0.09-11.14,11.44-11.14c39.11,0,78.23,0.08,117.34-0.1c4.83-0.02,6.72,0.88,6.5,6.22
		c-0.45,10.87-0.12,10.88-11.2,10.88C214.44,122.89,195.64,122.89,176.83,122.89z"/>
	<path class="st6" d="M176.52,165.98c-20.81,0-41.62-0.08-62.43,0.07c-3.65,0.03-4.89-0.93-4.89-4.74
		c0.02-12.33-0.13-12.33,12.2-12.33c39.12,0,78.25,0.07,117.37-0.09c4.32-0.02,5.75,1,5.65,5.51c-0.27,11.57-0.04,11.58-11.47,11.58
		C214.15,165.98,195.33,165.98,176.52,165.98z"/>
	<path class="st6" d="M176.86,209.01c-20.64,0-41.29-0.1-61.93,0.09c-4.17,0.04-5.87-0.76-5.76-5.42
		c0.28-11.67,0.04-11.67,11.9-11.67c38.95,0,77.91,0.08,116.86-0.1c4.79-0.02,6.75,0.79,6.52,6.19
		c-0.46,10.9-0.12,10.92-11.16,10.92C214.48,209.01,195.67,209.01,176.86,209.01z"/>
	<path class="st8" d="M246.97,369.92c-61.48,0-122.96-0.06-184.43,0.12c-5.1,0.02-6.42-1.37-6.39-6.41
		c0.21-36.99,0.11-73.98,0.12-110.97c0-1.17-0.01-2.33,0.06-3.5c0.06-1.07,0.44-1.99,1.73-1.98c1.15,0.01,1.93,0.73,2.08,1.78
		c0.21,1.47,0.21,2.98,0.21,4.48c0.01,35.49,0.1,70.98-0.1,106.47c-0.03,4.86,1.37,6.05,6.13,6.05
		c121.46-0.13,242.91-0.11,364.37-0.03c2.36,0,6.63-1.59,6.7,1.89c0.07,3.69-4.23,2.02-6.53,2.02
		C369.59,369.94,308.28,369.92,246.97,369.92z"/>
	<path class="st9" d="M231.42,312.55c8.61-11.6,17.07-13,28.43-4.71c3.52,1.2,4.33,4,4.31,7.29c0.84,8.26-1.29,15.22-8.99,19.44
		c-10.52,5.77-23.31-1.15-24.98-13.38C228.3,317.99,228.71,315.11,231.42,312.55z"/>
	<path class="st9" d="M304.44,278.79c0.23-2.61-0.16-5.23,0.58-7.86c1.97-6.96,7.75-12.13,14.73-12.88
		c6.91-0.74,13.79,3.15,16.98,9.66c0.65,1.33,1.08,2.76,1.61,4.14c1.95,3.2,2.38,6.24-0.9,8.91c-6.15,12.57-16.08,14.56-28.97,5.81
		C305.65,284.75,303.92,282.36,304.44,278.79z"/>
	<path class="st9" d="M189.17,311.03c-7.22,11.12-17.35,13.95-26.24,7.22c-1.69-1.28-3.08-2.98-4.6-4.48
		c-3.08-2.34-4-5.23-2.19-8.79c0.67-9.35,6.33-16.04,14.41-17.04c9.03-1.11,16.03,3.68,19.03,13.02c0.15,0.46,0.45,0.88,0.68,1.32
		C192.59,305.54,191.86,308.41,189.17,311.03z"/>
	<path class="st10" d="M58.25,157.26c0.15-9.56,7.74-16.72,17.48-16.48c9.13,0.22,16.72,8.19,16.41,17.23
		c-0.31,9.13-8.12,16.74-17.15,16.7C65.77,174.68,58.1,166.69,58.25,157.26z"/>
	<path class="st9" d="M381.31,280.28c7.61-7.48,14.06-9.25,21.34-5.85c7.5,3.5,11.35,11.34,9.54,19.42c-1.68,7.5-9,13.2-16.78,13.06
		c-8.06-0.14-14.85-5.99-16.36-14.11c-0.24-1.3-0.4-2.62-0.59-3.94C377.48,285.36,378.2,282.42,381.31,280.28z"/>
	<path class="st11" d="M58.25,69.93c0.15-9.07,7.99-16.68,17.1-16.58c9.15,0.1,17.11,8.42,16.79,17.54
		c-0.33,9.31-7.86,16.45-17.27,16.37C65.27,87.17,58.09,79.69,58.25,69.93z"/>
	<path class="st10" d="M58.25,113.89c0.04-9.26,7.53-16.82,16.74-16.89c9.23-0.08,17.25,7.95,17.15,17.17
		c-0.1,9.29-8.03,16.94-17.44,16.81C65.47,130.85,58.21,123.31,58.25,113.89z"/>
	<path class="st10" d="M58.25,200.75c0-9.6,7.45-16.96,17.1-16.89c9.14,0.06,16.75,7.71,16.8,16.87
		c0.05,8.94-7.81,16.93-16.77,17.06C66.06,217.91,58.24,210.13,58.25,200.75z"/>
	<path class="st9" d="M115.68,332.13c0.03,9.52-3.87,15.85-11.38,18.44c-6.86,2.37-14.67-0.12-19.08-6.08
		c-5.01-6.77-4.19-16.38,1.91-22.25c6.1-5.88,15.68-6.31,22.28-0.97c1.03,0.83,1.96,1.78,2.93,2.67
		C115.58,325.8,116.99,328.41,115.68,332.13z"/>
	<path class="st12" d="M304.44,278.79c1.34,2.6,2.69,5.19,4.04,7.79c-14.77,9.51-29.54,19.03-44.32,28.55
		c-1.44-2.43-2.87-4.86-4.31-7.29C274.71,298.15,289.58,288.47,304.44,278.79z"/>
	<path class="st12" d="M115.68,332.13c-0.41-3.01-1.96-5.56-3.33-8.19c14.6-6.32,29.19-12.64,43.79-18.95
		c-0.21,3.17,1.29,5.9,2.19,8.79C144.11,319.89,129.89,326.01,115.68,332.13z"/>
	<path class="st12" d="M381.31,280.28c-0.95,2.86-1.91,5.72-2.86,8.58c-13.67-2.7-27.34-5.4-41-8.09c1.37-2.87,0.61-5.94,0.9-8.92
		C352.67,274.66,366.99,277.47,381.31,280.28z"/>
	<path class="st13" d="M189.17,311.03c0.43-2.9,1.44-5.74,1.08-8.74c13.72,3.42,27.44,6.84,41.17,10.26
		c-0.41,2.88-0.82,5.76-1.23,8.64C216.52,317.81,202.84,314.42,189.17,311.03z"/>
</g>
<g>
	<path class="st0" d="M442,640.2H52.11c-3.01-1.44-6.38-1.25-9.53-2.18c-22.73-6.67-35.95-22.11-41.67-44.65
		c-0.44-1.73,1.06-3.7-0.79-5.16V52.33c1.44-6.54,2.62-13.13,5.73-19.21C15.21,14.78,29.8,3.84,50.39,1.24
		c0.7-0.09,1.24-0.44,1.73-0.9h389.64c0.12,0.11,0.27,0.17,0.44,0.17c0.44,0.39,0.92,0.7,1.54,0.73
		c16.14,0.64,34.9,13.38,44.35,31.46c3.25,6.21,4.61,12.89,5.92,19.63v535.89c-1.35,6.21-2.41,12.42-5.28,18.27
		c-9.38,19.07-24.3,30.25-45.47,32.92C442.75,639.47,442.36,639.85,442,640.2z"/>
	<path class="st1" d="M357.33,134.72c2.43,0.06,3.87-1.2,5.45-1.99c19.06-9.49,38.15-18.89,57.07-28.64
		c3.6-1.86,4.67-0.95,6.03,2.29c18.99,45.16-10.18,96.25-58.73,102.75c-40.83,5.47-78.99-24.45-83.25-65.27
		c-4.32-41.35,24.21-77.36,65.24-82.36c0.33-0.04,0.66-0.06,1-0.09c7.2-0.59,7.2-0.59,7.2,6.47c0,20.65,0,41.29,0,61.94
		C357.33,131.43,357.33,133.05,357.33,134.72z"/>
	<path class="st2" d="M170.1,486.73c0-22.97-0.01-45.95,0.01-68.92c0-7.1,1.44-8.56,8.39-8.57c9.32-0.02,18.65-0.01,27.97,0
		c6.86,0.01,8.45,1.59,8.45,8.54c0.01,44.45,0.01,88.9,0.01,133.35c0,2.66,0.14,5.34-0.05,7.99c-0.28,3.83-2.18,6.14-6.35,6.12
		c-10.65-0.05-21.31,0.05-31.96-0.05c-4.55-0.04-6.41-2.26-6.43-7.54c-0.05-15.32-0.02-30.63-0.02-45.95
		C170.1,503.38,170.1,495.05,170.1,486.73z"/>
	<path class="st2" d="M159.08,498.75c0,19.47,0.01,38.94-0.01,58.41c0,6.4-1.6,8.05-7.85,8.07c-9.65,0.03-19.3,0.03-28.95,0
		c-5.98-0.02-7.95-1.81-7.95-7.59c-0.04-39.44-0.05-78.88,0.01-118.31c0.01-6.11,2.03-7.95,8.2-7.98c9.48-0.04,18.97-0.05,28.45,0
		c6.21,0.03,8.07,1.87,8.08,8C159.1,459.15,159.08,478.95,159.08,498.75z"/>
	<path class="st3" d="M342.04,439.11c-29.15,0-58.3-0.13-87.45,0.13c-4.84,0.04-5.84-1.55-5.6-5.9c0.33-6.15,0.35-12.34-0.01-18.48
		c-0.26-4.44,0.91-5.92,5.66-5.86c22.49,0.27,44.98,0.12,67.46,0.12c35.65,0,71.3,0,106.94,0c6.29,0,6.29,0,6.3,6.51
		c0,6-0.27,12.01,0.09,17.99c0.26,4.3-0.89,5.65-5.43,5.61C400.68,439,371.36,439.11,342.04,439.11z"/>
	<path class="st4" d="M103.21,509.73c0,16,0.02,31.99-0.01,47.99c-0.01,5.94-1.52,7.47-7.31,7.5c-10,0.04-19.99,0.05-29.99-0.01
		c-5.23-0.03-6.91-1.65-6.92-6.87c-0.04-32.49-0.04-64.98,0-97.47c0.01-5.49,1.35-6.83,6.8-6.87c10.16-0.07,20.33-0.07,30.49,0
		c5.68,0.04,6.92,1.35,6.93,7.24C103.24,477.41,103.21,493.57,103.21,509.73z"/>
	<path class="st5" d="M368.04,114.18c0-24.28,0.04-47.57-0.05-70.85c-0.01-2.77,1.09-3.37,3.55-3.21
		c27.4,1.74,47.7,14.82,61.53,38.33c0.85,1.44,1.36,2.58-0.64,3.58C411.2,92.59,390,103.2,368.04,114.18z"/>
	<path class="st6" d="M341.89,476.23c-28.98,0-57.96-0.08-86.94,0.08c-4.29,0.02-6.22-0.72-6.01-5.65c0.39-9.44,0.08-9.45,9.62-9.45
		c56.79,0,113.59,0.08,170.38-0.13c5.22-0.02,6.51,1.49,6.27,6.45c-0.49,10.05,1.2,8.65-8.88,8.68
		C398.18,476.27,370.04,476.23,341.89,476.23z"/>
	<path class="st6" d="M341.81,506.16c-28.98,0-57.95-0.09-86.92,0.09c-4.43,0.03-6.13-0.93-5.94-5.73c0.36-9.38,0.08-9.39,9.7-9.39
		c56.62,0,113.24,0,169.85,0c6.6,0,6.65,0.01,6.59,6.4c-0.09,9.92,1.31,8.59-8.85,8.61C398.1,506.2,369.96,506.16,341.81,506.16z"/>
	<path class="st7" d="M341.81,535.3c-28.98,0-57.96-0.09-86.93,0.09c-4.45,0.03-6.11-0.98-5.93-5.75c0.35-9.36,0.07-9.37,9.2-9.37
		c56.79,0,113.58,0,170.37,0c6.58,0,6.64,0,6.58,6.39c-0.09,10.01,1.25,8.59-8.84,8.61C398.1,535.34,369.96,535.3,341.81,535.3z"/>
	<path class="st6" d="M341.5,565.22c-28.98,0-57.96-0.09-86.94,0.1c-4.36,0.03-5.76-1.06-5.61-5.55c0.31-9.54,0.06-9.55,9.49-9.55
		c56.62,0,113.25,0,169.87,0c6.78,0,6.82,0,6.77,6.69c-0.08,9.44,1.19,8.28-8.15,8.29C398.46,565.25,369.98,565.22,341.5,565.22z"/>
	<path class="st6" d="M176.58,79.32c-20.81,0-41.62-0.08-62.43,0.07c-3.75,0.03-5.25-0.78-5.2-4.93
		c0.13-12.13-0.06-12.13,11.91-12.13c38.96,0,77.92,0.08,116.87-0.11c4.85-0.02,6.69,0.89,6.47,6.22
		c-0.45,10.87-0.12,10.88-11.19,10.88C214.21,79.32,195.4,79.32,176.58,79.32z"/>
	<path class="st6" d="M176.59,123.23c-20.47,0-40.95-0.14-61.41,0.1c-4.64,0.05-6.39-0.97-6.24-5.97
		c0.35-11.13,0.09-11.14,11.44-11.14c39.11,0,78.23,0.08,117.34-0.1c4.83-0.02,6.72,0.88,6.5,6.22
		c-0.45,10.87-0.12,10.88-11.2,10.88C214.2,123.23,195.39,123.23,176.59,123.23z"/>
	<path class="st6" d="M176.28,166.32c-20.81,0-41.62-0.08-62.43,0.07c-3.65,0.03-4.89-0.93-4.89-4.74
		c0.02-12.33-0.13-12.33,12.2-12.33c39.12,0,78.25,0.07,117.37-0.09c4.32-0.02,5.75,1,5.65,5.51c-0.27,11.57-0.04,11.58-11.47,11.58
		C213.9,166.32,195.09,166.32,176.28,166.32z"/>
	<path class="st6" d="M176.62,209.35c-20.64,0-41.29-0.1-61.93,0.09c-4.17,0.04-5.87-0.76-5.76-5.42
		c0.28-11.67,0.04-11.67,11.9-11.67c38.95,0,77.91,0.08,116.86-0.1c4.79-0.02,6.75,0.79,6.52,6.19
		c-0.46,10.9-0.12,10.92-11.16,10.92C214.24,209.35,195.43,209.35,176.62,209.35z"/>
	<path class="st8" d="M246.72,370.26c-61.48,0-122.96-0.06-184.43,0.12c-5.1,0.02-6.42-1.37-6.39-6.41
		c0.21-36.99,0.11-73.98,0.12-110.97c0-1.17-0.01-2.33,0.06-3.5c0.06-1.07,0.44-1.99,1.73-1.98c1.15,0.01,1.93,0.73,2.08,1.78
		c0.21,1.47,0.21,2.98,0.21,4.48c0.01,35.49,0.1,70.98-0.1,106.47c-0.03,4.86,1.37,6.05,6.13,6.05
		c121.46-0.13,242.91-0.11,364.37-0.03c2.36,0,6.63-1.59,6.7,1.89c0.07,3.69-4.23,2.02-6.53,2.02
		C369.35,370.28,308.04,370.26,246.72,370.26z"/>
	<path class="st9" d="M231.18,312.89c8.61-11.6,17.07-13,28.43-4.71c3.52,1.2,4.33,4,4.31,7.29c0.84,8.26-1.29,15.22-8.99,19.44
		c-10.52,5.77-23.31-1.15-24.98-13.38C228.06,318.33,228.47,315.45,231.18,312.89z"/>
	<path class="st9" d="M304.2,279.13c0.23-2.61-0.16-5.23,0.58-7.86c1.97-6.96,7.75-12.13,14.73-12.88
		c6.91-0.74,13.79,3.15,16.98,9.66c0.65,1.33,1.08,2.76,1.61,4.14c1.95,3.2,2.38,6.24-0.9,8.91c-6.15,12.57-16.08,14.56-28.97,5.81
		C305.41,285.09,303.68,282.7,304.2,279.13z"/>
	<path class="st9" d="M188.93,311.37c-7.22,11.12-17.35,13.95-26.24,7.22c-1.69-1.28-3.08-2.98-4.6-4.48
		c-3.08-2.34-4-5.23-2.19-8.79c0.67-9.35,6.33-16.04,14.41-17.04c9.03-1.11,16.03,3.68,19.03,13.02c0.15,0.46,0.45,0.88,0.68,1.32
		C192.35,305.88,191.62,308.75,188.93,311.37z"/>
	<path class="st10" d="M58.01,157.6c0.15-9.56,7.74-16.72,17.48-16.48c9.13,0.22,16.72,8.19,16.41,17.23
		c-0.31,9.13-8.12,16.74-17.15,16.7C65.53,175.02,57.86,167.03,58.01,157.6z"/>
	<path class="st9" d="M381.07,280.63c7.61-7.48,14.06-9.25,21.34-5.85c7.5,3.5,11.35,11.34,9.54,19.42c-1.68,7.5-9,13.2-16.78,13.06
		c-8.06-0.14-14.85-5.99-16.36-14.11c-0.24-1.3-0.4-2.62-0.59-3.94C377.24,285.7,377.96,282.76,381.07,280.63z"/>
	<path class="st11" d="M58.01,70.27c0.15-9.07,7.99-16.68,17.1-16.58c9.15,0.1,17.11,8.42,16.79,17.54
		c-0.33,9.31-7.86,16.45-17.27,16.37C65.03,87.52,57.85,80.03,58.01,70.27z"/>
	<path class="st10" d="M58.01,114.23c0.04-9.26,7.53-16.82,16.74-16.89c9.23-0.08,17.25,7.95,17.15,17.17
		c-0.1,9.29-8.03,16.94-17.44,16.81C65.23,131.19,57.97,123.65,58.01,114.23z"/>
	<path class="st10" d="M58.01,201.09c0-9.6,7.45-16.96,17.1-16.89c9.14,0.06,16.75,7.71,16.8,16.87C91.96,210,84.1,218,75.13,218.12
		C65.82,218.25,58,210.47,58.01,201.09z"/>
	<path class="st9" d="M115.44,332.47c0.03,9.52-3.87,15.85-11.38,18.44c-6.86,2.37-14.67-0.12-19.08-6.08
		c-5.01-6.77-4.19-16.38,1.91-22.25c6.1-5.88,15.68-6.31,22.28-0.97c1.03,0.83,1.96,1.78,2.93,2.67
		C115.34,326.14,116.75,328.75,115.44,332.47z"/>
	<path class="st12" d="M304.2,279.13c1.34,2.6,2.69,5.19,4.04,7.79c-14.77,9.51-29.54,19.03-44.32,28.55
		c-1.44-2.43-2.87-4.86-4.31-7.29C274.47,298.5,289.34,288.81,304.2,279.13z"/>
	<path class="st12" d="M115.44,332.47c-0.41-3.01-1.96-5.56-3.33-8.19c14.6-6.32,29.19-12.64,43.79-18.95
		c-0.21,3.17,1.29,5.9,2.19,8.79C143.87,320.23,129.65,326.35,115.44,332.47z"/>
	<path class="st12" d="M381.07,280.63c-0.95,2.86-1.91,5.72-2.86,8.58c-13.67-2.7-27.34-5.4-41-8.09c1.37-2.87,0.61-5.94,0.9-8.92
		C352.43,275.01,366.75,277.82,381.07,280.63z"/>
	<path class="st13" d="M188.93,311.37c0.43-2.9,1.44-5.74,1.08-8.74c13.72,3.42,27.44,6.84,41.17,10.26
		c-0.41,2.88-0.82,5.76-1.23,8.64C216.27,318.15,202.6,314.76,188.93,311.37z"/>
</g>
<g>
	<path class="st0" d="M441.88,640.2H51.99c-3.01-1.44-6.38-1.25-9.53-2.18c-22.73-6.67-35.95-22.11-41.67-44.65
		c-0.44-1.73,1.06-3.7-0.79-5.16V52.33c1.44-6.54,2.62-13.13,5.73-19.21C15.09,14.78,29.67,3.84,50.26,1.24
		c0.7-0.09,1.24-0.44,1.73-0.9h389.64c0.12,0.11,0.27,0.17,0.44,0.17c0.44,0.39,0.92,0.7,1.54,0.73
		c16.14,0.64,34.9,13.38,44.35,31.46c3.25,6.21,4.61,12.89,5.92,19.63v535.89c-1.35,6.21-2.41,12.42-5.28,18.27
		c-9.38,19.07-24.3,30.25-45.47,32.92C442.62,639.47,442.23,639.85,441.88,640.2z"/>
	<path class="st1" d="M357.2,134.72c2.43,0.06,3.87-1.2,5.45-1.99c19.06-9.49,38.15-18.89,57.07-28.64c3.6-1.86,4.67-0.95,6.03,2.29
		c18.99,45.16-10.18,96.25-58.73,102.75c-40.83,5.47-78.99-24.45-83.25-65.27c-4.32-41.35,24.21-77.36,65.24-82.36
		c0.33-0.04,0.66-0.06,1-0.09c7.2-0.59,7.2-0.59,7.2,6.47c0,20.65,0,41.29,0,61.94C357.2,131.43,357.2,133.05,357.2,134.72z"/>
	<path class="st2" d="M169.98,486.73c0-22.97-0.01-45.95,0.01-68.92c0-7.1,1.44-8.56,8.39-8.57c9.32-0.02,18.65-0.01,27.97,0
		c6.86,0.01,8.45,1.59,8.45,8.54c0.01,44.45,0.01,88.9,0.01,133.35c0,2.66,0.14,5.34-0.05,7.99c-0.28,3.83-2.18,6.14-6.35,6.12
		c-10.65-0.05-21.31,0.05-31.96-0.05c-4.55-0.04-6.41-2.26-6.43-7.54c-0.05-15.32-0.02-30.63-0.02-45.95
		C169.98,503.38,169.98,495.05,169.98,486.73z"/>
	<path class="st2" d="M158.95,498.75c0,19.47,0.01,38.94-0.01,58.41c0,6.4-1.6,8.05-7.85,8.07c-9.65,0.03-19.3,0.03-28.95,0
		c-5.98-0.02-7.95-1.81-7.95-7.59c-0.04-39.44-0.05-78.88,0.01-118.31c0.01-6.11,2.03-7.95,8.2-7.98c9.48-0.04,18.97-0.05,28.45,0
		c6.21,0.03,8.07,1.87,8.08,8C158.97,459.15,158.95,478.95,158.95,498.75z"/>
	<path class="st3" d="M341.91,439.11c-29.15,0-58.3-0.13-87.45,0.13c-4.84,0.04-5.84-1.55-5.6-5.9c0.33-6.15,0.35-12.34-0.01-18.48
		c-0.26-4.44,0.91-5.92,5.66-5.86c22.49,0.27,44.98,0.12,67.46,0.12c35.65,0,71.3,0,106.94,0c6.29,0,6.29,0,6.3,6.51
		c0,6-0.27,12.01,0.09,17.99c0.26,4.3-0.89,5.65-5.43,5.61C400.55,439,371.23,439.11,341.91,439.11z"/>
	<path class="st4" d="M103.09,509.73c0,16,0.02,31.99-0.01,47.99c-0.01,5.94-1.52,7.47-7.31,7.5c-10,0.04-19.99,0.05-29.99-0.01
		c-5.23-0.03-6.91-1.65-6.92-6.87c-0.04-32.49-0.04-64.98,0-97.47c0.01-5.49,1.35-6.83,6.8-6.87c10.16-0.07,20.33-0.07,30.49,0
		c5.68,0.04,6.92,1.35,6.93,7.24C103.11,477.41,103.09,493.57,103.09,509.73z"/>
	<path class="st5" d="M367.91,114.18c0-24.28,0.04-47.57-0.05-70.85c-0.01-2.77,1.09-3.37,3.55-3.21
		c27.4,1.74,47.7,14.82,61.53,38.33c0.85,1.44,1.36,2.58-0.64,3.58C411.07,92.59,389.87,103.2,367.91,114.18z"/>
	<path class="st6" d="M341.76,476.23c-28.98,0-57.96-0.08-86.94,0.08c-4.29,0.02-6.22-0.72-6.01-5.65c0.39-9.44,0.08-9.45,9.62-9.45
		c56.79,0,113.59,0.08,170.38-0.13c5.22-0.02,6.51,1.49,6.27,6.45c-0.49,10.05,1.2,8.65-8.88,8.68
		C398.06,476.27,369.91,476.23,341.76,476.23z"/>
	<path class="st6" d="M341.69,506.16c-28.98,0-57.95-0.09-86.92,0.09c-4.43,0.03-6.13-0.93-5.94-5.73c0.36-9.38,0.08-9.39,9.7-9.39
		c56.62,0,113.24,0,169.85,0c6.6,0,6.65,0.01,6.59,6.4c-0.09,9.92,1.31,8.59-8.85,8.61C397.97,506.2,369.83,506.16,341.69,506.16z"
		/>
	<path class="st7" d="M341.68,535.3c-28.98,0-57.96-0.09-86.93,0.09c-4.45,0.03-6.11-0.98-5.93-5.75c0.35-9.36,0.07-9.37,9.2-9.37
		c56.79,0,113.58,0,170.37,0c6.58,0,6.64,0,6.58,6.39c-0.09,10.01,1.25,8.59-8.84,8.61C397.98,535.34,369.83,535.3,341.68,535.3z"/>
	<path class="st6" d="M341.37,565.22c-28.98,0-57.96-0.09-86.94,0.1c-4.36,0.03-5.76-1.06-5.61-5.55c0.31-9.54,0.06-9.55,9.49-9.55
		c56.62,0,113.25,0,169.87,0c6.78,0,6.82,0,6.77,6.69c-0.08,9.44,1.19,8.28-8.15,8.29C398.33,565.25,369.85,565.22,341.37,565.22z"
		/>
	<path class="st6" d="M176.45,79.32c-20.81,0-41.62-0.08-62.43,0.07c-3.75,0.03-5.25-0.78-5.2-4.93
		c0.13-12.13-0.06-12.13,11.91-12.13c38.96,0,77.92,0.08,116.87-0.11c4.85-0.02,6.69,0.89,6.47,6.22
		c-0.45,10.87-0.12,10.88-11.19,10.88C214.08,79.32,195.27,79.32,176.45,79.32z"/>
	<path class="st6" d="M176.46,123.23c-20.47,0-40.95-0.14-61.41,0.1c-4.64,0.05-6.39-0.97-6.24-5.97
		c0.35-11.13,0.09-11.14,11.44-11.14c39.11,0,78.23,0.08,117.34-0.1c4.83-0.02,6.72,0.88,6.5,6.22
		c-0.45,10.87-0.12,10.88-11.2,10.88C214.07,123.23,195.27,123.23,176.46,123.23z"/>
	<path class="st6" d="M176.15,166.32c-20.81,0-41.62-0.08-62.43,0.07c-3.65,0.03-4.89-0.93-4.89-4.74
		c0.02-12.33-0.13-12.33,12.2-12.33c39.12,0,78.25,0.07,117.37-0.09c4.32-0.02,5.75,1,5.65,5.51c-0.27,11.57-0.04,11.58-11.47,11.58
		C213.78,166.32,194.96,166.32,176.15,166.32z"/>
	<path class="st6" d="M176.49,209.35c-20.64,0-41.29-0.1-61.93,0.09c-4.17,0.04-5.87-0.76-5.76-5.42
		c0.28-11.67,0.04-11.67,11.9-11.67c38.95,0,77.91,0.08,116.86-0.1c4.79-0.02,6.75,0.79,6.52,6.19
		c-0.46,10.9-0.12,10.92-11.16,10.92C214.11,209.35,195.3,209.35,176.49,209.35z"/>
	<path class="st8" d="M246.6,370.26c-61.48,0-122.96-0.06-184.43,0.12c-5.1,0.02-6.42-1.37-6.39-6.41
		c0.21-36.99,0.11-73.98,0.12-110.97c0-1.17-0.01-2.33,0.06-3.5c0.06-1.07,0.44-1.99,1.73-1.98c1.15,0.01,1.93,0.73,2.08,1.78
		c0.21,1.47,0.21,2.98,0.21,4.48c0.01,35.49,0.1,70.98-0.1,106.47c-0.03,4.86,1.37,6.05,6.13,6.05
		c121.46-0.13,242.91-0.11,364.37-0.03c2.36,0,6.63-1.59,6.7,1.89c0.07,3.69-4.23,2.02-6.53,2.02
		C369.22,370.28,307.91,370.26,246.6,370.26z"/>
	<path class="st9" d="M231.05,312.89c8.61-11.6,17.07-13,28.43-4.71c3.52,1.2,4.33,4,4.31,7.29c0.84,8.26-1.29,15.22-8.99,19.44
		c-10.52,5.77-23.31-1.15-24.98-13.38C227.93,318.33,228.34,315.45,231.05,312.89z"/>
	<path class="st9" d="M304.07,279.13c0.23-2.61-0.16-5.23,0.58-7.86c1.97-6.96,7.75-12.13,14.73-12.88
		c6.91-0.74,13.79,3.15,16.98,9.66c0.65,1.33,1.08,2.76,1.61,4.14c1.95,3.2,2.38,6.24-0.9,8.91c-6.15,12.57-16.08,14.56-28.97,5.81
		C305.28,285.09,303.55,282.7,304.07,279.13z"/>
	<path class="st9" d="M188.8,311.37c-7.22,11.12-17.35,13.95-26.24,7.22c-1.69-1.28-3.08-2.98-4.6-4.48c-3.08-2.34-4-5.23-2.19-8.79
		c0.67-9.35,6.33-16.04,14.41-17.04c9.03-1.11,16.03,3.68,19.03,13.02c0.15,0.46,0.45,0.88,0.68,1.32
		C192.22,305.88,191.49,308.75,188.8,311.37z"/>
	<path class="st10" d="M57.88,157.6c0.15-9.56,7.74-16.72,17.48-16.48c9.13,0.22,16.72,8.19,16.41,17.23
		c-0.31,9.13-8.12,16.74-17.15,16.7C65.4,175.02,57.74,167.03,57.88,157.6z"/>
	<path class="st9" d="M380.95,280.63c7.61-7.48,14.06-9.25,21.34-5.85c7.5,3.5,11.35,11.34,9.54,19.42c-1.68,7.5-9,13.2-16.78,13.06
		c-8.06-0.14-14.85-5.99-16.36-14.11c-0.24-1.3-0.4-2.62-0.59-3.94C377.11,285.7,377.83,282.76,380.95,280.63z"/>
	<path class="st11" d="M57.88,70.27c0.15-9.07,7.99-16.68,17.1-16.58c9.15,0.1,17.11,8.42,16.79,17.54
		c-0.33,9.31-7.86,16.45-17.27,16.37C64.9,87.52,57.72,80.03,57.88,70.27z"/>
	<path class="st10" d="M57.88,114.23c0.04-9.26,7.53-16.82,16.74-16.89c9.23-0.08,17.25,7.95,17.15,17.17
		c-0.1,9.29-8.03,16.94-17.44,16.81C65.1,131.19,57.84,123.65,57.88,114.23z"/>
	<path class="st10" d="M57.88,201.09c0-9.6,7.45-16.96,17.1-16.89c9.14,0.06,16.75,7.71,16.8,16.87
		c0.05,8.94-7.81,16.93-16.77,17.06C65.7,218.25,57.88,210.47,57.88,201.09z"/>
	<path class="st9" d="M115.31,332.47c0.03,9.52-3.87,15.85-11.38,18.44c-6.86,2.37-14.67-0.12-19.08-6.08
		c-5.01-6.77-4.19-16.38,1.91-22.25c6.1-5.88,15.68-6.31,22.28-0.97c1.03,0.83,1.96,1.78,2.93,2.67
		C115.21,326.14,116.62,328.75,115.31,332.47z"/>
	<path class="st12" d="M304.07,279.13c1.34,2.6,2.69,5.19,4.04,7.79c-14.77,9.51-29.54,19.03-44.32,28.55
		c-1.44-2.43-2.87-4.86-4.31-7.29C274.35,298.5,289.21,288.81,304.07,279.13z"/>
	<path class="st12" d="M115.31,332.47c-0.41-3.01-1.96-5.56-3.33-8.19c14.6-6.32,29.19-12.64,43.79-18.95
		c-0.21,3.17,1.29,5.9,2.19,8.79C143.74,320.23,129.52,326.35,115.31,332.47z"/>
	<path class="st12" d="M380.95,280.63c-0.95,2.86-1.91,5.72-2.86,8.58c-13.67-2.7-27.34-5.4-41-8.09c1.37-2.87,0.61-5.94,0.9-8.92
		C352.3,275.01,366.62,277.82,380.95,280.63z"/>
	<path class="st13" d="M188.8,311.37c0.43-2.9,1.44-5.74,1.08-8.74c13.72,3.42,27.44,6.84,41.17,10.26
		c-0.41,2.88-0.82,5.76-1.23,8.64C216.15,318.15,202.47,314.76,188.8,311.37z"/>
</g>
</svg>
