<?xml version="1.0" encoding="utf-8"?>
<!-- Generator: Adobe Illustrator 23.1.0, SVG Export Plug-In . SVG Version: 6.00 Build 0)  -->
<svg version="1.1" id="Layer_1" xmlns="http://www.w3.org/2000/svg" xmlns:xlink="http://www.w3.org/1999/xlink" x="0px" y="0px"
	 viewBox="0 0 481.96 621.45" style="enable-background:new 0 0 481.96 621.45;" xml:space="preserve">
<style type="text/css">
	.st0{fill:#828580;}
	.st1{fill:#9FA09C;}
	.st2{fill:#673F00;}
	.st3{fill:#727572;}
	.st4{fill:#696C69;}
	.st5{fill:#E1E1E0;}
	.st6{fill:#E9E9E8;}
	.st7{fill:#6C6E6A;}
	.st8{fill:#C07D12;}
	.st9{fill:#F7E8D2;}
	.st10{fill:#EED9B7;}
	.st11{fill:#C78A29;}
	.st12{fill:#C68929;}
	.st13{fill:#CF9942;}
	.st14{fill:#CE9945;}
	.st15{fill:#DDB678;}
	.st16{fill:#CA9136;}
	.st17{fill:#D7A75C;}
	.st18{fill:#E7C693;}
	.st19{fill:#D3A356;}
	.st20{fill:#D9AE69;}
	.st21{fill:#E1BA7D;}
	.st22{fill:#DCB06B;}
	.st23{fill:#535756;}
	.st24{fill:#5F6361;}
	.st25{fill:#522300;}
	.st26{fill:#4F2100;}
	.st27{fill:#BAA47F;}
	.st28{fill:#F0DAB7;}
	.st29{fill:#E4C491;}
	.st30{fill:#E9CEA3;}
	.st31{fill:#CECFCD;}
	.st32{fill:#BCBDB9;}
	.st33{fill:#CBCCC9;}
	.st34{fill:#D8D8D6;}
	.st35{fill:#878984;}
	.st36{fill:#C9861C;}
	.st37{fill:#CD8D28;}
	.st38{fill:#EBC385;}
	.st39{fill:#ECD0A5;}
	.st40{fill:#F4E1C6;}
	.st41{fill:#FEFEFD;}
	.st42{fill:#D09230;}
	.st43{fill:#FEF7DF;}
	.st44{fill:#E2B166;}
	.st45{fill:#D8A049;}
	.st46{fill:#F4F4F3;}
	.st47{fill:#8C8F8F;}
	.st48{fill:#414647;}
	.st49{fill:#B8B9B6;}
	.st50{fill:#505554;}
	.st51{fill:#ACADA9;}
	.st52{fill:#3D4343;}
	.st53{fill:#C6C7C4;}
	.st54{fill:#E0E2DD;}
	.st55{fill:#DBDED8;}
	.st56{fill:#F5F6F5;}
	.st57{fill:#EDEEEB;}
	.st58{fill:#D9DCD6;}
	.st59{fill:#D6D9D3;}
	.st60{fill:#F0F0EE;}
	.st61{fill:#C7CAC4;}
	.st62{fill:#6E706B;}
	.st63{fill:#BEBFBB;}
	.st64{fill:#FCFDFB;}
	.st65{fill:#E6E7E7;}
	.st66{fill:#70726D;}
	.st67{fill:#6B6E68;}
	.st68{fill:#E9EAE7;}
	.st69{fill:#323839;}
	.st70{fill:#FCFCF8;}
	.st71{fill:#A5A6A2;}
	.st72{fill:#9C9D99;}
	.st73{fill:#ABACA8;}
	.st74{fill:#888A85;}
	.st75{fill:#FDFDFD;}
	.st76{fill:#767873;}
	.st77{fill:#6F716C;}
	.st78{fill:#737570;}
	.st79{fill:#F8F9F5;}
	.st80{fill:#AAACA7;}
	.st81{fill:#F5F7F2;}
	.st82{fill:#FBFCF9;}
	.st83{fill:#FEFEFE;}
	.st84{fill:#80827D;}
	.st85{fill:#747671;}
</style>
<g>
	<path class="st0" d="M357.93,0c5.91,2.5,12.04,4.7,16.3,9.86c3.86,4.68,6.96,9.67,4.8,16.17c-2.79,0.12-3.15-3.59-6.01-3.66
		c-3.67-0.09-7.42-0.94-9.94,2.82c-1.84-5.21-4.84-9.41-10.15-11.59c-1.66-0.45-3.33-0.19-4.99-0.19
		c-72.89-0.04-145.77,0.08-218.63-0.04c-0.41,0.26-0.8,0.55-1.14,0.91c-1.19,0.92-2.6,1.22-4.03,1.49
		c-2.96,1.11-5.81,1.58-9.13,0.83c-5.6-1.27-8.16,0.52-10.05,5.75c-0.33,0.91-0.57,2-1.97,1.65c-1.63-9.1,4.17-14.03,10.56-18.49
		c3.41-2.37,7.38-3.62,11.43-4.53c1.91-0.91,3.94-0.44,5.9-0.44c71.39-0.03,142.78-0.02,214.17-0.05c1.96,0,3.99,0.51,5.88-0.49
		C353.27,0,355.6,0,357.93,0z"/>
	<path class="st1" d="M350.93,0c-1.3,1.54-3.08,0.99-4.68,0.99C272.5,1,198.74,0.99,124.98,0.98c0.13-0.32,0.14-0.65,0.03-0.98
		C200.32,0,275.63,0,350.93,0z"/>
	<path class="st2" d="M481.76,597.56c-0.88,1.17-0.89,2.56-1.02,3.92c-0.41,3.39-1.76,6.42-3.61,9.26
		c-5.97,7.29-13.87,10.33-23.09,10.44c-2.97,0.03-5.94-0.1-8.91,0.07c-6.05,0.24-12.1-0.02-18.15-0.01
		c-4.01,0.08-8.03,0.21-12.04,0.01c-4.35-0.07-8.71,0.28-13.06,0c-5.04-0.03-10.08,0.28-15.12,0.05
		c-11.57-0.09-23.14,0.29-34.7,0.05c-7.69-0.4-15.38,0.23-23.07-0.02c-7.41-0.36-14.82,0.14-22.22-0.08
		c-44.2,0.11-88.4,0.02-132.59,0.06c-14.67,0.36-29.35-0.21-44.02,0c-11.61,0.28-23.22-0.07-34.82-0.03
		c-5.04,0.25-10.08-0.06-15.12-0.05c-4.04,0.27-8.07-0.05-12.11,0c-4.01,0.2-8.02,0.09-12.03,0c-6.36,0.04-12.72,0.22-19.07,0.02
		c-6.09-0.22-12.26,0.35-18.22-1.43c-8.18-2.45-14.55-6.89-16.75-15.73c-0.61-2.18-1.23-4.35-1.84-6.53
		c-0.06-4.16-0.18-8.32-0.18-12.48C0,413.34,0,241.58,0,69.83c0-3.66-0.07-7.31,0.83-10.93C3.89,46.53,13.35,38.92,26.05,38.9
		c26.65-0.05,53.31-0.04,79.96-0.05c1.26-0.7,2.13-0.11,2.88,0.88c1.31,3.38,4.22,6.45,2.05,10.52c-2.22,1.6-4.78,1.12-7.23,1.13
		c-25.53,0.03-51.06,0.04-76.59,0.01c-1.47,0-2.99-0.38-4.34,0.54c-0.41,0.45-0.83,0.87-1.26,1.29c-5.41,3.85-6.94,9.2-6.97,15.65
		c-0.16,48.41-0.07,96.82-0.08,145.23c0.03,20.91-0.13,41.83,0.1,62.74c0.28,16.31-0.43,32.62-0.01,48.93
		c0.39,9.71-0.42,19.43,0.02,29.14c0.36,14.31-0.27,28.63,0,42.94c0.29,15-0.09,30,0,45c0.17,18.66,0.1,37.32,0,55.97
		c0.14,22.96,0.17,45.91-0.02,68.87c0.23,7.32-0.02,14.65,0.11,21.97c0.18,10.59,4.08,14.55,14.42,14.55
		c141.21,0.01,282.41,0.01,423.62,0c10.46,0,14.34-3.86,14.55-14.42c0.14-6.99-0.11-13.99,0.09-20.98
		c-0.1-19.63-0.17-39.26-0.02-58.9c0.14-16.67-0.29-33.34,0.01-50.01c0.12-18.31-0.28-36.61-0.01-54.92c0.41-13-0.39-26,0.01-39
		c0.4-10.36-0.02-20.73,0.02-31.09c0.23-15.31,0.16-30.62-0.01-45.94c0.31-16.65,0.05-33.3,0.11-49.95
		c0.04-15.94,0.01-31.88,0-47.81c-0.03-41.23,0.14-82.47-0.1-123.71c-0.04-6.4-1.89-11.39-7.86-14.34
		c-2.21-1.05-4.58-0.72-6.89-0.72c-24.79-0.03-49.57-0.01-74.36-0.03c-2.32,0-4.66,0.18-6.95-0.32c-0.58-0.18-1.09-0.48-1.53-0.9
		c0.47-4.9,0.67-9.95,6.18-12.33c26.48,0.02,52.97,0.01,79.45,0.06c14.9,0.03,25.78,10.51,26.48,25.46c0.1,2.16,0.05,4.33,0.05,6.5
		c0,171.91,0,343.82-0.01,515.73C481.94,590.24,481.82,593.9,481.76,597.56z"/>
	<path class="st3" d="M108.07,39.91c-0.69-0.35-1.38-0.71-2.06-1.06c-0.12-5.13-3.42-9.61-3.02-14.85c0.29-0.39,0.77-0.74,0.85-1.16
		c1.22-6.67,2.75-8.13,9.51-7.76c3.58,0.19,7.12,1.38,10.63-0.3c0.03,1.08-0.56,1.88-1.21,2.63c-2.85,3.32-3.82,6.86-1.44,10.89
		c0.5,0.85,0.53,1.9,0.45,2.91c0,0.66-0.24,1.33-0.02,1.98c1.4,4.08-0.39,5.34-4.11,4.32C113.91,36.48,111.1,38.48,108.07,39.91z"/>
	<path class="st4" d="M375.97,38.84c-3.67,2.81-3.39,7.75-6.01,11.12c-3.84,1.06-7.7,0.48-11.53,0.05
		c-1.89-0.21-3.14-1.56-3.91-3.29c-0.84-4.55,2.2-8.03,3.39-12.02c0.7-2.34,2.03-4.45,2.87-6.76c0.52-1.18,1.02-2.38,2.36-2.9
		c2-0.71-0.81-4.61,2.61-4.18c4.82,0.6,10.94-1.88,13.28,5.17C379.24,30.59,375.06,34.11,375.97,38.84z"/>
	<path class="st5" d="M363.13,25.04c-0.46,0.97-0.92,1.94-1.37,2.91c-5.81,1.05-11.67,1.05-17.54,0.95
		c-14.63-0.68-29.27-0.19-43.9-0.29c-15.47-0.1-30.93,0.04-46.4-0.08c-36.64,0.17-73.27,0.06-109.91,0.06
		c-1.99,0-4.02,0.04-5.74-1.26c-0.83-1.32,0.22-1.8,1.09-2.19c1.88-0.83,3.91-0.72,5.9-0.73c8.99-0.03,17.98,0.01,26.97-0.02
		c13.93-0.04,27.67-0.97,41.58-3.09c24.59-3.75,49.34-7.29,74.41-6.86c20.23,0.35,40.47,0.07,61.44,0.07c-0.07,0-0.9-1.08-0.67-0.45
		c0.02,0.07-0.07,0.07-0.25,0.14c-1.6,0.59-3.25,0.26-4.87,0.26c-24.97,0.03-49.98-0.82-74.91,0.21
		c-44.43,1.83-88.85,0.27-133.27,0.88c-2.74,0.04-5.73,0.67-8.01-1.72c0.18-0.23,0.34-0.47,0.5-0.71c1.5-1.12,3.23-0.58,4.84-0.58
		c71.96-0.03,143.92-0.03,215.88,0c1.61,0,3.34-0.55,4.83,0.59C359.13,15.32,363.66,18.19,363.13,25.04z"/>
	<path class="st6" d="M127.69,13.83c4.32,0.06,8.65,0.16,12.97,0.16c68.57,0.02,137.13,0.02,205.7,0.03c1.8,0,3.59,0,6.12,0
		c-2.11,1.51-3.74,0.95-5.24,0.95c-20.14,0.05-40.29,0.46-60.41-0.12c-11.9-0.34-23.38,1.73-35,3.32
		c-8.01,1.09-16.05,2.54-24.09,2.63c-6.72,0.08-13.71,0.54-19.56,2.62c-12.54,4.44-25.07,1.74-37.54,2.48
		c-9.12,0.54-18.3,0.07-27.45,0.14c-1.75,0.01-3.7-0.66-5.19,0.96c1.1,3.18,3.54,6.03,2.37,9.76c-1.01,1.33-2.51,1.59-3.97,1.5
		c-3.87-0.25-7.37,1.24-11,2.12c-3.7-2.06-3.71-5.88-4.46-9.34c-3.31-9.92-3.09-11.13,3.03-16.25
		C125.22,14.46,126.45,14.14,127.69,13.83z"/>
	<path class="st7" d="M353.74,13.12c-71.52-0.02-143.05-0.05-214.57-0.07c-3.66,0-7.32,0.04-10.98,0.06
		c-0.42-0.26-1.68-0.53-0.83-0.96c1.07-0.54,2.6-0.16,3.93-0.16c72.94,0,145.89,0,218.83,0.02c1.57,0,3.14,0.25,4.71,0.39
		c-0.05,0.12-0.07,0.31-0.16,0.35C354.37,12.91,354.05,13,353.74,13.12z"/>
	<path class="st8" d="M468.75,568.76c0.04,7.83,0.22,15.66,0.09,23.48c-0.15,8.75-5.36,13.75-14,13.75c-142.58,0-285.17,0-427.75,0
		c-8.64,0-13.85-5-13.99-13.76c-0.13-8.16,0.05-16.32,0.09-24.48c0.98-2.94,2.4-5.46,5.69-6.35c1.77-0.48,2.71-1.81,3.24-3.48
		c1.15-3.63,2.42-7.22,2.42-11.13c-0.03-19.42,0.02-38.83-0.04-58.25c-0.05-12.52-0.03-25.04-0.02-37.56c0-1.97-0.09-3.96,0.58-5.87
		c2.51-2.9,4.66-1.29,6.8,0.55c1,2.57,0.69,5.26,0.7,7.91c0.02,34.47-0.05,68.95,0.04,103.42c0.04,16.82,9.79,30.06,25.41,35.04
		c3.06,0.98,6.17,1.28,9.36,1.28c98.26,0,196.51-0.02,294.77,0.06c4.69,0,8.27-1.4,11.47-4.81c19.61-20.86,39.8-41.16,59.24-62.18
		c3.96-4.28,8.03-8.47,12.35-12.37c3.91-3.53,5.29-7.58,5.27-12.81c-0.12-57.79-0.09-115.58-0.05-173.37c0-2.94-0.61-6.03,1.18-8.75
		c3.59-0.07,2.58,2.84,2.68,4.6c0.36,6.22-0.08,12.43-0.99,18.6c0.4-2.2,0.52-4.44,0.83-6.66c0.14-1.03,0.5-2.52,2.23-1.4
		c1.94,5,0.64,10.21,0.94,15.31c0.2,3.48,0.44,6.98,0.14,10.48c-0.46,24.26,0.41,48.51,0.04,72.77
		c-0.17,18.82,0.22,37.64,0.06,56.45c-0.02,2.33,0.12,4.66-0.13,6.98c0.06,16.43,0.03,32.86,0.02,49.29c0,3.34,0.39,6.57,1.17,9.84
		c0.89,3.74,1.91,6.91,6.29,7.95C467.4,563.92,467.79,566.69,468.75,568.76z"/>
	<path class="st9" d="M13.12,213.92c-0.09-24.94-0.2-49.88-0.25-74.82c-0.05-24.11-0.04-48.22-0.07-72.34
		c-0.01-6.88,2.27-12.34,9.22-14.92c0.31-0.05,0.62-0.09,0.93-0.14c28.69-0.32,57.38,0.02,86.06-0.18c0.58-0.04,1.17-0.07,1.75-0.1
		c2.98,0.76,3.45,3.44,4.4,5.76c-0.04,2.59,3.19,5.34-0.36,7.77c-2.1,0.75-4.28,0.5-6.43,0.5c-24.42-0.05-48.84,0.09-73.26,0.13
		c-2.46,0-5.01-0.42-7.25,1.05c-1.75,1.53-1.39,3.61-1.4,5.56c-0.02,7.94-0.02,15.87,0.01,23.81c-0.45,5.83,0.91,11.76-0.89,17.52
		c-3.14,1.07-2.56-1.65-2.79-3.04c-0.51-3.11-0.04-6.31-0.44-9.45c-0.17-1.32-0.44-2.62-0.68-3.93c-0.43-2.28-1.82-3.73-4.06-3.63
		c-2.83,0.12-2.01,2.62-2.03,4.23c-0.09,10.31-0.04,20.62-0.05,30.92c-0.01,4.99,0.05,9.97-0.01,14.97
		c0.22,17.64,0.26,35.27-0.01,52.89c-0.18,5.63,0.89,11.32-0.8,16.88C14.33,214.02,13.8,214.2,13.12,213.92z"/>
	<path class="st10" d="M459.77,51.68c7.16,2.66,9.44,8.27,9.43,15.38c-0.06,33.64-0.07,67.28-0.13,100.91
		c-0.01,7.66-0.14,15.31-0.21,22.97c-0.7,0.28-1.23,0.09-1.6-0.56c-1.35-2.82-0.9-5.84-0.91-8.79c-0.02-9.09-0.12-18.19,0.08-27.27
		c-0.11-23.4,0.02-46.81-0.07-70.87c-2.73,2.2-5.04,3.26-6.94,0c0.01,19.85,0.09,39.59-0.1,59.32c-0.02,1.87,0.84,4.85-2.81,4.91
		c-1.41-2.1-0.98-4.49-0.99-6.78c-0.04-21.07-0.01-42.14-0.03-63.21c0-2.31,0.25-4.65-0.46-6.92c-0.42-1.13-0.36-2.41-1.07-3.44
		c-2.03-2.52-4.9-1.74-7.45-1.74c-24.14-0.05-48.28-0.31-72.43-0.21c-2.33,0.01-4.66,0.13-6.98-0.21c-1.35-0.36-2.74-1.01-2.36-2.6
		c0.98-4.03,1.21-8.49,5.3-11.04c0.61,0.05,1.2,0.16,1.79,0.33c28.71,0.29,57.42,0.09,86.12,0.1
		C458.55,51.93,459.16,51.84,459.77,51.68z"/>
	<path class="st11" d="M26.03,488.84c0,19.9-0.02,39.81,0.04,59.71c0.01,4.6-2.64,8.47-3.24,12.89c-0.06,0.47-0.94,1.26-1.31,1.19
		c-4.34-0.76-5.91,2.85-8.32,5.12c0-22.99,0-45.99,0-68.98c0.21-0.63,0.03,0.2,0.22-0.44C16.03,489.65,16.15,489.56,26.03,488.84z"
		/>
	<path class="st12" d="M468.75,568.76c-2.41-2.28-3.98-5.86-8.34-5.11c-1.08,0.19-1.93-1.05-1.96-1.94
		c-0.15-4.33-2.62-8.12-2.59-12.53c0.11-17.45,0.06-34.9,0.06-52.35c8.39-2.1,11.37,0.03,11.95,8.58c0.1,1.5,0.3,2.97,0.87,4.37
		C468.75,529.44,468.75,549.1,468.75,568.76z"/>
	<path class="st13" d="M26.03,488.84c-0.55,0.37-1.11,1.09-1.64,1.06c-6.34-0.29-8.68,4.39-11.19,8.88
		c0-18.66-0.01-37.31-0.01-55.97c1.3-2.12,0.69-4.5,0.94-6.76c0.35-3.2,1.53-5.98,5.11-6.32c3.76-0.36,4.38-2.53,4.52-5.7
		c0.15-3.45,0.36-3.44,2.98-3.52c1.08,7.84,2.14,15.68-0.64,23.41C26.07,458.9,26.05,473.87,26.03,488.84z"/>
	<path class="st14" d="M455.94,432.87c0-24.32,0-48.65,0.01-72.97c1.85,0.05,2.13,1.56,2.16,2.79c0.26,10.85,0.9,21.71-0.66,32.54
		c0.13-1.1,0.29-2.24,0.59-3.33c0.63-2.31,2.17-3.76,4.6-3.87c2.74-0.12,4.21,1.58,5.01,4c1.38,4.18,0.13,8.59,1.14,12.8
		c-0.01,18.32-0.02,36.65-0.03,54.97c-3.97-1-3.17-4.65-3.74-7.29c-0.72-3.33-1.26-6.17-5.65-6.03c-2.26,0.07-2.9-1.67-3-3.77
		C456.24,439.43,456.98,436.11,455.94,432.87z"/>
	<path class="st15" d="M468.83,288.89c0,15.33-0.01,30.65-0.01,45.98c-3.19-0.94-2.29-3.71-2.33-5.78
		c-0.18-8.96-0.07-17.93-0.08-26.89c0-1.49,0.03-2.99-0.11-4.48c-0.2-2.27-1.11-3.81-3.7-3.68c-2.37,0.12-3.03,1.68-3.12,3.7
		c-0.21,4.81,0.15,9.64-0.21,14.43c-0.13,1.76,0.85,4.66-2.73,4.52c-2.1-5.17-0.56-10.58-1.06-15.85
		c0.19-10.84-0.33-21.69,0.27-32.53c1.43-5.05,0.61-10.22,0.72-15.33c0.14-6.46-0.02-12.93,0.05-19.39c0.08-6.51,1.1-7.17,6.88-4.62
		c1.65,0.73,3.48,1.18,4.62,2.77c0.72,2.47,0.18,5,0.35,7.5c0,14.92-0.01,29.84,0.02,44.77
		C468.4,285.63,468.01,287.32,468.83,288.89z"/>
	<path class="st16" d="M455.94,432.87c1.94,2.71,0.66,5.77,0.92,8.66c0.23,2.55,0.19,4.62,3.97,3.6c3.25-0.88,4.62,1.25,5.13,4.41
		c0.57,3.49,0.18,7.32,2.81,10.27c0,16.66-0.01,33.32-0.01,49.98c-1.27-1.2-1.68-2.72-1.88-4.42c-0.81-7.05-0.85-7.03-8.11-7.72
		c-0.96-0.09-1.89-0.53-2.84-0.81C455.93,475.51,455.94,454.19,455.94,432.87z"/>
	<path class="st17" d="M25.99,419.83c-0.84,0.72-0.98,1.7-0.93,2.72c0.24,4.73,0.98,9.33-6.62,8.67c-2.99-0.26-2.97,3.83-3.34,6.36
		c-0.28,1.92,0.41,4.1-1.92,5.24c0-15-0.01-29.99-0.01-44.99c0.74-3.91,0.26-7.93,1.07-11.83c0.37-1.78,0.56-3.61,1.3-5.31
		c0.91-2.12,2.19-3.82,4.77-3.64c2.81,0.2,3.7,2.28,4.07,4.76c0.34,0.51,1-0.62,0.47-0.21c-0.25,0.19-0.42,0.15-0.47-0.15
		c-1.32-6.58-0.85-13.21-0.47-19.82c0.08-1.29,0.17-3.71,2.82-2.11c1.1,2.18,0.92,4.54,0.93,6.85c0.03,15.29,0.04,30.59-0.02,45.88
		C27.62,414.87,28.12,417.66,25.99,419.83z"/>
	<path class="st18" d="M13.15,325.87c0-16.33-0.01-32.66-0.01-48.99c0.95-8.77,0.19-17.57,0.43-26.35c0.05-1.83-0.13-3.66,0.14-5.48
		c2.28-3.21,5.49-4,8.71-2.21c3.42,1.91,1.69,5.34,2.12,7.58c0.29-0.82,0.24-2.58-0.05-4.13c-1.98-10.57-0.63-21.23-0.87-31.84
		c-0.04-2-0.84-4.92,2.6-5.53c2.5,4.52,1.03,9.4,1.33,14.13c-0.17,11.94,0.27,23.88,0.08,35.82c-0.03,1.82-0.04,3.65-0.38,5.45
		c-1.74,9.41-0.38,18.91-0.83,28.36c-0.12,2.43,0.53,5.05-1.53,7.04c-0.38-0.03-0.77-0.01-0.99-0.22c-1.58-1.47-2.25-4.57-5.37-3.27
		c-2.79,1.16-2.9,3.83-2.95,6.36c-0.11,5.99,0.09,11.98-0.11,17.97C15.41,322.53,16.06,325.04,13.15,325.87z"/>
	<path class="st19" d="M456.88,300.92c0.01,5.32,0.01,10.65,0.02,15.97c1.5,1.41,1.46,3.3,1.46,5.11
		c-0.02,9.14,0.65,18.31-1.14,27.4c0.15-2.18-0.05-4.47,1.16-6.36c1.62-2.54,4.22-3.26,6.99-2.63c2.52,0.58,2.98,2.72,3.04,5.08
		c0.18,6.79-0.54,13.59,0.41,20.36c0,12.99-0.01,25.99-0.01,38.98c-2.11-3.14,0.04-6.88-1.47-10.13c-1.07-2.28-0.89-5.71-4.51-5.71
		c-3.51,0-3.75,3.22-4.69,5.61c-0.28,0.71-0.35,1.5-1.24,2.13c0-10.55,0.03-21.1-0.03-31.65c-0.01-1.75,0.64-3.69-0.91-5.21
		c-0.04-8.65-0.08-17.29-0.13-25.94c-0.49-0.46-0.99-1-1.01-1.64c-0.31-10.29-1.44-20.59,0.44-30.85
		C455.64,300.8,456.18,300.63,456.88,300.92z"/>
	<path class="st20" d="M468.81,365.86c-1.97-5.46-0.37-11.12-0.94-16.66c-0.31-2.99,1.55-7.34-3.53-7.84
		c-4.51-0.44-6.12,1.89-6.45,7.96c-0.03,0.46-0.17,0.91-0.98,1.37c0-5.62,0-11.24,0-16.86c0-5.64,0-11.29,0.01-16.93
		c2.16-6.78,0.44-13.75,0.99-20.61c0.17-2.14-0.22-4.04,3.42-3.89c6.54,0.26,6.56-0.14,6.57,6.38c0.01,10.3-0.02,20.59,0.04,30.89
		c0.01,1.75-0.64,3.69,0.89,5.21C468.81,345.2,468.81,355.53,468.81,365.86z"/>
	<path class="st21" d="M13.15,325.87c1.96-5.29,0.48-10.77,0.87-16.15c0.21-2.97,0.13-5.97,0.02-8.95
		c-0.13-3.67,1.39-6.05,5.03-6.81c3.92-0.82,5.25,1.53,5.98,4.88c0-9.58-0.03-19.16,0.03-28.74c0.01-1.76-0.6-3.68,0.89-5.21
		c1.41,1.21,1.59,2.91,1.59,4.57c-0.03,13.81,0.5,27.63-0.27,41.43c-1.8,8.22-0.46,16.55-0.89,24.82c-0.13,2.43,0.51,5.04-1.51,7.05
		c-0.39-0.01-0.74-0.04-1-0.2c-1.54-0.99-2.01-3.91-4.64-2.89c-2.16,0.84-2.31,3.08-2.76,5c-0.5,2.1-0.75,4.25-1.08,6.39
		c-0.23,1.5,0.12,3.52-2.26,3.82C13.15,345.19,13.15,335.53,13.15,325.87z"/>
	<path class="st22" d="M13.15,354.86c0.69-4.02,1.29-8.05,2.11-12.04c0.55-2.66,1.54-5.29,4.73-5.68c3.31-0.41,3.61,2.59,5.07,5.96
		c0-9.55-0.03-17.77,0.03-25.99c0.01-1.76-0.59-3.69,0.88-5.23c1.39,1.21,1.52,2.83,1.51,4.5c0.28,11.81,0.2,23.63,0.15,35.44
		c-0.01,2.44,0.4,5.06-1.63,7.07c-2.02,4.43-0.6,9.1-0.9,13.65c-0.25,3.75-0.05,7.53-0.05,11.44c-0.57-0.27-0.92-0.34-1.11-0.54
		c-1.51-1.67-0.08-5.67-3.89-5.4c-3.93,0.28-3.09,4.01-4.09,6.42c-1.79,4.3-1.26,9.05-2.79,13.39
		C13.16,383.5,13.16,369.18,13.15,354.86z"/>
	<path class="st23" d="M369.9,51.83c-1.35,4.14-4.23,7.77-4.07,12.4c0.52,0.92,0.28,1.86,0.1,2.81c-1.35,4.13-2.36,8.39-4.78,12.11
		c-0.44,0.28-0.92,0.4-1.44,0.38c-0.52-0.09-0.93-0.35-1.23-0.77c-0.88-5.54-1.06-5.7-6.31-5.38c-7.49,0.45-7.48,0.45-5.88-6.84
		c0.1-0.47-0.02-0.98-0.04-1.48c0.74-5.48,4.02-10.04,5.56-15.23c0.79-1.44,0.73-3.53,2.92-3.93c1.74,2.45,3.99,3.42,7.08,3.17
		c2.71-0.22,5.56-0.58,8.14,0.89c0.01,0.32,0.02,0.65,0.03,0.97c0.33,0.23,0.43,0.45,0.29,0.64
		C370.15,51.74,370.02,51.83,369.9,51.83z"/>
	<path class="st24" d="M113.96,57.02c-1.25-1.62-1.02-4.05-2.9-5.32c-0.27-0.35-0.3-0.72-0.1-1.11c0.29-0.54,0.56-1.09,0.05-1.66
		c-0.98-3-1.96-6.01-2.94-9.01c2.87-6.77,8.35-3.13,12.96-3.23c1.02-1.9-2.52-3.77-0.08-5.66c1.37,2.98,2.74,5.97,4.11,8.95
		c2.43,2.12,3.24,4.97,3.63,8.02c-0.32,2.11,0.83,3.83,1.5,5.68c1,2.76,0.16,4.14-2.94,3.89c-3.96-0.32-7.93-0.67-11.9-0.14
		C114.82,57.47,114.37,57.32,113.96,57.02z"/>
	<path class="st25" d="M11.89,64.33c0,90.41,0,180.83,0,271.24c-0.16,0-0.32,0-0.48,0c0-90.49,0-180.97,0-271.46
		C11.56,64.18,11.73,64.25,11.89,64.33z"/>
	<path class="st26" d="M111.01,48.92c0.94,0.72,1.23,1.44,0.01,2.16c-1.45,1.08-3.15,0.89-4.79,0.89c-26.37,0.02-52.73,0.02-79.1,0
		c-1.63,0-3.34,0.26-4.81-0.8c0.49-2.56,2.5-1.08,3.6-1.09c26.48-0.11,52.97-0.07,79.45-0.13
		C107.26,49.95,109.41,50.76,111.01,48.92z"/>
	<path class="st4" d="M369.9,51.83c0.01-0.3,0.04-0.6,0.08-0.91c28,0,56.01-0.01,84.01,0.04c1.93,0,3.99-0.61,5.78,0.72
		c0,0,0.06,0.46,0.06,0.46c-1.79,0.62-3.64,0.31-5.45,0.31c-25.99,0.02-51.98,0.02-77.97,0c-1.81,0-3.67,0.39-5.42-0.4
		C370.62,51.98,370.26,51.9,369.9,51.83z"/>
	<path class="st27" d="M22.32,51.16c29.57-0.03,59.13-0.06,88.7-0.08c0.04,0.2,0.05,0.41,0.05,0.61c0,0.17-0.02,0.34-0.08,0.5
		c-6.98,0.62-13.97,0.27-20.95,0.25c-22.64-0.05-45.29,0.29-67.93-0.18c0,0-0.09-0.42-0.09-0.42C22.14,51.63,22.24,51.4,22.32,51.16
		z"/>
	<path class="st28" d="M14.07,244.93c-0.01,9.08,0,18.17-0.06,27.25c-0.01,1.59,0.53,3.34-0.87,4.69c0-20.98-0.01-41.97-0.01-62.95
		c0.3,0,0.61,0,0.91-0.01c0.22,0.24,0.61,0.47,0.65,0.73C15.94,224.77,16.93,234.89,14.07,244.93z"/>
	<path class="st29" d="M468.83,288.89c-1.44-1.34-0.9-3.11-0.9-4.7c-0.04-15.09-0.03-30.18-0.03-45.26c0.32-0.45,0.63-0.45,0.94,0
		C468.84,255.58,468.83,272.24,468.83,288.89z"/>
	<path class="st30" d="M468.84,238.93c-0.31,0-0.63,0-0.94,0c-0.01-2.33-0.01-4.66-0.02-6.98c-1.42-1.62-1.56-3.61-1.58-5.61
		c-0.06-9.95-0.07-19.89,0.01-29.84c0.02-1.97-0.03-4.02,1.6-5.56c0.31,0.01,0.62,0.01,0.94,0.02
		C468.85,206.94,468.85,222.93,468.84,238.93z"/>
	<path class="st31" d="M354.74,45.89c-0.67,1.36-1.34,2.73-2.01,4.09c-0.27,0.62-0.66,1.44-1.29,1.39
		c-5.09-0.43-10.16,1.6-15.26,0.15c-1.82-1.71-0.93-3.59-0.27-5.39c1.17-3.2,2.46-6.36,3.77-9.5c2.18-2.62,1.25-7.16,5.28-8.64
		c5.6-0.51,11.19-1.85,16.79-0.03C359.42,33.93,357.08,39.91,354.74,45.89z"/>
	<path class="st32" d="M344.97,27.98c-1.36,3.01-2.72,6.03-4.08,9.04c-3.33,3.44-7.71,4.33-12.16,5.18
		c-53.64,10.25-107.18,21-160.79,31.38c-2.35,0.46-5.01,0.28-7.14,2.5c1.53,1.88,3.65,1.29,5.46,1.59c2.13,0.36,5.39,0.48,5.43,2.58
		c0.05,2.8-3.4,2.69-5.54,2.86c-4.15,0.32-8.26,1.15-12.41,1.19c-3.23,0.04-6.27,0.54-9.16,1.97c-2.65-0.58-3.12-2.81-3.72-4.93
		c0.28-3.13-2.72-6.34-0.81-9.13c1.81-2.65,5.59-1.4,8.44-2.11c2.86-0.72,3.46-2.1,2.45-4.68c-1.03-2.64-2.08-5.26-3.15-7.89
		c-0.69-1.97-2.18-3.82-0.91-6.07c1.44-1.72,3.54-1.6,5.48-1.97c32.67-6.33,65.33-12.69,97.95-19.29c1.75-0.35,4.26-0.05,3.67-3.19
		c28.62-0.02,57.25-0.05,85.87-0.03C341.57,26.96,343.54,26.24,344.97,27.98z"/>
	<path class="st33" d="M253.97,26.99c0.72,0.87,1.43,1.73,2.34,2.84c-7.35,2.79-15.03,3.64-22.55,5.13
		c-26.34,5.22-52.69,10.38-79.01,15.67c-2.57,0.52-5.38-0.3-7.74,1.36c-4.59-4.35-5.73-10.2-7-16c-0.05-3.14-3.26-5.58-2.01-9.01
		C176.66,26.99,215.31,26.99,253.97,26.99z"/>
	<path class="st34" d="M140.01,35.99c2.33,5.33,4.67,10.67,7,16c0.66,1.66,1.32,3.32,1.98,4.98c-1.24,1.83-3.17,2.33-5.15,2.22
		c-3.59-0.19-6.67,0.95-9.47,3.06c-0.85-0.13-1.7-0.56-1.94-1.29c-1.46-4.33-4.03-8.28-4.55-12.94c-0.95-2.69-1.89-5.38-2.84-8.06
		c2.94-2.23,6.24-3.16,9.94-3.03C136.68,37,138.59,37.6,140.01,35.99z"/>
	<path class="st35" d="M360.88,78.87c1.37-4.24,2.74-8.49,4.11-12.73c1.19-1.16,2.72-1.16,4.22-1.14
		c16.31,0.25,32.64-0.53,48.95,0.48c16.79,1.04,32.6,16.31,34.21,33.16c2.06,21.62,0.56,43.28,0.96,64.93
		c-0.19,48.75,0.39,97.5,0.17,146.24c-0.01,3.08,0.74,6.39-1.72,9.04c-0.02,61.64-0.07,123.29,0.04,184.93
		c0.01,3.98-1.16,6.77-3.93,9.63c-25.14,25.96-50.15,52.05-75.11,78.19c-2.37,2.49-4.79,3.51-8.25,3.51
		c-98.13-0.09-196.26-0.26-294.39,0.1c-18.39,0.07-35.41-12.14-38.58-31.37c-0.43-2.61-0.51-5.29-0.51-7.94
		c-0.08-36.99-0.11-73.97-0.16-110.96c-1.39-1.46-1.43-3.34-1.43-5.16c0-39.26-0.23-78.52,0.1-117.78
		c-0.26-28.66-0.17-57.33-0.07-85.99c-0.06-29.79-0.13-59.58-0.04-89.37c0.33-13.81-0.02-27.63,0.08-41.45
		c0.13-17.69,8.37-30.03,24.42-37.26c3.07-1.38,6.28-2.32,9.65-2.34c16.48-0.13,32.97-0.08,49.46-0.03c1.17,0,2.33,0.15,3.43,0.56
		c4.11,3.53,6.15,7.77,4.48,13.27c-2.11,1.34-4.49,1.05-6.79,1.05c-14.31,0.03-28.62,0.13-42.93-0.02
		c-10.19-0.11-18.01,3.89-23.48,12.48c-1.71,2.38-1.95,5.38-3.25,7.95c-0.35,0.42-0.69,0.83-0.99,1.28
		c-0.35,2.68-0.05,5.35-0.05,8.01C43.45,258.06,43.46,406,43.46,553.95c0,1.82-0.21,3.67,0.33,5.46c0.34,0.51,0.65,1.04,0.95,1.57
		c0.46,0.81,0.72,1.71,1.09,2.56c4.6,12.42,12.38,17.69,26.44,17.69c86.75,0.02,173.5,0.02,260.25-0.01c4.66,0,9.32,0.36,13.98,0.12
		c3.04,0.01,4.3-1.21,4.16-4.54c-0.54-12.58-0.18-25.17-0.23-37.76c-0.35-3.95,0.99-8.06-1.18-11.83c-2.26-1.64-4.85-0.93-7.28-0.93
		c-81.43-0.04-162.85-0.03-244.28-0.06c-2.94,0-6.02,0.65-8.79-1.06c-0.27-0.61-0.17,0.25-0.28-0.4
		c-1.9-11.38-2.16-22.75,0.12-34.12c2.03-1.58,4.44-1.2,6.74-1.2c98.25,0.05,196.51-0.17,294.76,0.1c0.83,0,1.66-0.04,2.49-0.15
		c14.66,1.52,29.33,1.34,43.99,0.22c1.18-1.46,0.65-3.2,0.77-4.83c-0.3-13.04-0.23-26.07-0.11-39.1
		c0.3-48.83-0.35-97.66-0.12-146.48c0.01-1.66-0.07-3.32,0.03-4.98c0.31-2.32,0.18-4.66,0.19-6.99
		c0.12-59.8-0.17-119.61-0.18-179.41c0-18.24-9.08-27.25-27.4-27.28c-13.99-0.02-27.99,0.03-41.98-0.03
		C365.5,80.51,362.87,80.96,360.88,78.87z"/>
	<path class="st36" d="M451.78,318.84c0.01-51.98,0.02-103.96,0.02-155.94c1.97-0.02,2.02,1.51,2.02,2.79
		c-0.04,21.32,0.4,42.64-0.2,63.95c-0.01,0.37-0.58,0.73,0.26,1.36c0.02-21.86,0.39-43.49-0.09-65.09
		c-0.67-30.48-0.24-60.95-0.46-91.43c-0.02-2.57-1.04-5.78,2.36-7.41c0.09,0.97,0.18,1.93,0.27,2.9c0.73,1.59,0.38,3.27,0.39,4.91
		c0.03,16.59,0.29,33.19-0.07,49.78c-0.3,14.1,1.35,28.12,1.03,42.2c-0.08,25.66,0.18,51.32-0.43,76.97
		c0.22,18.04-0.89,36.07-0.52,54.11c0.02,0.98,0.13,2-0.39,2.92c-0.05,11.03-0.11,22.05-0.16,33.08c-0.79,3.26-1.57,6.51-2.36,9.76
		c-0.19,0-0.38,0-0.57,0c0-6.6,0.04-13.21-0.03-19.81C452.85,322.19,453.53,320.23,451.78,318.84z"/>
	<path class="st37" d="M30.91,321.92c-0.01,41-0.01,82.01-0.02,123.01c-2.01,1.63-3.29-0.23-4.8-1.01
		c-0.03-8.03-0.07-16.06-0.1-24.1c0-20.32,0-40.64,0-60.96c0.04-14.29,0.08-28.58,0.12-42.87
		C29.23,316.75,28.69,320.45,30.91,321.92z"/>
	<path class="st38" d="M116.86,66.84c-16.47-0.01-32.95-0.16-49.42,0c-20.22,0.2-36.29,16.46-36.4,36.61
		c-0.08,14.14-0.09,28.29-0.12,42.43c-2.84-0.39-2.87-2.75-3.25-4.77c-1.06-5.63-1.63-11.34-2.79-16.95
		c-0.07-9.43,1.2-18.82,0.68-28.26c0.25-10.3-0.51-20.61,0.42-30.9c1.66-1.69,3.78-0.91,5.68-0.92c28.09-0.08,56.18-0.1,84.26-0.13
		c0.99,0.21,1.44,0.88,1.57,1.83C117.45,66.23,117.24,66.59,116.86,66.84z"/>
	<path class="st28" d="M14.07,196.95c0.01-17.99,0.01-35.98,0.02-53.96c1.21-1.19,2.74-1.74,4.31-2.26c3.1-1.01,4.88,0.07,6,3.15
		c1.74,4.75,0.19,9.83,1.76,14.55c0.37,15.76,0.62,31.53-1.12,47.69C23.05,200.51,20.3,196.58,14.07,196.95z"/>
	<path class="st39" d="M14.07,196.95c1.12-0.31,2.21-0.72,3.35-0.9c4.92-0.81,6.39,0.37,6.62,5.3c0.05,1.13,0.01,2.26,1.01,3.37
		c0-15.59,0-31.17,0-46.76c-0.64-1.78-0.94-3.54,0.24-5.24c0.7-0.01,1.21,0.31,1.52,0.94c0.14,0.31,0.35,0.61,0.37,0.92
		c0.93,17.09,0.48,34.18,0.24,51.27c-0.02,1.17-0.47,2.28-1.45,3.06c-1.46,1.53-0.87,3.45-0.87,5.2
		c-0.05,12.54-0.03,25.09-0.03,38.86c-1.82-3.62,0.26-7.15-2.64-9.04c-2.98-1.94-5.6,0.34-8.35,1.01
		c-0.01-10.34-0.02-20.68-0.03-31.02C14.04,208.26,14.05,202.6,14.07,196.95z"/>
	<path class="st40" d="M25.05,152.96c0,1.66,0,3.33-0.01,4.99c-2.42-3.78-0.34-8.06-1.4-12.1c-1.01-3.86-2.02-5.82-6.15-3.27
		c-0.88,0.55-2.26,0.29-3.41,0.4c-0.01-16.1-0.02-32.21-0.02-48.31c0-2.6-1.11-4.53,3.93-3.21c7.43,1.96,4.82,7.33,5.95,11.37
		c0.99,3.57-1.03,7.56,1.09,11.12c0.9,11.77,1.74,23.55,1.35,35.38C26.34,150.69,25.99,151.93,25.05,152.96z"/>
	<path class="st41" d="M22.11,52.27c15.98-0.09,31.96-0.25,47.93-0.27c13.65-0.02,27.3,0.12,40.94,0.19
		c-1.09,1.07-2.48,0.78-3.78,0.78c-27.1,0.01-54.19,0.02-81.29,0.01C24.62,52.97,23.23,53.27,22.11,52.27z"/>
	<path class="st28" d="M25.05,152.96c0-13-0.01-26-0.01-39c0-5.99,0.01-11.99,0.01-17.98c0.28-0.45,0.58-0.46,0.9-0.03
		c0.05,9.7,0.11,19.4,0.16,29.1c0.7,7.26,1.53,14.51,1.49,21.82c-0.01,2.13,0.17,4.39-1.62,6.07
		C25.67,152.94,25.36,152.95,25.05,152.96z"/>
	<path class="st40" d="M25.95,95.94c-0.3,0.02-0.6,0.03-0.9,0.03c0-8.77-0.03-17.53,0.02-26.3c0.01-1.59-0.53-3.35,0.91-4.68
		C25.97,75.31,25.96,85.63,25.95,95.94z"/>
	<path class="st35" d="M117.1,65.91c-0.39-0.65-0.78-1.31-1.18-1.96c-0.66-2.31-1.31-4.62-1.97-6.93c0.35,0,0.69-0.01,1.04-0.01
		c2.05,1.33,2.79,3.52,3.47,5.66C118.88,63.93,119.41,65.62,117.1,65.91z"/>
	<path class="st42" d="M455.71,67.08c-1.45,1.76-0.77,3.84-0.77,5.77c-0.05,50.56-0.04,101.12-0.05,151.67c0,2.58,0.3,5.23-2,7.83
		c0-21.6,0.02-42.71-0.04-63.82c-0.01-1.89,0.78-4.04-1.05-5.63c-0.02-17.82,0-35.64-0.1-53.46c-0.03-4.97-0.21-10.01-1.54-14.82
		c-5.02-18.07-19.39-28.35-39.7-28.46c-15.15-0.09-30.31-0.02-45.47-0.02c0.28-0.63,0.55-1.27,0.83-1.9
		c28.45-0.03,56.89-0.09,85.34-0.04C453.01,64.2,456.44,62.64,455.71,67.08z"/>
	<path class="st29" d="M467.92,190.92c-0.01,13.67-0.02,27.34-0.03,41.02c-2.15-0.77-4.7-0.52-6.49-2.11
		c-3.67-3.28-3.48-0.46-3.48,2.1c-0.02,10.27,0.02,20.54-0.05,30.81c-0.01,1.74,0.66,3.68-0.94,5.16c-1.13-7.96-0.2-15.95-0.5-23.93
		c0.01-11.74-0.01-23.48,0.01-35.22c1.01-6.29,0.38-12.62,0.45-18.94c0.12-10.82,0.06-21.65,0.02-32.47
		c-0.02-3.73,0.78-5.7,4.74-2.99c2.13,1.46,4.1-1.12,6.24-0.37C467.88,166.3,467.9,178.61,467.92,190.92z"/>
	<path class="st30" d="M467.86,153.98c-3.12,2-6.31,7.22-8.79-0.72c-1.82,1.65-1.12,3.23-1.13,4.57
		c-0.07,14.96-0.03,29.93-0.09,44.89c-0.01,1.75,0.66,3.7-0.94,5.19c-1.11-6.76-0.33-13.56-0.47-20.34
		c-0.15-6.82-0.03-13.64-0.03-20.45c0.3-6.4-0.64-12.83,0.52-19.2c1.59-1.5,0.92-3.45,0.92-5.2c0.05-19.97,0.05-39.93,0.05-59.9
		c0-1.64,0-3.28,0-5.04c2.61,0.46,1.72,2.33,2.04,3.61c0.32,1.29,0.55,2.83,1.95,3.24c2.09,0.61,2.19-1.52,2.98-2.64
		c0.65-0.92,1.04-2.1,2.98-2.18C467.86,104.58,467.86,129.28,467.86,153.98z"/>
	<path class="st29" d="M456.94,147.92c-0.03,6.35-0.05,12.71-0.08,19.06c-0.32,0.43-0.6,0.41-0.85-0.07
		c-0.01-32.31-0.02-64.63-0.03-96.94c1.56,1.71,0.85,3.81,0.86,5.72C456.91,99.77,456.91,123.85,456.94,147.92z"/>
	<path class="st43" d="M370.98,52.05c7.31-0.11,14.63-0.3,21.94-0.31c20.15-0.04,40.3-0.02,60.45,0.02c2.15,0,4.31,0.25,6.46,0.38
		c-1.39,1.37-3.15,0.8-4.75,0.81c-26.47,0.04-52.94,0.05-79.41,0.02C374.09,52.97,372.3,53.58,370.98,52.05z"/>
	<path class="st20" d="M456.88,243.94c0.01,7.99,0.02,15.98,0.03,23.96c-0.01,11.01-0.02,22.02-0.03,33.02
		c-0.3-0.01-0.6-0.02-0.9-0.05c0-18.99,0.01-37.98,0.01-56.97C456.31,243.47,456.6,243.48,456.88,243.94z"/>
	<path class="st44" d="M25.98,152.93c0.04-9.3,0.09-18.6,0.13-27.89c0.98,5.3,2.05,10.58,2.88,15.91c0.29,1.85,0.48,3.6,1.93,4.94
		c0,30,0,60,0,90c-3.13-0.06-3.57-2.4-3.78-4.7c-0.25-2.74-0.31-5.49-1.01-8.17c-0.05-4.71-0.11-9.41-0.17-14.12
		C25.96,190.24,25.97,171.59,25.98,152.93z"/>
	<path class="st45" d="M26.12,223.02c1.42,2.46,1.8,5.15,1.98,7.94c0.13,2.01,0.92,3.83,2.81,4.93c0,28.68-0.01,57.35-0.01,86.03
		c-3.71-0.26-3.37-3.8-4.79-5.91c-0.05-1.38-0.1-2.76-0.16-4.14c0-15.66,0.01-31.32,0.02-46.98
		C26.02,250.93,26.07,236.98,26.12,223.02z"/>
	<path class="st46" d="M360.88,78.87c17.15,0.05,34.29,0.08,51.44,0.14c16.13,0.05,26.56,10.44,26.56,26.53
		c0.01,61.27-0.01,122.53-0.02,183.8c0,1.5-0.09,2.99-0.14,4.49c-2.54-0.51-2.61-2.72-3.02-4.59c-0.5-2.28-0.32-4.63-0.32-6.96
		c-0.01-23.59,0.03-47.17-0.02-70.76c-0.02-8.63,0.27-17.25-0.79-25.87c-0.62-5.04-0.45-10.2,0.32-14.4
		c-1.19,4.26-2.45,9.36-3.14,14.6c-0.31,2.33-2.03,4.27-5.07,3.19c-1.73-2.35-1.3-5.09-1.3-7.71c-0.04-22.6-0.02-45.19-0.02-67.79
		c0-1.66,0.02-3.32-0.01-4.98c-0.2-11.82-4.24-16.03-15.97-16c-17.76,0.05-35.53-0.51-53.28,0.4c-1.92-5.55,1.48-9.56,4.04-13.82
		C360.4,79.12,360.65,79.02,360.88,78.87z"/>
	<path class="st47" d="M360.13,79.16c-1.4,4.27-2.8,8.54-4.19,12.81c-0.45,5.84-3.69,10.14-7.71,14.01
		c-5.01,4.79-11.52,5.85-17.92,7.23c-15.63,0.36-31.26,0.16-46.88,0.15c-43.88-0.04-87.76,0.21-131.63-0.12
		c-3.51-0.86-7.08-1.42-10.5-2.76c-8.56-3.34-13.32-9.92-16.07-18.31c-1.05-4.44-4.49-8.27-3.44-13.26
		c0.67-0.54,1.42-0.62,2.23-0.38c2.45,1.55,2.78,4.34,3.83,6.68c1.41,3.14,2.58,6.39,4.94,9.01c6.11,6.86,14.07,9.19,22.89,9.19
		c57.07,0.04,114.14,0,171.2,0.04c8.8,0.01,16.3-2.77,22.26-9.35c3.3-2.63,4-6.71,5.7-10.23c0.95-1.97,1.12-4.63,4.04-5.05
		C359.3,78.94,359.71,79.05,360.13,79.16z"/>
	<path class="st48" d="M358.89,78.82c-3.74,4.53-3.67,11.01-7.82,15.33c-2.88-0.61-5.77-0.89-8.72-0.95
		c-6.44-0.12-7.2-1.26-5.2-7.13c0.32-1.66,1.07-3.17,1.58-4.77c1.24-3.33,2.71-6.56,4.2-9.78c1.41-2.16,1.22-5.36,4.18-6.51
		c1.79,1.89-0.09,3.35-0.63,4.93c-0.75,2.21-0.31,3.21,2.23,2.66c1.44-0.31,2.91-0.57,4.37-0.6
		C360.16,71.83,360.16,71.86,358.89,78.82z"/>
	<path class="st49" d="M347.1,65.01c-1.08,2.31-2.15,4.62-3.23,6.93c-3.81-1.74-7.76-0.73-11.68-0.72c-4.7,0.01-5.7-1.45-4.19-5.86
		c0.97-2.83,2.07-5.63,3.45-8.29c0.93-1.74,1.44-3.68,2.55-5.34c0.5-0.57,1.05-1.04,1.89-0.73c5.61-0.34,11.22-0.67,16.83-1.01
		C351.7,55.31,348.47,59.81,347.1,65.01z"/>
	<path class="st50" d="M123.99,79.02c-0.7,0.02-1.4,0.04-2.1,0.07c-0.37,0.23-0.64,0.12-0.81-0.26c-0.74-4.22-2.12-8.22-4.22-11.97
		c0.09-0.31,0.17-0.62,0.24-0.93c2.09-3.63-2.3-5.73-2.1-8.91c0.18-0.8,0.36-1.94,1.41-1.6c4.19,1.34,8.59-0.25,12.8,1.33
		c1.28-3.33-3.82-5.44-1.33-8.7c2.06,4.64,4.12,9.28,6.18,13.92c1.69,1.32,2.4,3.12,2.58,5.2c-0.2,2.24,0.74,4.21,1.46,6.24
		c1.07,3.01,0.18,4.3-3.19,4.18C131.24,77.44,127.28,75.92,123.99,79.02z"/>
	<path class="st51" d="M335.9,50.99c-0.33,0.33-0.67,0.66-1,0.99c-2.65,1.85-5.69,2.66-8.81,3.28
		c-35.68,7.13-71.43,13.95-107.27,21.09c6.37,0.46,12.53,1.38,18.77,1.36c0.83,0,1.68,0.16,2.43,0.5c1.14,0.53,2.87,0.7,2.74,2.39
		c-0.11,1.35-1.62,1.44-2.69,1.78c-4.98,1.59-10.21,1.24-15.3,1.72c-17.66,1.66-35.3,3.53-53,4.82c7.58-0.68,15.18-0.34,22.78-0.36
		c5.99,0.03,11.98-0.26,17.95-0.02c2.57,0.1,5.92-0.44,6.44,3.63c-1.99,1.61-4.38,1.35-6.67,1.35c-17.9,0.04-35.81,0.01-53.71,0.03
		c-3.7,0-7.26-0.51-10.61-2.15c-1.97-1.32-4.32-2.4-3.76-5.46c1.38-2.43,3.47-3.04,6.22-3.04c6.93,0.01,13.81-0.78,20.94-2.17
		c-2.87-2.19-5.88-1.62-8.76-1.79c-2.01-0.12-4.25-0.31-4.41-2.98c-0.14-2.37,2.21-2.4,3.6-2.68c23.02-4.52,46.08-8.85,69.11-13.35
		c22.06-4.3,44.09-8.76,66.14-13.12c11.66-2.3,23.31-4.71,35.03-6.69c3.24-0.55,5.65-2.83,8.85-3.11
		C339.35,41.73,336.67,46.02,335.9,50.99z"/>
	<path class="st52" d="M144.17,85.95c0.97,1.16,1.93,2.31,2.9,3.47c0.18,0.47,0.51,0.8,0.85,1.16c1.16,1.29,4.38,0.9,3.86,3.05
		c-0.53,2.23-3.34,1.8-5.21,1.64c-5.2-0.44-10.6,1.55-15.61-1.22c-3.48-4.48-4.57-10.06-6.96-15.04c-0.19-1.58-0.84-3.29,2.01-3.08
		c3.71,0.27,7.47-0.32,11.48,0.76c0.32-3.55-3.63-6.17-1.78-9.68c4.39,3.69,4.14,9.43,6.25,14.12
		C142.02,83.05,143.1,84.5,144.17,85.95z"/>
	<path class="st53" d="M141.96,81.14c-2.08-4.71-4.17-9.41-6.25-14.12c-0.55-1.69-1.09-3.38-1.64-5.07c1.31-3.22,3.77-4.34,7.1-3.98
		c2.68,0.29,5.27-0.22,7.82-1c1.34,3.56,2.68,7.12,4.04,10.68c0.78,2.04,0.19,3.21-2.09,3.31c-0.17,0.01-0.33,0-0.5,0.02
		c-3.1,0.41-7.02-0.19-9.1,1.49C138.77,74.56,143.11,78.04,141.96,81.14z"/>
	<path class="st54" d="M347.99,104.99c3.77-3.65,5.71-8.43,7.95-13.02c1.93-0.75,3.9-1.05,6-1.04c16.3,0.07,32.6,0.02,48.91,0.04
		c11.07,0.02,16.05,5,16.06,16.11c0.02,27.28,0.01,54.56,0.02,81.85c2.21,2.76,1.54,6.04,1.54,9.14
		c0.04,58.91,0.02,117.82,0.05,176.74c0,2.95-0.46,5.98,0.67,8.42c0.52,0.7,0.79,0.7,1.15,0.5c1.63-0.88,2.47-3.7,4.89-2.49
		c2.26,1.13,2.04,3.59,2.16,5.75c0.86,14.96,0.42,29.93,0.51,44.9c0.03,4.65,0.44,9.27,0.83,13.89c0,13.34,0,26.68,0,40.02
		c-3.62-1.73-6.42-4.77-10.42-6.05c-2.06-0.66-2.42-3.39-2.69-5.59c-0.65-5.29-1.38-10.57-1.11-15.92
		c0.43-8.67-0.51-17.29-0.99-25.92c-0.19-3.35,0.51-6.63,0.73-9.95c0.27-3.93-0.69-4.47-4.1-2.65
		c-15.01,7.97-30.18,15.56-46.06,21.69c-6.57,2.53-8.96,1.21-9.46-5.75c-0.28-3.82-0.02-7.66-0.25-11.49
		c-0.08,8.04,0.11,16.08-0.18,24.12c-0.06,1.56,1,4.71-2.8,3.96c-1.51-3.17-0.7-6.54-0.85-9.82c-0.36-8.11,0.61-16.25-0.55-24.34
		c-0.34-0.5-0.75-0.92-1.26-1.26c-2.1-0.83-4.29-0.51-6.44-0.51c-84.88-0.02-169.76-0.02-254.64,0c-2.15,0-4.33-0.28-6.42,0.48
		c-0.48,0.33-0.91,0.73-1.24,1.22c-1.11,11.46-0.74,22.93-0.17,34.39c0.39,1.46,0.36,2.89-0.24,4.29
		c-2.11,5.52-5.69,7.39-11.66,5.71c-4.59-1.29-9.46-1.77-14.18-2.67c-3.14-0.6-4.1,0.59-4.31,3.58c-0.99,13.89-1.82,27.8-3.01,41.68
		c-0.17,2-0.42,3.96-1.14,5.84c-1.8,4.67-3.63,5.34-8.8,2.74c-0.03,5.98-0.01,11.7-0.02,17.42c-0.01,8.64,0.1,17.27-0.08,25.9
		c-0.04,2.07,0.94,4.82-2.18,5.87c-0.1-0.6-0.2-1.19-0.3-1.79c-0.91-1.31-0.87-2.81-0.86-4.3c0.05-16.21-0.14-32.42,0.09-48.62
		c0.63-2.62,0.48-5.29,0.48-7.95c0.01-23.46-0.01-46.93,0.03-70.39c0-2.46-0.43-5.01,0.85-7.34c2.4-1.43,2.32,0.84,2.69,1.97
		c0.58,1.73,0.28,3.65,0.74,5.43c0.34,1.29,0.75,2.85,2.37,2.79c1.67-0.06,2.01-1.7,2-2.99c-0.04-6.51,0.84-12.95,1.26-19.42
		c1.43-21.62,0.62-43.26,1.07-64.89c0.14-6.8,0.69-13.62,1.17-20.42c0.45-6.29,2.05-7.21,7.96-5.49
		c18.41,5.36,37.14,9.58,56.16,11.41c19.83,1.91,39.8,2.13,59.81,1.08c16.09-0.84,31.72-3.4,46.73-7.39
		c-15.61-0.12-31.76,0.74-47.83-0.32c-13.83-0.91-27.66-1.15-41.4-0.4c-13.66,0.74-27.28,0.41-40.92,0.69
		c-2.49,0.05-5.04,0.06-7.3-1.25c-3.05-1.76-2.94-3.39,0.34-5.51c2.81-0.57,5.65-0.35,8.47-0.35c72.95-0.01,145.9-0.01,218.85-0.01
		c2,0,4-0.06,5.99-0.04c3.48,0.04,4.61-1.83,4.64-5.03c0.03-3.38-2.1-3.7-4.64-3.68c-1.33,0.01-2.66,0-4,0
		c-73.45,0-146.9,0.01-220.35-0.02c-3.14,0-6.34,0.4-9.4-0.77c-2.09-1.11-2.24-3.11-2.27-5.11c-0.15-9.05-0.47-18.1-0.17-27.14
		c0.07-2.11-0.56-4.83,2.57-5.68c1.71,1.77,1.34,4.03,1.36,6.15c0.06,7.32,0,14.65,0.03,21.97c0.03,5.96,0.6,6.55,6.6,6.56
		c32.12,0.02,64.24,0.01,96.37,0.01c42.11,0,84.22,0,126.32,0c7.48,0,7.64-0.32,7.82-7.94c0.21-8.63-0.81-17.29,0.61-25.88
		c2.36-1.8,2.2,0.23,2.22,1.58c0.07,5.49,0.03,10.98,0.03,16.48c0,4.49,0,8.97,0.02,13.46c0.01-9.68-0.13-19.36,0.09-29.03
		c0.08-3.8-1.32-4.97-4.95-4.82c-4.48,0.19-8.99,0.19-13.47-0.05c-1.58-0.08-3.96,0.04-4.04-1.94c-0.08-2.21,2.27-2.58,4.11-2.73
		c3.98-0.33,7.99-0.04,11.98-0.18c5.26-0.19,10.77-4.62,12.12-9.57c0.88-3.25-1.51-3.32-3.43-3.33c-6.17-0.03-12.3-0.43-18.41-1.18
		c-1.99-0.25-4-0.4-5.65-1.69c-0.81-0.63-1.5-1.42-0.26-2.35c2.33-1.22,4.86-0.96,7.34-0.97c11.31-0.05,22.62,0.04,33.94-0.06
		c2.57-0.02,5.11-0.16,5.34-3.73c0.19-2.96-0.69-4.87-4.01-4.95c-2-0.05-3.99-0.06-5.99-0.06c-82.18,0-164.36,0.01-246.53-0.03
		c-3.11,0-6.35,0.57-9.27-1.18c-0.55-0.54-0.59-1.11-0.12-1.72c2.58-1.7,5.49-1.07,8.27-1.07c83.09-0.04,166.17-0.03,249.26-0.03
		c8.78,0,8.79-0.01,8.79-8.72c0-6.33-0.19-12.66,0.07-18.98c0.18-4.25-1.61-5.76-5.6-5.47c-1.66,0.12-3.33,0.02-4.99,0.02
		c-82.42,0-164.84,0.01-247.26-0.03c-2.79,0-5.68,0.56-8.33-0.91c-0.59-0.48-0.69-1.05-0.31-1.71c1.87-1.48,4.11-1.16,6.24-1.16
		c65.23-0.03,130.47-0.47,195.69,0.26c19.58,0.22,39.18,0.03,59.4,0.82c-1.89-0.3-3.14-0.2-4.38-0.2c-15.98,0-31.95-0.01-47.92,0
		c-0.95-0.09-1.72-0.49-0.98-1.49c0.86-1.16,2.31-1.27,3.63-1.31c15.47-0.48,30.85-2.16,46.29-3.07c5.71-0.34,5.41-0.19,5.58-6.05
		c0.3-10.28-3.35-19.55-6.35-29.07c-3.58-11.36-8.66-21.93-14.9-32.04c-2.67-4.32-6.27-6.18-11.19-6.06
		c-2.33,0.06-4.71-0.03-6.8-1.24c-0.87-0.5-2.39-0.99-1.1-2.55c6.61-0.32,13.24,0.21,19.84-0.27
		C338.02,111.17,343.94,110.1,347.99,104.99z"/>
	<path class="st55" d="M361.8,452.74c1.91-1.34,1.08-3.35,1.09-5.06c0.08-9.29,0.04-18.58,0.04-28.43c2.81,1.69,2.99,3.9,3,6.22
		c0.02,3.99-0.2,8,0.17,11.96c0.32,3.42,1.62,5.31,5.93,3.52c15.32-6.37,30.32-13.37,44.99-21.11c1.03-0.54,2.02-1.27,3.12-1.54
		c1.78-0.44,2.34-4.09,4.1-2.56c1.48,1.28,2.05,4.21,1.62,6.52c-2.65,14.4,1.39,28.75,0.16,43.15c-0.29,3.39,0.52,6.9,1.08,10.32
		c0.26,1.6,1.08,3.98,2.71,3.79c5.12-0.61,6.63,3.26,8.92,6.28c0,1.68,0,3.36,0,5.03c-0.44,0.18-0.94,0.66-1.35,0.22
		c-7.37-7.8-16.82-8.84-26.84-8.67c-15.96,0.28-31.94-0.4-47.88,1.06c-3.76,0.34-7.4,0.99-11.88,2.49
		c9.32,1.08,17.93-0.87,26.9,1.66c-2.87,3.09-5.52,2.22-7.89,2.22c-85.04,0.05-170.07,0.03-255.11,0.05
		c-7.99,0-15.97-0.18-23.96,0.12c-0.6,0.16-1.15,0.44-1.63,0.85c0,11.35,0,22.69,0.01,34.04c0.34,0.42,0.62,0.88,0.85,1.37
		c0.18,0.51,0.29,1.03,0.34,1.56c0.6,2.98-1.05,6.36,1.65,8.95c2.23,1.12,4.61,0.65,6.91,0.65c75.4,0.03,150.8,0.02,226.21,0.03
		c2.99,0,5.99-0.16,8.97,0.23c4.46,0.87,5.7,3.74,5.51,8.03c-0.35,7.99-0.13,15.99-0.11,23.98c0.01,4.63,0.23,9.17,6.04,10.58
		c0.97,0.23,1.55,1.22,1.36,2.38c-19.8,0.05-39.6,0.15-59.41,0.16c-72.39,0.02-144.78,0.02-217.17-0.01
		c-13.72-0.01-23.17-7.36-26.03-20.03c1.48-1.74,0.78-3.83,0.79-5.75c0.06-15.73,0.03-31.47,0.03-47.26
		c0.7,0.11,1.13,0.04,1.28,0.22c1.45,1.68,1.92,4.91,4.74,4.44c2.94-0.49,3-3.78,3.54-6.03c1.03-4.33,0.8-8.86,1.26-13.29
		c1.16-11.17,1.64-22.41,2.09-33.64c0.14-3.4,1.09-4.32,4.42-3.58c6.91,1.52,13.89,2.7,20.83,4.07c2.6,0.51,2.81-1.72,3.63-3.12
		c0.55-0.94-0.21-3.04,2.14-1.93c2.09,1.74,0.78,4.82,2.65,6.64c1.77,1.4,3.84,0.92,5.8,0.93c10.32,0.05,20.64,0.03,30.96,0.02
		c3.05,0,6,0.15,8.39,2.41c1.15,1.09,2.63,1.32,4.16,1.42c26.21,1.68,52.43,3.17,78.7,1.19c6.78-0.51,13.6,0.24,20.4-0.89
		c3.42-0.57,6.8-0.4,9.74-2.92c2.09-1.79,5.1-1.19,7.74-1.19c31.46-0.02,62.91-0.01,94.37-0.02c2.16,0,4.33,0.13,6.46-0.18
		c0.45-0.24,0.91-0.49,1.31-0.79c2.17-3.13,0.01-6.96,1.64-10.17C361.46,453.12,361.63,452.93,361.8,452.74z"/>
	<path class="st56" d="M121.08,78.82c0.26,0.12,0.53,0.2,0.81,0.26c1.41,4.25,2.83,8.5,4.24,12.74c0.08,1.68-1.16,1.25-2.04,1.2
		c-17.45-1.09-34.91-0.35-52.37-0.41c-10.12-0.04-14.11,4.23-14.11,14.38c-0.03,49.73-0.02,99.47-0.01,149.2
		c0,8.34-1.14,16.58-2.17,24.82c-0.29,2.28-0.64,5.11-3.63,5.16c-2.93,0.05-4.41-2.51-4.72-5.01c-0.55-4.31-1.46-8.47-3.13-12.47
		c-0.5-2.8-0.32-5.64-0.32-8.46c-0.01-45.54-0.02-91.09,0-136.63c0-10.26-0.82-20.6,2.62-30.56c4.56-9.52,12.47-13.84,22.68-13.98
		C86.31,78.82,103.7,78.88,121.08,78.82z"/>
	<path class="st57" d="M438.73,445.77c-1.16-4.29-1.71-8.7-1.78-13.12c-0.14-9.48,0.08-18.97-0.09-28.45
		c-0.12-6.62-0.62-13.23-0.96-19.84c-0.06-1.14,0.05-2.56-1.45-2.75c-1.2-0.15-1.39,1.21-1.9,2.02c-1.03,1.6-2.06,3.2-3.48,5.4
		c-1.61-3.9-2.17-7.05-2.17-10.39c0.03-63.24,0.02-126.47,0.02-189.71c2.79-0.39,4.05-2.11,3.97-4.82
		c-0.12-4.01-0.16-7.9,2.52-11.37c1.84-2.39-1.23-5.86,1.22-8.38c1.9,0.84,1.21,2.37,1.25,3.56c1.46,39.1,0.98,78.22,1.01,117.33
		c0,3.01,0.02,5.98,1.83,8.58c0.05,20.49,0.15,40.98,0.15,61.47C438.86,385.46,438.78,415.62,438.73,445.77z"/>
	<path class="st58" d="M432.84,502.93c1.46,0,2.92,0,5.27,0c-24.42,25.59-48.35,50.67-72.35,75.81c-1.51-1.45-0.78-2.76-0.77-3.97
		c1.01-9.75,0.32-19.53,0.38-29.29c0.02-3.34,0.41-5.72,4.24-6.58c2.99-0.67,4.62-3.07,5.41-5.98c0.57-2.09,1.06-4.2,1.29-6.34
		c0.74-6.72,4.76-10.61,11.01-11.85c6.29-1.24,11.96-2.79,14.44-9.63c0.78-2.14,2.95-1.7,4.77-1.75
		C415.3,503.13,424.08,503.88,432.84,502.93z"/>
	<path class="st59" d="M89.03,489.86c1.81-1.83,4.11-0.97,6.17-0.97c91.77-0.05,183.54-0.04,275.32-0.08c1.78,0,3.64,0.45,6.54-0.96
		c-10.89,0-20.63,0-30.36,0c-0.1-0.45-0.2-0.89-0.3-1.34c4.35-2.98,9.44-4.19,14.69-4.62c19.75-1.63,39.55-0.93,59.33-1.04
		c5.61-0.03,9.73,4.47,15.23,5.06c2.4,0.26-0.05,4.53,3.08,4.91c-1.03,1.66-2.68,0.91-4.04,0.92c-12.2,0.05-24.4-0.01-36.6,0.03
		c-2.03,0.01-3.92,0-5.15-1.95c-1.55,0.94-3.26,0.48-4.88,0.48c-98.04,0.02-196.08,0.02-294.12,0
		C92.29,490.32,90.59,490.73,89.03,489.86z"/>
	<path class="st60" d="M432.84,502.93c-2.05,1.69-4.47,0.78-6.71,0.85c-5.14,0.16-10.31,0.31-15.44,0.01
		c-4.67-0.27-8.09,0.29-9.76,5.66c-1.65,5.3-7.07,5.38-11.54,6.29c-8.09,1.64-10.06,3.72-11.62,11.7
		c-1.18,6.07-1.52,12.92-10.23,13.6c-2.33,0.18-1.54,2.62-1.55,4.12c-0.09,8.3-0.04,16.6-0.11,24.91c-0.01,1.59,0.55,3.36-0.89,4.71
		c-0.09-19.79-0.26-39.58-0.22-59.36c0.02-8.29,4.41-12.65,12.7-12.67C395.93,502.69,414.38,502.86,432.84,502.93z"/>
	<path class="st61" d="M346.82,582.63c-0.47-0.95-1.24-1.79-2.28-1.7c-6.04,0.52-6.33-4.14-6.48-7.89c-0.36-9.48-0.45-19,0.1-28.46
		c0.19-3.25-1.05-4.42-3.2-5.72c1.02-1.21,2.44-1.27,3.86-1.36c3.24-0.13,6.5,0.26,9.72-0.38c1.54-0.23,2.66,0.37,3.39,1.72
		c0.62,13.71-0.5,27.44,0.63,41.15C352.96,584.81,348.94,582.13,346.82,582.63z"/>
	<path class="st62" d="M43.11,560.74c-0.55,0.36-0.99,0.13-1.02-0.42c-0.08-1.33-0.04-2.66-0.04-3.99
		c0-150.3-0.01-300.61-0.01-450.91c0-1.66,0.01-3.33,0.03-4.99c0-0.12,0.17-0.23,0.25-0.34c0.25,0.31,0.5,0.62,0.74,0.92
		c1.17,1.42,0.94,3.14,0.96,4.79c0.04,3,0.02,5.99,0.01,8.99c-0.31,94.91,0.78,189.82,0.35,284.73
		c-0.15,34.46,0.03,68.93-0.49,103.39c-0.28,18.14-0.12,36.28-0.38,54.41C43.5,558.47,43.72,559.65,43.11,560.74z"/>
	<path class="st63" d="M43.11,560.74c-0.01-153.24-0.03-306.49-0.04-459.73c0.26-0.07,0.51-0.12,0.77-0.16
		c1.32,1.62,0.65,3.53,0.65,5.29c0.04,51.97-0.76,103.97,0.26,155.92c0.98,49.96,0.96,99.92,0.42,149.85
		c-0.34,31.11-0.24,62.23-0.65,93.34c-0.01,0.83,0.01,1.67-0.36,2.44c-0.08,17.76-0.16,35.51-0.25,53.27
		C43.65,560.86,43.39,560.79,43.11,560.74z"/>
	<path class="st64" d="M44.16,507.69c-0.05-133.79-0.09-267.58-0.15-401.36c0-1.83-0.11-3.66-0.17-5.48
		c0.28-2.76,0.73-5.47,2.41-7.8c1.39,3.86-1.37,7.14-1.36,10.98c0.22,54.97,0.15,109.95,0.16,164.93c1.82,5.46,1.6,11.13,1.6,16.75
		c0.04,42.54,0.04,85.08-0.01,127.62c0,2.91,0.68,6.04-1.59,8.57c-0.02,26.86-0.02,53.73-0.08,80.59
		C44.97,504.22,45.65,506.15,44.16,507.69z"/>
	<path class="st65" d="M351.94,538.84c-1-0.33-2-0.66-2.99-0.99c-2.8,0.74-5.6,0.81-8.4-0.06c-1.77-1.55-2.15-3.7-2.4-5.86
		c-0.33-2.9-0.04-5.4,3.09-4.66c-4.86,1.57-10.74,1.16-16.58,1.16c-75.5,0.01-151,0.01-226.5-0.02c-3.1,0-6.38,0.66-9.12-1.57
		c0-0.36,0.01-0.72,0.01-1.08c1.76-0.79,3.61-0.4,5.42-0.4c84.03-0.02,168.06-0.02,252.09,0.01c1.79,0,3.66-0.5,5.38,0.5
		C352.37,530.2,352.34,534.52,351.94,538.84z"/>
	<path class="st66" d="M89.03,489.86c36.76-0.03,73.52-0.06,110.28-0.08c62.21-0.04,124.43-0.07,186.64-0.1
		c2.33,0,4.65,0.1,6.98,0.15c-0.14,0.9-0.43,1.31-1.58,1.31c-100.75-0.14-201.5-0.22-302.25-0.31
		C88.99,490.51,88.97,490.19,89.03,489.86z"/>
	<path class="st67" d="M351.93,525.88c-75.14-0.02-150.27-0.04-225.41-0.07c-12.49,0-24.99-0.03-37.48-0.04
		c-0.06-0.31-0.05-0.61,0.05-0.91c86.07-0.02,172.14-0.04,258.21-0.04C348.89,524.83,350.69,524.22,351.93,525.88z"/>
	<path class="st15" d="M456.88,243.94c-0.3-0.01-0.59-0.02-0.89-0.03c0-25.66,0.01-51.32,0.01-76.99c0.28,0.02,0.57,0.04,0.85,0.07
		c0.02,13.65,0.04,27.29,0.06,40.94C456.91,219.93,456.9,231.93,456.88,243.94z"/>
	<path class="st68" d="M45.05,421.89c0-50.98,0-101.96,0-152.95c1.98,3.13,3.31,6.42,3.05,10.25c-0.07,1.09,0.37,2.28,0.81,3.33
		c0.58,1.37,1.39,3.06,3.05,2.86c1.74-0.21,1.93-2.09,2.04-3.56c0.84-10.73,2.16-21.4,2.12-32.23
		c-0.19-48.31,0.11-96.63-0.26-144.94c-0.06-8.43,6.74-13.6,13.31-13.64c17.49-0.11,34.98,0.02,52.47-0.13
		c1.69-0.01,2.83,1.54,4.49,0.94c3.42,9.12,8.89,16.17,18.89,18.61c1.75,0.43,3.48,0.92,5.21,1.38c1.38,1.44,3.13,0.63,4.67,0.63
		c50.56,0.05,101.11,0.04,151.67,0.07c1.79,0,3.66-0.48,5.38,0.48c1.74,1.45,3.89,2.27,5.98,1.91c8.88-1.53,13.39,3.68,17.2,10.45
		c8.52,15.15,14.09,31.43,18.44,48.16c1.25,4.83-0.3,9.92,1.08,14.86c0.55,1.96-1.62,2.65-3.43,2.56
		c-11.81-0.57-23.42,1.95-35.2,2.33c-6.27,0.2-12.86-0.47-19.06,1.68c-1.89,0.98-3.93,0.47-5.88,0.47
		c-65.38,0.03-130.77,0.02-196.15,0.05c-1.96,0-3.99-0.48-5.89,0.46c0.01,0.37,0.01,0.73,0.02,1.1c1.24,1.31,1.34,2.96,1.35,4.62
		c0.05,8.89,0.05,17.78,0,26.67c-0.01,1.67-0.15,3.3-1.38,4.61c0,0.35,0,0.71,0,1.06c1.5,1.6,1.61,3.64,1.6,5.62
		c-0.01,3.43,1.75,4.73,4.98,4.68c2-0.03,3.99,0.03,5.99,0.03c65.75,0,131.49-0.01,197.24,0.04c3.08,0,6.38-0.76,9.1,1.58
		c5.56,3.22,11.86,2.11,17.81,2.93c3.26,0.45,6.67-0.15,9.94,0.27c2.67,0.34,4.9,1.55,2.27,4.86c-1.01,1.27-1.35,3.08-2.33,4.38
		c-3.07,4.04-6.32,7.34-12.32,6.7c-4.75-0.51-9.72-0.68-14.48,0.32c0.01,0.51,0.01,1.02,0.02,1.53c5.81,0,11.62,0.16,17.42-0.06
		c3.64-0.13,5.08,0.49,4.84,4.84c-0.53,9.44-0.14,18.93-0.2,28.41c-0.01,1.58,0.5,3.25-0.97,5.59c0-10.77,0.04-20.7-0.03-30.63
		c-0.01-1.73,0.72-3.7-1.01-5.13c-0.51,0.44-1.08,0.79-1.69,1.05c-2.43,0.77-4.94,0.55-7.43,0.55c-73.83,0.02-147.66,0.02-221.5,0
		c-2.49,0-5,0.21-7.44-0.49c-0.63-0.25-1.19-0.61-1.69-1.07c-1,0.58-1.12,1.55-1.12,2.58c0,10.61,0,21.22,0,31.82
		c0,1.03,0.2,1.97,1.09,2.63c2.12,3.97,2.11,7.93-0.08,11.88c-1.43,0.23-2.42,0.87-1.06,2.22c1.47,1.46,3.44,1.82,5.53,1.82
		c11.98-0.04,24.03,0.76,35.93-0.23c13.31-1.11,26.62-1.27,39.82-0.57c20.45,1.09,40.87,0.4,61.3,0.8c0.93,0.02,2.01-0.33,3.15,1.36
		c-7.95,1.91-15.6,3.94-23.34,5.57c-21.25,4.47-42.83,4.27-64.37,3.97c-21.05-0.29-41.82-2.97-62.35-7.96
		c-7.82-1.9-15.77-3.26-23.31-6.15c-1.63-0.62-2.09-0.18-2.33,1.28c-0.3,1.79-0.84,3.56-0.95,5.36
		c-1.41,22.08-0.75,44.19-1.11,66.28c-0.21,12.57-1.23,25.13-1.95,37.69c-0.12,2.17-0.45,4.89-3,5.07c-2.83,0.2-4.23-2.24-4.86-4.84
		C45.45,427.71,47.12,424.57,45.05,421.89z"/>
	<path class="st69" d="M130.96,94.06c6.62,0,13.23,0,20.25,0c-0.93-2.27-4.16-2.1-4.14-4.64c3.39,2.01,7.03,2.66,10.98,2.63
		c20.29-0.16,40.59-0.17,60.88-0.23c2.28-1.91,5.05-1.39,7.66-1.43c15.97-0.23,31.93,0.3,47.89,0.12
		c13.76-0.16,27.53-0.24,41.29,0.02c7.9,0.15,15.48-0.4,22.44-4.51c0.11,0.12,0.33,0.28,0.3,0.37c-1.5,5.58-1.49,5.48,5.13,5.64
		c2.59,0.06,5.73-1.24,7.43,2.13c-5.94,7.66-13.95,10.83-23.44,10.83c-57.61-0.01-115.21,0.04-172.82-0.06
		C145.35,104.91,136.69,102.53,130.96,94.06z"/>
	<path class="st70" d="M311.96,112.98c-52.73,0-105.46-0.01-158.19-0.02c-1.5,0-2.99-0.03-4.49-0.07c-0.06,0-0.18-0.35-0.16-0.37
		c0.36-0.26,0.74-0.48,1.12-0.71c60.54,0.03,121.08,0.07,181.61,0.1c1.09-0.47,2.18-0.91,2.06,1.04
		C326.59,112.96,319.27,112.97,311.96,112.98z"/>
	<path class="st68" d="M333.91,112.95c-0.45-0.82-1.26-0.9-2.06-1.04c5.74-1.47,11.46-2.96,16.13-6.92
		c-1.09,2.38-3.32,4.45-6.49,5.62C339.02,111.53,336.44,112.18,333.91,112.95z"/>
	<path class="st71" d="M274.89,91.81c-18.66,0-37.31,0-55.97,0c-1.65-1.72-3.76-1.87-5.98-1.85c-6.32,0.04-12.64,0.01-18.96,0.01
		c-1-3.74,2.08-3.18,3.9-3.39c10.55-1.24,21.14-2.08,31.72-2.98c12.48-1.06,24.85-3.15,35.41-3.24c-5.82,0.85-13.5-0.63-21.19-1.41
		c-1.53-0.16-3.74-0.6-3.65-2.63c0.09-1.89,2.19-2.33,3.79-2.67c11.22-2.4,22.48-4.66,33.76-6.78c16.84-3.16,33.63-6.56,50.41-10
		c1.59-0.33,3.21-1.11,4.76,0.12c-1.36,3.35-2.69,6.71-4.1,10.03c-0.93,2.2-0.19,3.09,2.09,2.94c1.96-0.13,4.04,0.08,5.85-0.52
		c3.19-1.06,5.41-0.23,7.13,2.49c-1.35,3.33-2.7,6.66-4.04,9.99c-12.38,1.46-24.81,2.5-37.23,3.46c-13.6,1.05-27.14,2.77-39.36,3.32
		c1.59-0.29,4.61-0.45,7.57,0.2C272.49,89.28,274.57,89.4,274.89,91.81z"/>
	<path class="st72" d="M274.89,91.81c-3.37-2.43-7.27-1.65-11.02-1.87c-2.67-0.16-5.54,0.79-9.28-1.54
		c8.78-0.89,16.31-1.71,23.86-2.41c14.26-1.33,28.5-2.97,42.8-3.71c6.15-0.32,12.36-3.02,18.59-0.35c-0.54,1.36-1.08,2.72-1.63,4.09
		c-3.45,4.39-8,6.05-13.52,5.99C308.09,91.84,291.49,91.87,274.89,91.81z"/>
	<path class="st73" d="M332.9,57c-20.85,5.26-42.07,8.71-63.13,12.95c-8.91,1.79-17.85,3.44-26.77,5.2
		c-0.77,0.15-1.46,0.64-3.14,1.41c10.17,2.73,19.84,1.63,30.09,3.51c-6.03,2.85-11.59,2.15-16.83,2.74
		c-18.72,2.1-37.51,3.52-56.28,5.15c-1.43,0.13-2.69,0.23-2.86,2.02c-9.03,0-18.05,0-27.08,0c-0.04-0.58-0.07-1.17-0.11-1.75
		c25.08-2.4,50.16-4.81,75.25-7.21c-8.93-3.02-18.4-1.41-27.34-5.15c6.06-1.28,12.1-2.63,18.17-3.83
		c21.54-4.27,43.08-8.51,64.63-12.74c12.46-2.45,24.93-4.87,37.4-7.3C334.24,53.66,333.57,55.33,332.9,57z"/>
	<path class="st74" d="M89.17,343.93c-0.1-0.31-0.15-0.62-0.15-0.95c1.52-1.05,3.24-0.55,4.85-0.55c93.39-0.03,186.78-0.03,280.17,0
		c1.63,0,3.34-0.46,4.88,0.51c-0.04,0.34-0.07,0.68-0.11,1.02c-0.93,9.96-0.35,19.95-0.31,29.92c0.02,3.92-1.25,5.56-5.09,5.4
		c-1.49-0.06-3,0.01-4.5,0.01c-89.96,0-179.93,0-269.89,0c-9.49,0-9.4-0.01-9.52-9.45C89.41,361.21,90.01,352.56,89.17,343.93z"/>
	<path class="st75" d="M378.87,379.66c0.21,12.22,0.21,12.22-12.13,12.22c-90.01,0-180.02,0.01-270.03-0.01
		c-8.68,0-7.6,1.05-7.68-7.72c-0.02-1.5,0.03-2.99,0.05-4.49c1.83-1.14,3.88-0.75,5.85-0.75c92.7-0.02,185.39-0.02,278.09,0
		C374.99,378.91,377.03,378.52,378.87,379.66z"/>
	<path class="st75" d="M89.03,464.84c-0.02-2.66-0.04-5.31-0.06-7.97c0.04-1.28,0.09-2.56,0.13-3.85c0.23-0.24,0.45-0.49,0.68-0.73
		c0.58-0.34,1.19-0.58,1.84-0.74c2.31-0.42,4.65-0.31,6.97-0.31c84.41-0.01,168.82-0.01,253.23,0c2.16,0,4.33-0.08,6.48,0.21
		c0.63,0.11,1.24,0.29,1.83,0.54c0.57,0.3,0.97,0.75,1.19,1.36c-0.1,3.83,0.62,7.7-0.39,11.51l-0.01,0.01
		c-1.74,0.9-3.6,0.45-5.4,0.45c-31.15,0.03-62.31-0.52-93.45,0.18c-27.78,0.63-55.56,0.99-83.34,0.98
		c-12.49-0.01-25.05,0.56-37.45-0.28c-17.15-1.16-34.26-0.37-51.37-0.94C89.62,465.26,89.33,464.99,89.03,464.84z"/>
	<path class="st75" d="M307.94,245.92c-70.47,0-140.94,0-211.41-0.02c-8.4,0-7.43,0.95-7.51-7.43c-0.01-1.5,0-3,0.01-4.5
		c87.56-0.01,175.12,0.03,262.68-0.13c4.79-0.01,5.36,1.81,5.33,5.82c-0.03,4.14-0.57,6.46-5.66,6.36
		C336.91,245.71,322.43,245.92,307.94,245.92z"/>
	<path class="st75" d="M89.04,318.89c0.03-3.96,0.06-7.92,0.08-11.88c78.43,0,156.85-0.02,235.28,0.1c1.53,0,4.85-2.3,4.69,2.5
		c-0.31,9.24-0.08,9.29-5.27,9.29C245.56,318.9,167.3,318.9,89.04,318.89z"/>
	<path class="st76" d="M378.87,379.66c-96.6,0-193.19,0-289.79,0c0.03-11.91,0.06-23.82,0.09-35.73c1,0.16,1.13,0.63,1.11,1.69
		c-0.16,9.31-0.05,18.63-0.34,27.94c-0.12,3.7,1.4,4.39,4.69,4.39c92.86-0.07,185.72-0.07,278.59,0.02c3.76,0,4.89-1.11,4.78-4.82
		c-0.25-8.15-0.11-16.31-0.05-24.46c0.01-1.59-0.59-3.36,0.87-4.72C378.83,355.86,378.85,367.76,378.87,379.66z"/>
	<path class="st77" d="M89.03,232.91c0.01-11.97,0.02-23.93,0.02-35.9c56.8-0.03,113.6-0.07,170.4-0.1
		c30.82-0.01,61.63,0.06,92.45-0.09c3.67-0.02,4.91,0.79,4.78,4.64c-0.3,8.99-0.32,18-0.01,26.98c0.13,3.89-1.15,4.63-4.78,4.61
		c-36.15-0.14-72.29-0.07-108.44-0.08C191.97,232.97,140.5,232.94,89.03,232.91z"/>
	<path class="st78" d="M327.97,270.05c0.3-0.11,0.61-0.15,0.93-0.12c0.04,10.83,0.01,21.65,0.17,32.48c0.04,2.69-0.6,4.15-3.57,3.75
		c-0.82-0.11-1.66-0.01-2.5-0.01c-76.13,0-152.27-0.05-228.4,0.11c-4.7,0.01-5.81-1.36-5.66-5.81c0.35-10.15,0.17-20.32,0.21-30.48
		c0.28-0.03,0.56,0,0.83,0.09c1.83,1.88,1.6,4.29,1.62,6.6c0.08,7.16,0.08,14.32,0.01,21.48c-0.03,3.55,1.36,5.29,4.99,5.13
		c1.49-0.06,3,0.02,4.49,0.02c71.92,0,143.84,0,215.76,0c9.46,0,9.45-0.01,9.46-9.66c0.01-5.83-0.05-11.65,0.03-17.48
		C326.39,274,326.28,271.78,327.97,270.05z"/>
	<path class="st79" d="M378.92,342.94c-96.63,0.01-193.26,0.03-289.9,0.04c1.4-1.78,3.39-1.06,5.12-1.06
		c93.21-0.03,186.42-0.03,279.63,0.01C375.51,341.93,377.48,341.24,378.92,342.94z"/>
	<path class="st80" d="M360.92,415.79c0.09,0.29,0.17,0.58,0.25,0.88c-0.4,0.55-0.92,0.95-1.56,1.2c-2.12,0.59-4.3,0.41-6.46,0.41
		c-85.57,0.01-171.15,0.01-256.72,0c-1.99,0-4,0.12-5.98-0.28c-0.65-0.18-1.23-0.51-1.72-0.97c0.09-0.38,0.19-0.76,0.28-1.14
		c1.55-0.91,3.26-0.48,4.89-0.48c87.36-0.02,174.72-0.02,262.08,0C357.64,415.41,359.33,415.06,360.92,415.79z"/>
	<path class="st81" d="M360.92,415.79c-70.47,0.03-140.95,0.05-211.42,0.08c-20.16,0.01-40.32,0.01-60.48,0.02
		c1.46-1.66,3.42-0.98,5.17-0.98c87.17-0.03,174.34-0.03,261.51,0C357.45,414.91,359.39,414.27,360.92,415.79z"/>
	<path class="st82" d="M89.04,195.91c1.83-1.78,4.12-0.93,6.19-0.94c67.25-0.05,134.49-0.05,201.74-0.05c19.27,0,38.55,0,57.82,0
		c0,0.33,0,0.66,0,0.99C266.2,195.91,177.62,195.91,89.04,195.91z"/>
	<path class="st55" d="M84.85,452.98c-1.59-8.34,3.15-16.62,1.87-21.2c0,4.55,0,12.86,0,21.16
		C86.1,452.95,85.48,452.96,84.85,452.98z"/>
	<path class="st55" d="M89.11,453.03c-0.22-0.24-0.61-0.48-0.63-0.73c-0.54-11.76-1.12-23.52,0.26-35.26c0,0,0.4-0.15,0.4-0.15
		c2.08,11.98,2.24,23.95-0.08,35.91L89.11,453.03z"/>
	<path class="st80" d="M361.17,416.67c1.44,7.19,0.37,14.46,0.62,21.69c0.17,4.79,0.02,9.59,0.01,14.38c0,0,0.06,0.05,0.06,0.05
		c-0.24,0.46-0.58,0.59-1.05,0.33l0.12-0.4c-1.32-1.29-1.38-2.98-1.39-4.65c-0.05-8.83-0.05-17.65,0-26.48
		c0.01-1.68,0.12-3.35,1.35-4.68L361.17,416.67z"/>
	<path class="st75" d="M89.03,526.85c85.94,0,171.88,0,257.82,0c-8.26,2.01-8.26,2.01-5.94,10.97c-0.86,0.66-1.88,0.46-2.85,0.5
		c-81.05,0-162.1,0.01-243.15-0.02c-1.96,0-3.99,0.51-5.88-0.48C89.04,534.16,89.03,530.51,89.03,526.85z"/>
	<path class="st54" d="M89.03,464.84c90.63,0.01,181.27,0.02,271.9,0.03c-1.66,1.71-3.78,0.95-5.69,0.95
		c-32.15,0.05-64.29-0.04-96.44,0.15c-3.49,0.02-8.47-2.35-10.02,3.72c-0.05,0.2-1.25,0.17-1.91,0.16
		c-4.32-0.05-8.59,0.62-12.87,0.87c-20.25,1.22-40.54,1.53-60.82,1.06c-11.75-0.27-23.48-1.26-35.22-1.94
		c-0.65-0.04-1.82-0.06-1.88-0.3c-1.4-5.77-6.09-3.51-9.42-3.59c-10.82-0.26-21.65-0.07-32.48-0.13
		C92.45,465.82,90.49,466.51,89.03,464.84z"/>
	<path class="st65" d="M89.04,537.81c83.3,0.01,166.61,0.02,249.91,0.03c0.33,0.22,0.43,0.44,0.32,0.66
		c-0.11,0.21-0.22,0.32-0.33,0.32c-1.32,0.01-2.64,0.02-3.96,0.03c-79.92-0.01-159.85-0.01-239.77-0.07
		C93.14,538.79,90.84,539.67,89.04,537.81z"/>
	<path class="st54" d="M360.82,453.11c0.35-0.11,0.7-0.22,1.05-0.33c-0.36,4.02,1.12,8.18-0.92,12.08
		C360.9,460.94,360.86,457.03,360.82,453.11z"/>
	<path class="st55" d="M338.93,538.83c0-0.33,0.01-0.65,0.01-0.98c0.66-0.01,1.32-0.02,1.97-0.03c2.68,0.01,5.35,0.02,8.03,0.03
		C345.77,539.81,342.26,538.43,338.93,538.83z"/>
	<path class="st35" d="M327.97,270.05c-0.01,9.99-0.15,19.98,0.04,29.97c0.07,3.53-0.69,4.97-4.63,4.97
		c-76.26-0.11-152.52-0.11-228.78,0c-3.92,0.01-4.73-1.39-4.66-4.95c0.2-9.99,0.05-19.98,0.05-29.97c1.66-0.05,3.32-0.15,4.98-0.15
		c75.84-0.01,151.68-0.02,227.52-0.01C324.32,269.91,326.15,270,327.97,270.05z"/>
	<path class="st83" d="M300.06,160c0.82,1.14-0.1,2.24-0.15,3.35c-0.37,8.61-0.4,8.61-9.28,8.61c-64.73,0-129.46,0.01-194.2-0.01
		c-8.34,0-7.33,0.91-7.41-7.51c-0.01-1.5,0-3,0-4.49c1.8-1.61,4.02-1.39,6.17-1.39c66.24-0.02,132.47-0.02,198.71,0
		C296.06,158.55,298.27,158.39,300.06,160z"/>
	<path class="st84" d="M300.06,160c-70.34-0.02-140.69-0.04-211.03-0.06c-0.02-10.49,0.16-20.99-0.16-31.47
		c-0.12-4.09,1.29-4.87,5.07-4.86c66.44,0.1,132.89,0.07,199.33,0.04c1.96,0,4,0.48,5.88-0.56c0.35-0.36,0.61-0.3,0.78,0.17
		C299.97,135.5,300.01,147.75,300.06,160z"/>
	<path class="st64" d="M299.93,123.26c-0.27,0-0.53-0.06-0.78-0.17c-2.16-0.06-4.32-0.19-6.48-0.19c-65.63-0.01-131.26,0-196.89,0
		c-1.81,0-3.62,0-5.71,0c1.12-1.53,2.42-0.91,3.48-0.91c67.13-0.03,134.26-0.03,201.39,0.02
		C296.64,122.01,298.68,121.21,299.93,123.26z"/>
	<path class="st54" d="M86.29,303.47c0-2.51,0-5.02,0-7.53c0.15,0.01,0.3,0.01,0.45,0.02c0,2.64,0,5.29,0,7.93
		C86.59,303.74,86.44,303.61,86.29,303.47z"/>
	<path class="st72" d="M299.95,76.05c7.67-1.68,15.32-3.43,23.01-4.96c1.15-0.23,3.94-0.77,3.36,1.29c-0.73,2.6-0.57,6.72-5.22,6.61
		C314.04,78.82,307.04,78.07,299.95,76.05z"/>
	<path class="st35" d="M359.95,452.75c-1.49,0.05-2.99,0.16-4.48,0.16c-87,0.01-173.99,0.01-260.99,0c-1.49,0-2.98-0.12-4.48-0.18
		c-1.02-10.95-0.19-21.92-0.46-32.88c-0.04-1.63,0.61-2.5,2.33-2.46c1.16,0.03,2.33,0,3.5,0c86.42,0,172.83,0,259.25,0
		c6.56,0,5.87-0.49,5.77,5.98C360.23,433.17,360.98,442.97,359.95,452.75z"/>
	<path class="st85" d="M359.95,452.75c-0.01-9.99-0.14-19.99,0.05-29.98c0.07-3.5-0.63-4.99-4.61-4.99
		c-86.93,0.11-173.86,0.11-260.79,0c-3.93,0-4.72,1.42-4.65,4.96c0.2,9.99,0.06,19.98,0.05,29.98c0,0-0.47,0.1-0.47,0.1
		s-0.48-0.04-0.48-0.04c0.03-11.97,0.06-23.94,0.08-35.91c90.59,0.01,181.17,0.02,271.76,0.02c0.01,11.94,0.03,23.87,0.04,35.81
		C360.61,452.73,360.28,452.74,359.95,452.75z"/>
	<path class="st74" d="M222.19,231.93c-42.13,0-84.27-0.07-126.4,0.1c-4.5,0.02-6.15-1.05-5.89-5.77c0.4-7.31,0.1-14.65,0.11-21.98
		c0-6.34,0.01-6.34,6.61-6.34c28.31,0,56.62,0,84.93,0c55.79,0,111.58,0.06,167.37-0.11c4.75-0.01,6.41,1.15,6.13,6.04
		c-0.41,7.14-0.11,14.32-0.11,21.48c0,6.59,0,6.59-6.86,6.59C306.12,231.93,264.16,231.93,222.19,231.93z"/>
	<path class="st55" d="M144.3,467.13c7.87,0,15.74,0,23.61,0c0,0.17,0,0.33,0,0.5c-7.91,0-15.82,0-23.73,0
		C144.22,467.47,144.26,467.3,144.3,467.13z"/>
	<ellipse class="st55" cx="228.58" cy="467.4" rx="16.06" ry="0.29"/>
	<path class="st74" d="M194.21,158.94c-32.96,0-65.92-0.06-98.88,0.08c-4.05,0.02-5.58-0.95-5.4-5.24
		c0.33-7.81,0.38-15.66-0.02-23.46c-0.23-4.63,1.5-5.46,5.71-5.44c47.11,0.14,94.22,0.09,141.33,0.09c18.98,0,37.96,0.09,56.93-0.08
		c3.82-0.03,5.31,0.87,5.14,4.98c-0.32,7.98-0.34,15.99,0,23.96c0.18,4.35-1.46,5.2-5.44,5.19
		C260.47,158.88,227.34,158.94,194.21,158.94z"/>
</g>
</svg>
