<?xml version="1.0" encoding="utf-8"?>
<!-- Generator: Adobe Illustrator 23.1.0, SVG Export Plug-In . SVG Version: 6.00 Build 0)  -->
<svg version="1.1" id="Layer_1" xmlns="http://www.w3.org/2000/svg" xmlns:xlink="http://www.w3.org/1999/xlink" x="0px" y="0px"
	 viewBox="0 0 320 640" style="enable-background:new 0 0 320 640;" xml:space="preserve">
<style type="text/css">
	.st0{fill:#C86D3D;}
	.st1{fill:#8B725B;}
	.st2{fill:#ED8347;}
	.st3{fill:#C86E3D;}
	.st4{fill:#71706F;}
	.st5{fill:#717170;}
	.st6{fill:#D78F67;}
	.st7{fill:#FAF4F1;}
	.st8{fill:#D9946E;}
	.st9{fill:#9E917E;}
	.st10{fill:#D28559;}
	.st11{fill:#988A76;}
	.st12{fill:#C8C0B5;}
	.st13{fill:#88725B;}
	.st14{fill:#C96F47;}
	.st15{fill:#DE7945;}
	.st16{fill:#E47C45;}
	.st17{fill:#3F4343;}
	.st18{fill:#DA8E58;}
	.st19{fill:#BE6A43;}
	.st20{fill:#E5874D;}
	.st21{fill:#D7915D;}
	.st22{fill:#E38A51;}
	.st23{fill:#E9854A;}
	.st24{fill:#5D5C5D;}
	.st25{fill:#D49360;}
	.st26{fill:#8A745D;}
	.st27{fill:#D97745;}
	.st28{fill:#DF8C54;}
	.st29{fill:#916D56;}
	.st30{fill:#8C715A;}
	.st31{fill:#8A735B;}
	.st32{fill:#89735C;}
	.st33{fill:#C76D3E;}
	.st34{fill:#9D654F;}
	.st35{fill:#996852;}
	.st36{fill:#BF6A41;}
	.st37{fill:#8D6F58;}
	.st38{fill:#BB6842;}
	.st39{fill:#956A54;}
	.st40{fill:#A1624D;}
	.st41{fill:#B36445;}
	.st42{fill:#AC6148;}
	.st43{fill:#C46B3F;}
	.st44{fill:#A4604B;}
	.st45{fill:#5C5C5C;}
	.st46{fill:#B06347;}
	.st47{fill:#C56C3E;}
	.st48{fill:#6E6E6D;}
	.st49{fill:#C16A40;}
	.st50{fill:#657075;}
	.st51{fill:#C06A40;}
	.st52{fill:#6F6E6D;}
	.st53{fill:#686E70;}
	.st54{fill:#8A715A;}
	.st55{fill:#CE7146;}
	.st56{fill:#C26C47;}
	.st57{fill:#D37446;}
	.st58{fill:#9A6751;}
	.st59{fill:#976953;}
	.st60{fill:#E98D51;}
	.st61{fill:#B06349;}
	.st62{fill:#A65F4A;}
	.st63{fill:#B76748;}
	.st64{fill:#BE6A48;}
	.st65{fill:#A2614C;}
	.st66{fill:#B66544;}
	.st67{fill:#BD6941;}
	.st68{fill:#8C7059;}
	.st69{fill:#906E57;}
	.st70{fill:#5F5E5E;}
	.st71{fill:#8E6F58;}
	.st72{fill:#626261;}
	.st73{fill:#676565;}
	.st74{fill:#A86049;}
	.st75{fill:#5E5E5E;}
	.st76{fill:#6A6C6C;}
	.st77{fill:#B76644;}
	.st78{fill:#C06940;}
	.st79{fill:#6D6D6C;}
	.st80{fill:#696C6D;}
	.st81{fill:#B76643;}
	.st82{fill:#BD6841;}
	.st83{fill:#BE6941;}
	.st84{fill:#6C6C6B;}
	.st85{fill:#6B6D6F;}
	.st86{fill:#616161;}
	.st87{fill:#9E644E;}
	.st88{fill:#936C55;}
	.st89{fill:#D27F4F;}
	.st90{fill:#9D624E;}
	.st91{fill:#B26445;}
	.st92{fill:#AE6247;}
	.st93{fill:#B96743;}
	.st94{fill:#986852;}
	.st95{fill:#9C6650;}
	.st96{fill:#AA6048;}
	.st97{fill:#A0634D;}
	.st98{fill:#656565;}
	.st99{fill:#616668;}
	.st100{fill:#946B54;}
	.st101{fill:#6A6A69;}
	.st102{fill:#686A6B;}
	.st103{fill:#6B6B6A;}
	.st104{fill:#696A6B;}
	.st105{fill:#B56544;}
	.st106{fill:#696968;}
	.st107{fill:#636C70;}
	.st108{fill:#696A6A;}
	.st109{fill:#646463;}
	.st110{fill:#A96049;}
	.st111{fill:#636667;}
	.st112{fill:#A15A47;}
	.st113{fill:#A3614C;}
	.st114{fill:#5D666A;}
	.st115{fill:#686867;}
	.st116{fill:#666666;}
</style>
<g>
	<path class="st0" d="M225.94,0.11c3.66,0,7.33,0,10.99,0c2.98,1.37,6.7,0.39,9.32,2.93c0.85,2.83,0.8,5.76,0.96,8.68
		c-0.16,1.25-0.1,2.98-1.52,3.21c-2.09,0.33-1.73-2.27-2.95-3.15c-2.11-1.4-4.5-1.05-6.79-1.05c-49.75-0.03-99.49-0.03-149.24,0
		c-2.14,0-4.34-0.23-6.32,0.91c-1.35,1.19-0.89,3.21-2.06,4.48c-0.48,0.35-1.01,0.49-1.6,0.41c-2.59-1.36-1.8-3.88-2.08-6.03
		c0.19-2.41-0.74-4.83-0.05-7.25c2.42-3.22,6.39-1.78,9.43-3.12c3.66,0,7.33,0,10.99,0c1.37,0.89,2.91,0.5,4.38,0.5
		c40.72,0.02,81.44,0.02,122.16,0C223.02,0.61,224.56,1,225.94,0.11z"/>
	<path class="st1" d="M192.01,631.9c0.61,3.99-1.92,5.56-5.09,6.72c-1.31,0.48-3.07-0.46-3.96,1.28c-1,0-2,0-3,0
		c-0.67-0.63-1.33-0.63-2,0c-1.33,0-2.66,0-4,0c-1.67-0.82-3.33-0.82-5,0c-4,0-7.99,0-11.99,0c-2-0.82-4-0.82-6,0
		c-3.33,0-6.66,0-9.99,0c-1.17-2.16-4.24-1.78-5.37-3.99c-0.81-1.59-2.01-3.13-0.74-5.03c2.15-1.59,4.67-1.58,7.16-1.59
		c14.12-0.02,28.24-0.05,42.36,0.02C187.18,629.34,190.18,628.98,192.01,631.9z"/>
	<path class="st2" d="M34.98,22.87c-0.05-7.84,1.32-15.43,4.09-22.76c0.67,0,1.33,0,2,0c0.55,0.47,1.28,0.71,1.7,1.35
		c1.21,2.19,1.44,4.69,2.22,7.02c0.33,1.26,0.41,2.56,0.54,3.84c0.96,3.16,0.93,6.42,0.88,9.67c-0.81,1.41,0.96,6.47-3.81,2.5
		c-0.76-0.63-3.63,1.12-5.42-0.88c-0.22,1.6,0.3,3.4-1.61,4.58C33.86,26.56,34.68,24.68,34.98,22.87z"/>
	<path class="st3" d="M44.05,8.14c-1.28-2.16-1.8-4.53-1.96-7c1.12-1.15,2.86,0.12,3.97-1.03c3.33,0,6.66,0,9.99,0
		c2.96,1.35,6.64,0.41,9.24,2.91c0.23,0.49,0.33,1,0.3,1.54c-0.25,1.64-0.62,3.19-2.07,4.28C60.06,11.44,47.56,11.01,44.05,8.14z"/>
	<path class="st4" d="M64.9,4.18c0.07-0.26,0.12-0.53,0.14-0.81c0.12-2.59,2.58-2.29,4.01-3.27c0.67,0,1.33,0,2,0
		c1.39,0.97,3.84,0.66,3.95,3.21c0.63,2.23,1.33,4.46,0.96,6.83c-0.05,4.43-0.99,8.06-6.61,7.9c-1.47-0.04-1.57,2.67-3.53,2.06
		c-1.08-1.33-0.99-2.85-0.74-4.39c0.16-0.8,0.4-1.59,0.79-2.32c0.38-0.73,0.72-1.47,0.71-2.32c-0.56,0.26-0.3,1.79-1.55,0.99
		C63.02,9.47,64.94,6.81,64.9,4.18z"/>
	<path class="st5" d="M245.98,10.97c0.38-2.53-1.61-5.05-0.04-7.58c-0.05-2.04,1.85-2.31,2.98-3.28c1,0,2,0,3,0
		c1.8,0.89,4,1.18,4.98,3.31c1.56,3.01,1.59,6.15,0.88,9.37c-0.33,1.01-0.84,1.9-1.63,2.62c-2.57,1.46-6.35,0.33-8,3.76
		c-0.46,0.23-0.93,0.24-1.4,0.04c-1.06-1.27-1.02-2.66-0.46-4.1c0.43-1.21,0.63-2.49,1-3.73c0.09-0.3,0.18-0.61-0.19-0.81
		c0.23,0.27,0.19,0.53-0.13,0.81C246.51,11.53,246.19,11.38,245.98,10.97z"/>
	<path class="st6" d="M225.94,0.11c-1.48,1.6-3.43,0.98-5.17,0.98c-40.19,0.04-80.38,0.04-120.56,0c-1.74,0-3.7,0.64-5.17-0.98
		C138.66,0.11,182.3,0.11,225.94,0.11z"/>
	<path class="st7" d="M236.93,0.11c4,0,7.99,0,11.99,0"/>
	<path class="st8" d="M262.78,1.02c0.1-0.29,0.14-0.6,0.13-0.91c5.66,0,11.33,0,16.99,0c-0.01,0.32,0.02,0.64,0.08,0.96
		C274.24,3.61,268.5,3.68,262.78,1.02z"/>
	<path class="st9" d="M150.99,639.9c2-1.61,4-1.46,6,0C154.98,639.9,152.99,639.9,150.99,639.9z"/>
	<path class="st10" d="M46.06,0.11c-1.04,1.45-2.61,0.86-3.97,1.03c-0.34-0.34-0.68-0.69-1.02-1.03C42.73,0.11,44.4,0.11,46.06,0.11
		z"/>
	<path class="st11" d="M168.98,639.9c1.67-1.45,3.33-1.55,5,0C172.31,639.9,170.64,639.9,168.98,639.9z"/>
	<path class="st12" d="M177.97,639.9c0.67-1.13,1.33-1.27,2,0C179.3,639.9,178.63,639.9,177.97,639.9z"/>
	<path class="st13" d="M246.85,143.13c-16.91,4.88-34.21,2.05-51.34,2.46c-4.87,0.12-1.88,4.67-4.4,5.66
		c-2.92-1.31-5.96-1.75-9.17-1.73c-12.57,0.08-25.15,0.05-37.73,0.02c-2.94-0.01-5.65,0.27-7.16,3.27c-0.61-0.53-1.71-1.04-1.74-1.6
		c-0.32-6.53-4.99-5.5-9.17-5.46c-11.65,0.11-23.31-0.09-34.94,0.36c-6.01,0.23-11.3-2.46-17.07-2.93c-0.84-2.19,0.65-3.22,2.1-4.28
		c2.29-1.97,5.03-2.39,7.93-2.39c50.88-0.02,101.75-0.02,152.63,0c3.06,0,5.93,0.63,8.65,2.01
		C247.08,139.69,247.67,141.2,246.85,143.13z"/>
	<path class="st14" d="M142.01,626.02c0.93-0.06,1.85-0.13,2.78-0.19c0.95-0.7,2.03-1.2,2.97-1.9c1.39-2.15,0.78-4.56,0.78-6.84
		c0.02-150.21,0.02-300.43,0.03-450.64c0-2.16-0.15-4.34,0.17-6.49c0.28-1.86,0.64-3.82,3.37-3.06c2.02,2.67,1.25,5.78,1.25,8.7
		c0.04,99.6,0.04,199.2,0.04,298.8c0,51.47,0.01,102.93-0.02,154.4c0,2.63,0.46,5.35-0.85,7.86
		C147.93,629.26,144.94,629.08,142.01,626.02z"/>
	<path class="st15" d="M144.08,591.9c-0.67-22-1.33-43.99-2-65.99c0.93-11.13-0.19-22.24-0.33-33.35
		c-0.15-11.79-1.33-23.56-0.34-35.38c0.42-4.97-0.04-9.99-0.03-14.98c0.07-39.64,0.36-79.29-0.1-118.92
		c-0.23-19.81,0.94-39.57,0.75-59.35c-0.05-4.95,1.13-9.91,0.04-14.87c0.67-22.33,1.34-44.65,2-66.98c2.05,0.1,1.84,1.79,2.19,3.09
		c0.14,0.86,0.09,1.73,0.09,2.6c0,4.12-0.02,8.23,0.05,12.35c0.1,1.86,0.02,3.72,0,5.58c-0.03,121.17,0,242.33,0,363.49
		c0.01,1.86,0.11,3.72,0.01,5.58c-0.09,3.82-0.03,7.64-0.05,11.47c0.02,1.15,0.03,2.31-0.19,3.45
		C145.83,590.74,145.65,591.97,144.08,591.9z"/>
	<path class="st16" d="M142.08,249.05c1.52,1.53,0.88,3.46,0.88,5.22c0.03,11.77-0.98,23.59-0.74,35.29
		c1.07,53.68,0.83,107.36,0.59,161.04c-0.05,11.41-1.33,22.89-0.67,34.29c0.69,11.94,0.85,23.86,0.82,35.8
		c0,1.76,0.64,3.69-0.88,5.22c-0.66-18.62-1.58-37.23-1.92-55.86c-0.64-34.6-3.12-69.16-1.96-103.79
		C139.52,327.19,140.79,288.12,142.08,249.05z"/>
	<path class="st17" d="M137.05,152.8c-1.47-3.45-0.34-4.79,3.4-4.76c15.31,0.1,30.63,0.06,45.95,0.02c2.39-0.01,4.36,0.32,4.71,3.19
		c-2.37,2.76-5.59,3.53-8.99,3.88c-0.75,0.5-1.49,1.02-2.4,1.16c-7.27,0.58-14.58-0.4-21.84,0.53c-0.8,0.25-1.62,0.38-2.44,0.43
		c-2.11,0.18-4.05-1.04-6.18-0.78c-0.51-0.03-1.01-0.1-1.51-0.2c-0.74-0.17-1.43-0.46-2.02-0.96c-1.32-1.55-3.34-0.19-4.8-1.15
		C139.43,154.25,138.06,154.05,137.05,152.8z"/>
	<path class="st18" d="M33.18,100.11c-0.03-2.35-0.05-4.69-0.08-7.04c1.07-2.83,0.11-5.79,0.57-8.65c0.12-0.11,0.24-0.22,0.36-0.33
		c3.43,3.83,7.83,3.8,12.4,3.14c1.02,1.38,0.91,3,0.97,4.58c0.01,2.1-0.14,4.21,0.57,6.25c0.35,1.58,0.41,3.19,0.33,4.8
		c-0.04,0.81-0.17,1.6-0.36,2.39c-0.95,2.16,0.01,4.87-1.94,6.73c-2.3-2.94-5.22-4.13-9.04-3.93c-2.26,0.12-3.44-1.64-3.41-4.04
		C33.58,102.71,33.9,101.35,33.18,100.11z"/>
	<path class="st19" d="M142.01,626.02c3.19,1.8,6.65,0.48,9.97,0.88c0.8-0.87,1.82-1.32,2.96-1.53c0.46-0.07,0.91-0.06,1.37-0.01
		c1.37,0.27,2.75,0.34,4.14,0.28c0.99-0.04,1.98-0.05,2.97-0.08c1.58,0.01,3.15,0,4.73-0.02c3-0.08,6.03,0.33,8.97-0.64
		c1.77-0.34,3.45-0.24,4.91,0.95c7.95-0.03,9.03,0.62,9.98,6.05c-1.96-1.2-4.14-1.01-6.3-1.01c-16.94,0-33.89,0-50.83-0.01
		c-0.05-0.93,0.06-1.79,0.96-2.32c1.69-0.35,2.67-1.87,4.15-2.56C140.66,626.01,141.34,626.02,142.01,626.02z"/>
	<path class="st20" d="M33.15,48.12c-0.03-4.41-0.51-8.85,0.82-13.18c1.23,2.22,0.19,4.64,0.62,6.67c0.1-2.96-0.29-6.21,0.44-10.36
		c2.74,3.6,3.9,8.66,10.06,5.73c0.21-0.64-0.66-2.84,1.12-4.13c0.61-0.07,1.08,0.15,1.42,0.66c1.36,4.06,0.95,8.18,0.51,12.3
		c-1.45,3.3,0.2,7.12-1.72,10.34c-3.27,2.22-6.63,1.25-9.86,0.03C32.76,54.75,34.53,50.72,33.15,48.12z"/>
	<path class="st21" d="M33.18,100.11c0.29,0.73,0.88,1.48,0.83,2.18c-0.28,3.65,1.41,5.46,4.91,4.71c4.48-0.96,6.46,0.97,7.13,5.06
		c0.19,0.19,0.37,0.38,0.56,0.56c0.91,1.72,0.67,3.6,0.76,5.44c0.01,1.05,0.03,2.09,0.01,3.14c-0.1,2.35-0.41,4.64-1.81,6.63
		c-2.51-0.97-5.79-1.21-7.44-2.75c-1.7-1.58-2.14,0.71-3-0.03C33.68,116.8,33.12,108.48,33.18,100.11z"/>
	<path class="st22" d="M33.15,48.12c1.29,7.54,6.63,8.51,12.91,7.97c2.41,3.79,1.32,7.85,0.89,11.85c-1.88,4.1-5.43,3.79-8.95,3.25
		c-3.99-0.61-3.36-4.04-3.54-6.87c0.18,6.68,3,13.23-0.38,19.76c-0.45,2.98,0.97,6.16-0.97,8.98c-0.03-2.62-0.06-5.24-0.09-7.87
		C32.3,76.45,32.33,67.7,33,58.94C33.05,55.33,33.1,51.73,33.15,48.12z"/>
	<path class="st23" d="M46.08,33.05c0,1.99,0,3.98,0,6c-4.38-0.75-11.06,2.96-11.02-5.94c0,3.27,0,6.55,0,9.82
		c-0.36,0.01-0.72,0.02-1.09,0.02c0-2.67,0-5.35,0-8.02c0.05-4.05-0.45-8.14,1-12.07c0.33,1.38-0.37,2.91,0.92,4.72
		c0.11-2.11,0.19-3.72,0.34-6.76c1.73,6.01,6.83-0.16,8.85,4.78c0-1.59,0-2.58,0-3.56c0.65-0.25,1.17-0.09,1.55,0.5
		C47.79,26.12,48.17,29.65,46.08,33.05z"/>
	<path class="st24" d="M76.02,140.03c-0.63,1.04-1.26,2.09-1.88,3.13c-3.15,3.75-6.11,2.11-9.04-0.32c-1.34-1.31-1.38-3-1.38-4.7
		c-0.06-2.76,0.91-5.39,0.93-8.14c0.21-2.43,0.37-4.89,2.05-6.88c1.97-0.66,1.95,1.09,2.55,2.1c1.85,3.13,3.68,3.25,5.51,0.02
		c1.45-2.56,2.34-3.22,3.43,0.08c0.59,3.34-1.15,6.49-0.78,9.81C77.43,136.91,77.07,138.57,76.02,140.03z"/>
	<path class="st25" d="M35.13,125.05c1.12,0.36,0.46-3.99,2.62-0.99c0.63,0.87,1.75,1.27,2.64,0.94c3.09-1.16,3.7,1.11,4.61,3.06
		c2.25,2.88,0.19,5.87,0.24,8.8c-0.12,0.8-0.29,1.6-0.54,2.37c-1.07,3.22,0.13,4.43,3.45,4.52c2.97,0.08,6.23-1,8.84,1.44
		c-5.21,1.52-10.53,0.39-15.79,0.63c-2.37,0.11-2.98-1.9-3.42-3.65C36.34,136.56,34.91,130.93,35.13,125.05z"/>
	<path class="st26" d="M56.98,145.2c-3.31-0.05-6.65-0.39-9.92-0.07c-4.56,0.44-5.66-1.22-3.98-5.27c0.38-0.91,0.65-1.87,0.97-2.8
		c7.08-1.68,14.14-2.94,20.95,1.01c0.03,1.59,0.07,3.19,0.1,4.78C62.35,143.49,59.9,145.15,56.98,145.2z"/>
	<path class="st27" d="M144.08,591.9c0.75-0.45,0.9-1.19,0.92-1.98c3.04,0.69,2.29,3.25,2.33,5.18c0.15,7.58,0.03,15.16,0.07,22.75
		c0.01,2.13-0.25,4.3,0.75,6.32c0.24,0.61,0.18,1.19-0.17,1.74c-1.06-0.02-2.13-0.05-3.19-0.07
		C144.56,614.52,144.32,603.21,144.08,591.9z"/>
	<path class="st27" d="M146.03,154.87c0.64,0.1,1.28,0.19,1.92,0.29c-1.04,8.05-0.29,16.14-0.63,24.2c-0.09,2.06,0.98,4.85-2.32,5.7
		c-0.04-1.07,0.18-2.23-0.91-2.98c0.23-8.97,0.45-17.94,0.68-26.9C145.08,154.64,145.5,154.54,146.03,154.87z"/>
	<path class="st28" d="M33,58.94C33,67.7,33.01,76.45,33.01,85.2C31.85,76.45,31.92,67.7,33,58.94z"/>
	<path class="st14" d="M139.99,626.01c-2.26,2.93-2.26,2.93-4.15,2.56C136.64,626.76,138.02,625.92,139.99,626.01z"/>
	<path class="st13" d="M146.03,154.87c-0.42,0.1-0.84,0.2-1.26,0.3c-1.29-0.33-2.57-0.67-3.86-1
		C142.69,153.81,144.46,153.64,146.03,154.87z"/>
	<path class="st29" d="M182.03,625.85c-1.68,0.03-3.37,0.06-5.05,0.08c-1.11,0.61-2.2,0.76-3.22-0.2c0.19-1.45,1.37-1.91,2.44-2.5
		c2.2-2.04,1.23-4.71,1.23-7.07c0.05-130.52,0.05-261.03,0.05-391.55c0-20.81-0.01-41.62,0.01-62.43c0-2.63-0.37-5.45,2.47-7.11
		c0.72,0.02,1.43,0.03,2.15,0.05c-0.02,12.32,1.39,24.61,0.77,36.95c-1.13,6.79,0.32,13.55,0.28,20.34
		c-0.08,12.09,0.2,24.18,0.38,36.26c0.12,7.93,0.79,15.85,0.87,23.77c0.16,15.96,0.13,31.91,0.09,47.87
		c-0.11,44.76,0.02,89.53-0.05,134.29c-0.04,21.92,0.27,43.84-0.72,65.78c-0.52,11.53-1.27,23.16-0.44,34.8
		c0.61,8.56-0.62,17.19-0.84,25.8c-0.03,1.31-0.28,2.67,0.41,3.92C182.6,598.55,182.32,612.2,182.03,625.85z"/>
	<path class="st30" d="M182.88,584.9c-1.52-1.53-0.95-3.48-0.87-5.23c0.62-14.15,0.01-28.3,0.09-42.45
		c0.07-13.16,0.13-26.36,1.64-39.49c0.33-2.88-0.73-5.9-0.73-8.85c-0.05-67.98-0.16-135.95,0.12-203.93
		c0.04-9.05,0.48-18.29-0.21-27.14c-0.45-5.73,0.4-11.55-0.67-17.37c-0.99-5.41-0.46-11.2,0.32-16.85
		c1.21-8.75-1.46-17.49-0.59-26.29c0.17-1.76-0.62-3.7,0.91-5.22c0.64,16.59,1.36,33.18,1.9,49.77c0.8,24.57,1.48,49.14,2.19,73.71
		c0.05,1.82-0.06,3.65-0.1,5.47c-1.03,5.28,0.21,10.56,0.01,15.82c-0.65,17.23,0.87,34.41,0.68,51.64
		c-0.12,11.42-1.24,22.86-0.82,34.21c0.39,10.44-1.17,20.84,0.13,31.24c-0.67,25.4-1.27,50.8-2.03,76.2
		C184.3,548.39,183.54,566.64,182.88,584.9z"/>
	<path class="st31" d="M282.78,129.09c-0.25,2.3-0.47,4.6-0.74,6.89c-1.19,10.13-1.25,9.99-11.52,10.11
		c-5.43,0.07-10.2-2.66-15.5-2.88c-0.32-3.44,0.43-6.72,1.51-9.95c3.98-1.58,8.09-0.73,12.12-0.47
		C273.85,133.12,278.65,132.53,282.78,129.09z"/>
	<path class="st32" d="M186.87,453.94c-1.52-1.53-0.78-3.46-0.89-5.22c-0.5-8.1-0.57-16.29-0.5-24.32
		c0.07-8.16-0.61-16.56,0.92-24.64c0.7-3.67-0.67-6.82-0.54-10.29c0.42-11.04,0.82-22.11,0.38-33.14
		c-0.44-11.2,0.01-22.38-0.19-33.56c-0.01-0.57,0.54-1.15,0.83-1.73C189.39,365.33,189.34,409.64,186.87,453.94z"/>
	<path class="st33" d="M262.78,1.02c5.73,0.02,11.46,0.03,17.2,0.05c2.69,4.69,1.92,10,2.72,15.03c-0.14,0.09-0.37,0.28-0.41,0.25
		c-5.99-5.27-13.46-1.66-20.04-3.38c-3.06-0.8-1.88,3.82-4.54,3.52c-1.81-0.72-1.38-2.02-0.88-3.34c0.33-3.37,0.15-6.69-0.98-9.91
		C258.16,2.49,260.47,1.75,262.78,1.02z"/>
	<path class="st34" d="M286.76,85.12c0.36,5.02-0.35,9.98-0.96,14.94c-6.06,0.38-12.12,0.57-18.19,0.38
		c-0.82-0.03-1.83-0.32-2.4,0.22c-5.76,5.45-4.01-0.73-4.77-3.05c0.23-5.02-0.56-10.09,0.84-15.04c0.33-0.55,0.81-0.8,1.45-0.74
		c1.82,1.38,1.31,3.51,1.69,5.34c1.2,2.37,3.41,1.4,5.25,1.53c4.96,0.35,10.04-0.77,15.2,0.94
		C285.61,88.54,283.6,85.64,286.76,85.12z"/>
	<path class="st29" d="M284.75,112.11c-0.36,5.35-0.7,10.7-1.94,15.94c-1.92-1.75-4.16-1.91-6.63-1.62
		c-5.35,0.61-10.88-1.03-16.1,1.46c-1.52,0.72-1.86-0.79-2.3-1.85c-0.2-2.71-0.85-5.49,1.06-7.91c4.06-4.67,9.54-3.55,14.67-3.36
		C277.58,114.9,281.28,114.2,284.75,112.11z"/>
	<path class="st35" d="M261.88,98.03c0,1.31,0,2.61,0,4.68c2.6-6.54,7.52-3.26,11.07-3.39c4.21-0.16,8.73-1.82,12.84,0.74
		c0.37,3.73-0.49,7.35-1,10.99c-6.2-2.55-12.73-1.15-19.1-1.67c-2.29-0.19-2.78,2.11-4.41,2.68c-1.39-0.81-1.56-2.13-1.7-3.47
		c-0.03-2.13-0.3-4.26-0.06-6.37C259.71,100.56,259.36,98.44,261.88,98.03z"/>
	<path class="st36" d="M283.66,24.14c0.33,3,0.66,6,1,9c-2.39,2.3-2.75-0.13-2.77-1.47c-0.03-2.56-0.97-2.9-3.28-2.47
		c-3.06,0.57-6.24,0.42-9.33,0.17c-3.7-0.31-7.2-0.56-9.46,3.2c-0.57-0.03-1.03-0.26-1.41-0.7c-1.27-2.43-0.84-4.97-0.55-7.51
		c1.62-6.72,1.62-6.72,8.74-6.66c2.49,0.02,4.98-0.02,7.47,0.02C281.33,17.81,281.33,17.81,283.66,24.14z"/>
	<path class="st37" d="M258.89,126.01c6.36-1.67,12.89-0.34,19.26-1.1c3.11-0.38,3.78,1.11,4.67,3.14
		c-0.01,0.35-0.02,0.69-0.03,1.04c-4.63,8.76-12.75,4.12-19.35,4.62c-1.8,0.14-4.52,1.28-6.44-0.65c-1.86-2.4-0.4-4.57,0.46-6.78
		C257.86,125.82,258.34,125.73,258.89,126.01z"/>
	<path class="st38" d="M259.82,32.14c1.88-1.27,0.59-3.45,1.46-5.18c7.06,1.67,14.13,1.73,21.31,0.19c1.59,1.57-1.7,5.05,2.07,5.99
		c0.35,3.66,0.69,7.32,1.04,10.99c-1.43,2.06-2.12,0.75-2.8-0.61c-0.95-7-0.95-7-8.21-7.01c-1.49,0-2.98,0.04-4.47-0.01
		c-3.54-0.11-7.42-0.99-8.14,4.32c-0.08,0.62-1.04,0.67-1.74,0.57C257.67,38.44,258.13,35.32,259.82,32.14z"/>
	<path class="st39" d="M260.88,109.01c0.03,0.5-0.08,1.07,0.13,1.48c0.7,1.36,0.9,0.26,0.85-0.28c-0.25-2.57,1.15-2.31,3.04-2.23
		c4.81,0.21,9.64,0.27,14.45,0.02c2.68-0.14,4.38,0.67,5.44,3.05c-0.01,0.35-0.03,0.71-0.04,1.06c-1.22,2.94-3.35,4.15-6.58,4.01
		c-4.3-0.19-8.62-0.04-12.94-0.05c-2.18-0.01-4.55-0.35-4.35,3.06c0.03,0.49-0.04,1.69-0.85,0.35c-0.23-0.38-0.11-0.97-0.15-1.47
		c-2.01-2.73-1.63-5.61-0.54-8.53C259.73,108.92,260.24,108.76,260.88,109.01z"/>
	<path class="st40" d="M286.76,85.12c-1.64,1.64-0.39,3.82-1.01,5.52c-6.75-1.08-13.54-0.53-20.29-0.4
		c-2.02,0.04-2.73-0.19-2.53-2.16c1.44-2.22-0.63-5.09,1.35-7.21c7.29-0.3,14.57-0.68,21.85,0.13
		C287.68,82.16,286.82,83.7,286.76,85.12z"/>
	<path class="st41" d="M283.89,44.1c0.58,1.1,1.2,0.18,1.8,0.03c0.31,4.34,0.61,8.67,0.92,13.01c-0.32,0.83-0.87,1.3-1.82,1.1
		c-0.39-0.36-0.68-0.8-0.85-1.31c0.06-3.69-1.44-5.17-5.38-4.6c-3.37,0.49-6.86,0.24-10.29,0.03c-2.48-0.15-4.95-0.45-6.27-3.07
		c-0.68-6.25,0.31-7.75,6.24-7.65C273.53,41.73,279.2,40.02,283.89,44.1z"/>
	<path class="st42" d="M286.76,62.09c0.43,5.66,0.47,11.32,0.07,16.98c-3.45-1.32-1.88-4.41-2.37-6.76
		c0.57-3.96-1.21-5.24-5.04-4.87c-3.08,0.3-6.23,0.2-9.33-0.04c-2.86-0.22-5.53-0.91-7.02-3.76c-0.85-6.57-0.32-7.39,6.27-7.04
		c5.19,0.27,10.62-1.45,15.57,1.49v0C286.3,59.06,285.51,61.05,286.76,62.09z"/>
	<path class="st43" d="M283.66,24.14c-0.6,0.21-1.68,0.52-1.61-0.21c0.53-5.16-2.99-4.81-6.3-4.82c-2.99-0.01-6.01,0.26-8.97-0.07
		c-4.15-0.46-7.46-0.16-7.77,5.06c-1.87-2.43-2.99-4.98-1.21-7.96c1.9-1.24,0.59-3.41,1.58-5.35c5.55,2.24,11.43,1.41,17.2,1.15
		c2.9-0.13,4.73-0.48,4.6,3.16c-0.01,0.32,0.98,0.67,1.5,1.01C283.02,18.78,283.34,21.46,283.66,24.14z"/>
	<path class="st44" d="M285.89,72.09c0.38,2.32-0.87,4.85,0.94,6.98c-0.24,0.64-0.47,1.28-0.71,1.92c-7.4,1.77-14.8,1.69-22.21,0.1
		c-0.2-0.21-0.4-0.42-0.61-0.63c-1-2.85-1.23-5.66,0.35-8.4C271.06,72.65,278.47,73.07,285.89,72.09z"/>
	<path class="st45" d="M257.93,126.11c-0.31,2.32-0.63,4.63-0.94,6.95c-0.2,3.47,0.55,7.12-1.97,10.14
		c-2.75,3.05-5.48,2.85-8.18-0.07c-0.33-1.35-0.65-2.7-0.98-4.05c-0.57-0.52-0.85-1.19-0.97-1.94c0.09-2.66,0.22-5.32,0.71-7.95
		c0.63-2.13,0.7-4.46,2.23-6.27c0.51-0.08,1.05,0.01,1.33,0.42c3.65,5.35,3.64,5.36,7.57,0.08c0.19-0.26,0.54-0.34,0.92-0.37
		C258.7,123.98,258.59,125.02,257.93,126.11z"/>
	<path class="st46" d="M286.76,62.09c-2.58-0.42-1.66-2.47-1.87-4c0.57-0.32,1.15-0.64,1.72-0.95
		C286.67,58.79,286.71,60.44,286.76,62.09z"/>
	<path class="st43" d="M246.99,14.06c0,1.63-0.01,3.26-0.01,4.89c0.88,1.33,1.36,3.31-0.11,3.81c-2.29,0.77-1.86-2.56-3.45-3.27
		c-2.55-1.13-5.24-0.77-7.88-0.77c-48.86-0.02-97.71-0.01-146.57-0.03c-2.98,0-5.99,0.3-8.92-0.57c-0.99-0.36-1.71-0.99-2.02-2.03
		c0-1.67,0-3.33,0-5c55.63,0.64,111.25,0.64,166.88,0c0.18,1.03-0.42,2.19,0.85,3.35c0.08-1.34,0.15-2.41,0.21-3.49
		c0.28,0.12,0.57,0.21,0.86,0.27C247.69,12.14,247.51,13.09,246.99,14.06z"/>
	<path class="st47" d="M244.92,11.11c-1.35,1.74-3.15,2.04-5.27,2.03c-52.11-0.05-104.22-0.05-156.33,0c-2.13,0-3.92-0.3-5.27-2.04
		c0.35-2.48,2.28-1.99,3.86-1.99c53.05-0.02,106.1-0.02,159.16,0C242.64,9.12,244.57,8.63,244.92,11.11z"/>
	<path class="st48" d="M66.23,20.1c0.93-1.61,1.11-3.98,3.96-3.57c5.02,0.73,4.59-3.58,5.76-6.39c0.52,1.97-0.73,4.23,0.99,5.99
		c1.86,2.18,2.31,4.78,2.24,7.54c-0.03,0.53-0.13,1.05-0.27,1.56c-1.81,4.92-1.81,4.92-9.55,4.23c-1.98-1.11-0.08-3.23-1.22-4.87
		c-0.06-0.37-0.5,0.68,0.12,0.44c0.17-0.07,0.25,0.05,0.26,0.36c0.03,0.65-0.02,1.28-0.36,1.86c-0.48,0.17-0.95,0.12-1.39-0.13
		c-0.99-1.25-1.14-2.79-1.51-4.25C65.16,21.8,65.2,20.78,66.23,20.1z"/>
	<path class="st47" d="M78.14,24.1c-0.4-2.65-0.8-5.3-1.2-7.95c0.37-0.01,0.73-0.03,1.1-0.04c0.33,0.33,0.67,0.67,1,1
		c0.35,0.4,0.64,0.83,0.87,1.31c0.5,1.85,0.53,3.66-0.4,5.41C79.13,24.31,78.67,24.4,78.14,24.1z"/>
	<path class="st47" d="M66.23,20.1c-0.04,1-0.09,2-0.13,3c-2.42,0.01-1.97-2.1-2.56-3.44c-0.73-1.9-2.36-2.1-4.07-2.15
		c-1.98-0.06-3.99-0.22-5.94,0.01c-4.55,0.53-7.98-0.67-9.42-5.43c-0.02-1.32-0.04-2.64-0.07-3.96c4.45,1.37,9.02,0.88,13.56,0.97
		c3.62,0.07,6.32-1.12,7.3-4.93c0.49,2.66-0.6,5.53,1.1,8.02c0.8,0.91,0.63,1.87,0.15,2.84C66.18,16.73,66.21,18.42,66.23,20.1z"/>
	<path class="st49" d="M44.11,12.1c0.32-0.09,0.91-0.26,0.91-0.26c1.91,6.36,7.17,3.84,11.28,4.23c1.96,0.18,3.95,0.11,5.91,0.02
		c2.19-0.1,2.94,1.01,2.83,3.01c-0.8,3.16-2.92,4.42-6.07,4.4c-3.74-0.03-7.48,0.11-11.21,0.08c-1.93-0.61-0.71-2.44-1.33-3.49
		c0.17,0.7,0.21,1.43-0.39,2.06c-0.32-0.02-0.64-0.06-0.95-0.1C45.17,18.69,45.14,15.34,44.11,12.1z"/>
	<path class="st50" d="M66.15,15.04c-0.05-0.95-0.1-1.89-0.15-2.84c0.06-0.64,0.12-1.28,0.19-1.92
		C66.94,11.89,67.59,13.5,66.15,15.04z"/>
	<path class="st51" d="M79.04,24.1c0-2,0-4,0-6c5.42,2.64,11.22,2.43,17.03,2.43c43.92-0.04,87.85-0.04,131.77,0
		c6.15,0.01,12.28,0.12,18.07-2.43c0.2,1.33-0.44,2.77,0.83,4.54c0.1-1.57,0.17-2.63,0.24-3.7c0.28,0.12,0.57,0.22,0.87,0.3
		c2.27,2.38,1.11,5.36,1.44,8.08c-0.05,1.37,0.18,2.71,0.57,4.02c0.32,1.37,0.39,2.75,0.36,4.15c-0.21,1.41-0.08,3.6-1.82,3.45
		c-1.94-0.17-1.63-2.49-1.87-4.06c-0.13-2.07-0.88-4.06-0.94-6.14c-0.05-1.5-0.85-2.22-2.35-2.22c-30.8,0.09-61.58,0.03-92.36,0.11
		C128.93,26.7,106.96,26.68,85,26.5c-1.33-0.01-2.67,0-3.96-0.39C80.05,25.76,79.33,25.14,79.04,24.1z"/>
	<path class="st52" d="M248.12,28.02c-0.09-2.92-0.18-5.84-0.27-8.76c-0.16-6.92,5.16-3.17,8.06-4.15
		c2.41,4.31,2.34,9.05,2.36,13.77c-2.7,2.41-5.57,1.44-8.44,0.45c-0.92-1.52-0.14-3.02-0.39-4.41
		C248.46,25.4,250.65,28.01,248.12,28.02z"/>
	<path class="st53" d="M257.91,29.1c-0.66-4.66-1.33-9.33-1.99-13.99c0.02-0.79,0.15-1.52,0.92-1.96c0.16,1.05-0.19,2.27,0.98,2.99
		c0.4,2.65,0.8,5.31,1.21,7.96c-0.01,2.66-0.03,5.32-0.04,7.98c-0.5,0.31-0.96,0.27-1.38-0.14
		C257.02,30.92,257.13,29.97,257.91,29.1z"/>
	<path class="st50" d="M246.99,14.06c-0.05-0.94-0.1-1.88-0.15-2.81c0.08-0.3,0.07-0.67,0.25-0.89c0.4-0.48,0.77-0.29,0.78,0.27
		C247.9,11.84,248.23,13.16,246.99,14.06z"/>
	<path class="st54" d="M245.9,137.05c-0.01,0.68-0.02,1.35-0.03,2.03c-0.37,0.33-0.98,1.01-1.07,0.95
		c-5.51-3.86-11.73-1.84-17.55-1.86c-47.75-0.19-95.5-0.09-143.24-0.15c-2.91,0-5.62,0.16-7.98,2.01c0.03-1.65,0.05-3.3,0.08-4.96
		c1.33-1.42,1.31-4.09,3.99-4.27c2.49-0.5,4.98-0.22,7.47-0.22c48.68-0.02,97.35-0.01,146.03-0.01c1.5,0,2.99-0.01,4.49,0
		C244.89,130.62,244.89,130.62,245.9,137.05z"/>
	<path class="st55" d="M147.98,625.9c0-0.33,0-0.66,0-0.99c-1.54-2.08-0.96-4.5-0.97-6.78c-0.92-134.86-0.19-269.72-0.49-404.59
		c-0.04-17.31,0.73-34.61,0.44-51.92c-0.04-2.41,0.22-4.64,2.01-6.44c1.87,1.08,3.98,0.8,6,1.05c0.1,0.19,0.19,0.39,0.29,0.58
		c-0.11,0.19-0.23,0.37-0.34,0.56c-0.37,0.24-0.78,0.38-1.21,0.45c-0.69,0-1.26-0.25-1.73-0.76c-1.4,0.17-2,0.99-1.99,2.37
		c0.02,1.33-0.01,2.66-0.01,4c0,151.37,0,302.74,0.01,454.11c0,1.99-0.09,4.05,0.4,5.94C151.07,626.05,149.51,625.82,147.98,625.9z"
		/>
	<path class="st56" d="M151.99,157.06c0.67,0,1.33,0,2,0c2.05,2.45,1.39,5.4,1.39,8.17c0.04,62.13,0.03,124.26,0.03,186.39
		c0,89.11,0,178.22-0.01,267.34c0,2.32,0.21,4.67-0.41,6.96c-0.72,1.18-1.9,0.97-3,0.99C151.98,470.29,151.99,313.67,151.99,157.06z
		"/>
	<path class="st57" d="M148.98,155.18c-0.93,2.71-1.01,5.5-1.01,8.34c0.02,153.79,0.02,307.59,0.02,461.38
		c-2.78-0.49-1.95-2.71-1.96-4.37c-0.07-8.48,0-16.96-0.06-25.45c-0.01-1.75,0.66-3.7-0.96-5.18c0-1,0.01-2,0.01-3
		c0.82-4,0.83-8,0-12c0-1.66,0-3.33-0.01-4.99c1.85-2.81,0.71-5.8,0.51-8.73c-0.84-12.62-0.14-25.25-0.11-37.87
		c0.19-90.89,0.19-181.79,0.01-272.68c-0.03-13.79-0.98-27.57,0.52-41.33c0.16-1.49,0.14-3.01-0.93-4.27c0-1.66,0-3.33,0.01-4.99
		c0.81-4.33,0.81-8.67,0-13c0-0.67,0-1.33-0.01-2c2.07-3.91,0.7-8.11,0.94-12.16c0.26-4.31,0.16-8.65,0.02-12.96
		c-0.07-2,0.43-3.56,2-4.77C148.29,155.16,148.64,155.17,148.98,155.18z"/>
	<path class="st27" d="M145,205.04c3.05,0.69,2.21,3.19,1.74,4.82c-0.86,2.97-0.74,5.92-0.74,8.89
		c-0.01,111.49-0.01,222.97,0,334.46c0,3.8-0.19,7.58,0.78,11.39c0.43,1.68,1.49,4.49-1.79,5.33C145,448.3,145,326.67,145,205.04z"
		/>
	<path class="st27" d="M145.01,187.05c1.61,4.33,1.61,8.67,0,13C145.01,195.71,145.01,191.38,145.01,187.05z"/>
	<path class="st27" d="M145.01,574.92c1.57,4,1.57,8,0,12C145.01,582.92,145.01,578.92,145.01,574.92z"/>
	<path class="st39" d="M179.96,155.08c-1.42,2.29-0.98,4.84-0.98,7.31c-0.01,152.21,0,304.42-0.08,456.63c0,2.18,1.8,5.83-2.93,5.89
		c-1.47-1.61-1.54-3.62-1.6-5.63c-0.06-2.17-0.03-4.33-0.03-6.5c0-148.28,0-296.57-0.02-444.85c0-3.14,0.44-6.34-0.78-9.37
		c-0.8-0.93-1.89-1.09-3.04-1.1c-3.15-0.08-6.31,0.01-9.46-0.04c-1.5-0.08-3.02-0.11-4.09-1.41
		C164.56,154.14,172.3,155.56,179.96,155.08z"/>
	<path class="st14" d="M156.95,156.01c1.31,0.04,2.62,0.08,3.93,0.12c0.06,2.12-1.63,1.8-2.89,2.1c-1.14-0.02-2.22-0.23-3.01-1.17
		c0-0.27,0-0.55-0.01-0.82C155.63,156.16,156.29,156.08,156.95,156.01z"/>
	<path class="st28" d="M34.08,84.09c0-6.93,0-13.85,0-21.59c1.96,2.78-0.59,7.16,3.79,7.48c2.83,0.21,6.01,1.1,8.19-1.88
		c2.25,6.33,2.25,12.66,0,18.99C41.13,90.97,36.56,89.83,34.08,84.09z"/>
	<path class="st58" d="M47.15,103.04c-0.03-1.66-0.06-3.31-0.09-4.97c-0.85-1.13-0.39-2.41-0.41-3.64c0.23-0.51,0.62-0.78,1.19-0.8
		c0.79,0.04,1.55,0.22,2.34,0.3c2.99-0.1,5.98-0.31,8.97-0.29c9.13,0.05,9.21,0.1,10.79,9.04c0.27,1.1,0.4,2.22,0.43,3.35
		c-0.09,2.57-0.31,5.1-2.16,7.13c-0.96,0.2-1.51-0.33-1.93-1.08c-1.33-6.62-1.33-6.66-8.53-6.61
		C53.99,105.5,50.27,105.64,47.15,103.04z"/>
	<path class="st59" d="M47.15,103.04c2-2.7,2.11,1.08,3.46,1.02c2.82-0.14,5.66-0.02,8.49,0.02c9.03,0.11,7.83-1.14,7.95,8
		c-5.79,2.85-11.95,1.27-17.93,1.27c-2.74,0-1.69-3.09-2.26-4.81c-0.32-1.15-0.48-2.29,0.12-3.41
		C47.03,104.43,47.09,103.74,47.15,103.04z"/>
	<path class="st60" d="M46.06,87.08c0-6.33,0-12.66,0-18.99c0-4,0-8,0-12c0.44-3.32-1.01-6.82,0.97-9.99
		c1.63,1.49,1.3,3.5,1.43,5.39c0,11.24,0.02,22.49-0.01,33.73c-0.01,2.13,0.28,4.32-0.76,6.33c-0.39,0.64-0.94,0.81-1.63,0.52
		C46.06,90.41,46.06,88.74,46.06,87.08z"/>
	<path class="st21" d="M46.97,105.12c0.03,0.99,0.07,1.98,0.1,2.97c0.82,1.18,0.4,2.47,0.36,3.73c-0.33,0.5-0.77,0.61-1.3,0.33
		c0,0-0.09-0.08-0.09-0.08C46.43,109.76,45.2,107.24,46.97,105.12z"/>
	<path class="st28" d="M46.07,92.08c0.32,0,0.64-0.01,0.95-0.02c0.58,0.67,0.64,1.38,0.11,2.11c-0.02,1.3-0.04,2.61-0.06,3.91
		C45.25,96.32,46.38,94.08,46.07,92.08z"/>
	<path class="st61" d="M157.98,157.06c1.04-0.07,2.2,0.22,2.89-0.93c3.35-0.02,6.71-0.03,10.06-0.05c0.04,2.12-1.72,1.89-2.99,2.3
		c-1.13,0.25-2.33,0.08-3.39,0.68c-1.96,2.16-1.04,4.79-1.04,7.17c-0.05,151.25-0.04,302.5-0.06,453.75c0,2.31,0.43,4.67-0.47,6.92
		c-1,0-2,0-3,0c-1.46-0.59-2.62-1.32-2.49-3.23c0.1-1.49,0-3,0-4.49c0-151.9,0-303.8,0.02-455.7
		C157.51,161.34,157.11,159.15,157.98,157.06z"/>
	<path class="st62" d="M162.98,626.9c-1.13-1.8-1.01-3.81-1.01-5.81c0.01-152.88,0-305.76,0.06-458.64c0-2.13-1.42-5.47,2.95-5.39
		c1.47,1.61,1.54,3.62,1.6,5.63c0.06,2.16,0.03,4.33,0.03,6.49c0,148.17,0,296.34,0,444.5c0,3.33-0.15,6.66,0.47,9.95
		c0.25,0.55,0.56,1.07,0.92,1.56c0.32,0.56,0.32,1.13-0.01,1.69C166.31,626.89,164.65,626.9,162.98,626.9z"/>
	<path class="st63" d="M157.98,157.06c1.23,1.96,1,4.15,1,6.31c0,152.2-0.01,304.4,0.07,456.59c0,2.28-1.6,4.94,0.93,6.94
		c-1.38-0.14-2.95,0.47-4-1c-1.67-2.42-0.96-5.17-0.96-7.77c-0.04-150.03-0.03-300.06-0.03-450.08c0-3.66-0.08-7.32,0-10.98
		c0,0-0.01-0.01-0.01-0.01C155.98,157.06,156.98,157.06,157.98,157.06z"/>
	<path class="st64" d="M154.99,157.06c1.42,2.29,0.98,4.84,0.98,7.31c0.01,153.84,0.01,307.69,0.01,461.53c-0.33,0-0.67,0-1,0
		c-1.8-1.82-0.96-4.12-0.96-6.18c-0.04-154.22-0.04-308.44-0.04-462.67C154.32,157.06,154.66,157.06,154.99,157.06z"/>
	<path class="st65" d="M167.98,626.89c0-0.33,0-0.65,0-0.98c0.56-0.67,1.32-0.98,2.16-1.12c1.43-0.15,2.77,0.02,3.85,1.11
		c1,0.01,2,0.02,3,0.03C174.15,627.85,170.97,626.5,167.98,626.89z"/>
	<path class="st66" d="M47.1,51.06c-0.02-1.65-0.04-3.3-0.07-4.96c0-4.31,0-8.63,0-12.94c-0.59-1.4-1.11-3.21,0.35-3.91
		c1.1-0.53,1.59,1.22,1.89,2.32c0.49,6.13,0.49,6,6.62,6.2c3.84,0.13,7.47-0.44,11.01-1.87c1,0.68,1.28,1.74,1.48,2.84
		c0.26,1.93,1.07,3.84,0.23,5.81c-1.15,2.49-3.4,2.92-5.76,2.91c-4.1-0.02-8.18,0.32-12.25,0.47c-0.46,0.46-0.97-1.72-1.37,0.01
		c-0.24,1.05-0.13,2.18-0.85,3.11C47.95,51.36,47.53,51.38,47.1,51.06z"/>
	<path class="st67" d="M48.06,32.1c-0.13-0.71,0.3-1.59-0.84-2.22c-0.07,1.18-0.13,2.23-0.19,3.27c-0.32-0.03-0.63-0.07-0.95-0.11
		c-0.01-3.64-0.03-7.27-0.04-10.9c0.2-1.03-0.39-2.2,0.83-3.37c0.07,1.62,0.13,2.97,0.19,4.32c4.54,1.11,9.16,0.3,13.73,0.53
		c5.52,0.27,5.99,0.75,5.78,6.49c-0.61,1.04-1.52,1.85-2.68,1.94C58.63,32.48,53.34,33.67,48.06,32.1z"/>
	<path class="st68" d="M64.99,138.06c-6.91-1.92-13.99-0.1-20.95-1.01c0.32-3,0.64-5.99,0.96-8.99c0.36-2.33,0.73-4.65,1.09-6.98
		c3.36,5.76,9.02,4.42,14.18,4.56c3.02,0.08,5.63,0.59,5.75,4.41C65.68,132.72,65.33,135.39,64.99,138.06z"/>
	<path class="st69" d="M66.02,130.05c-1.14-2.21-2.71-3.48-5.44-3.03c-1.61,0.27-3.33-0.12-4.95,0.08
		c-4.88,0.62-9.05,0.28-9.53-6.01c0.02-1.02,0.05-2.04,0.07-3.06c1.1-1.19-0.52-3.25,1.33-4.2c2.71,6.77,8.27,6.26,13.95,5.46
		c2.16-0.31,4.33-0.6,5.89,1.5c0.35,0.82,0.33,1.59-0.25,2.3C66.72,125.41,66.37,127.73,66.02,130.05z"/>
	<path class="st59" d="M47.07,114.08c-0.15,1.35,0.43,2.87-0.91,3.95c-0.01-1.96-0.02-3.93-0.02-5.89c0.29-0.06,0.59-0.12,0.88-0.17
		C47.61,112.66,47.68,113.36,47.07,114.08z"/>
	<path class="st70" d="M67.08,123.09c-0.01-0.67-0.03-1.35-0.04-2.02c-1.5-2.89-0.77-5.51,0.96-8.02c0.36-2.32,0.72-4.64,1.08-6.95
		c2.84,0.5,1.9,2.97,2.38,4.67c0.43,1.55,1.02,2.96,2.85,2.84c1.67-0.11,1.84-1.67,2.13-2.95c0.22-0.97,0.23-1.98,0.47-2.94
		c0.27-1.07,0.34-2.66,1.8-2.49c1.29,0.15,1.36,1.68,1.57,2.82c0.09,1.02,0.08,2.04-0.02,3.06c-0.53,2.52-1.1,5.04-0.9,7.65
		c-0.01,1.04,0.01,2.08-0.05,3.12c-0.06,1.06-0.23,2.1-0.84,3.01c-0.4,0.45-0.87,0.53-1.4,0.25c-0.03-0.16-0.03-0.33-0.08-0.48
		c-0.17-0.49-0.88-0.71-0.83-0.27c0.63,5.18-2.71,5.08-6.13,4.6C66.39,128.47,69.31,124.44,67.08,123.09z"/>
	<path class="st71" d="M77.07,125.13c0.32-0.04,0.63-0.08,0.95-0.1c1.06,0.78,1.27,1.96,1.45,3.15c0.06,1.49-0.32,2.83-1.43,3.89
		c-0.65,1.01,1.54,3.85-1.95,3.01C76.42,131.76,76.74,128.45,77.07,125.13z"/>
	<path class="st35" d="M173.98,625.9c-1.33,0-2.67,0-4,0.01c0.66-3.95,0.5-7.93,0.5-11.9c0-149.69,0-299.38,0.04-449.08
		c0-3.3-1.16-7.27,3.45-8.87c1.4,0.17,2,0.99,1.99,2.37c-0.02,1.5,0.01,3,0.01,4.49c0,153.99,0,307.99,0,461.98
		C175.15,624.93,174.41,625.1,173.98,625.9z"/>
	<path class="st72" d="M260.88,109.01c-0.31,0.05-0.63,0.09-0.94,0.12c-1.19,3.49-4.16,3.38-6.99,3.3c-4.35-0.12-2.76-4.1-3.95-6.3
		c-0.14-0.5-0.22-0.99-0.28-1.5c-0.35-3.24,1.01-6.34,0.78-9.56c0.11-1.63-0.05-3.26,0.03-4.89c0.18-1.57,0.09-3.24,1.67-4.26
		c1.92,0.08,1.54,2.14,2.58,2.97c3.92,0.81,5.83-0.57,5.95-4.75c0.05-1.77-1.23-4.81,2.57-4.78c0.52,1.02,0.32,1.94-0.37,2.8
		c-0.02,5.29-0.04,10.58-0.06,15.87C259.92,101.54,261.36,105.37,260.88,109.01z"/>
	<path class="st73" d="M261.95,82.16c-0.01-1.02-0.03-2.05-0.04-3.07c-2.31-5.56-1.86-11.17-0.31-16.8c2.13,1.4,3.27,3.79,2.53,7.15
		c-0.79,3.61-0.67,7.21-0.73,10.82c0.05,0.65-0.12,1.23-0.52,1.75C262.56,82.06,262.25,82.1,261.95,82.16z"/>
	<path class="st74" d="M262.87,82.02c-0.01-0.31,0.01-0.63,0.04-0.94c0.33-0.46,0.66-0.44,0.99,0c0,0,0,0,0,0
		c-0.39,2.32,0.92,4.88-0.99,6.98C262.9,86.05,262.89,84.04,262.87,82.02z"/>
	<path class="st75" d="M249.96,106.08c2.49,0.75-1.46,5.83,3.72,5.16c3.48-0.45,6.59-0.24,4.95-5.55c1.84,1.16,1.04,2.43,1.31,3.44
		c-0.02,2.96-0.04,5.92-0.05,8.89c-1.87,2.47-0.61,5.34-1,8c-0.32,0.03-0.64,0.06-0.95,0.1c-0.05-0.64-0.11-1.27-0.16-1.91
		c-0.08,4.82-3.16,5.34-6.85,4.79c-3.69-0.55-0.73-4.56-2.95-5.92c-0.68-0.55-0.94-1.3-1.03-2.13c0.17-2.39,0.83-4.73,0.64-7.16
		C247.85,111.05,247.95,108.26,249.96,106.08z"/>
	<path class="st76" d="M257.91,32.1c0.35-0.01,0.71-0.01,1.06-0.02c0.28,0.02,0.57,0.04,0.85,0.06c0.74,2.96-0.84,6.18,1.02,9.01
		c0.32,0.46,0.28,0.88-0.13,1.26c-0.49,0.18-0.99,0.19-1.49,0.01c-0.7-0.43-1.08-1.08-1.31-1.85
		C257.7,37.74,256.98,34.92,257.91,32.1z"/>
	<path class="st77" d="M260.82,42.1c0.04-0.32,0.05-0.63,0.02-0.95c0.26-7.36,5.54-6.2,10.24-6.05c1.32,0.04,2.65,0.01,3.97,0.01
		c8.84,0,8.84,0,8.84,9c-4.67-1.17-9.43-1.04-14.19-1.01c-6.79,0.04-6.79,0.01-6.79,7.01c0.93,1.21,0.98,2.3-0.43,3.2
		c-0.56,0-0.96-0.25-1.22-0.74c-0.8-1.9-0.57-4.03-1.3-5.95C259.63,44.98,259.71,43.44,260.82,42.1z"/>
	<path class="st46" d="M262,53.06c1.1-0.74,0.87-1.9,0.91-2.96c7.13,1.57,14.26,1.43,21.98,0.03c0,2.52,0,5.24,0,7.96
		c-4.96,0-9.97,0.43-14.87-0.12c-5.15-0.58-7.13,1.01-6.11,6.12c1.55,2.67,2.14,5.33,0,8c0,3,0,6,0,8.99c0,0-0.5,0-0.5,0
		s-0.5,0-0.5,0c-0.54-6.36,1-12.82-0.95-19.11c-0.76-0.57-1.07-1.38-1.24-2.27C260.67,57.4,260,54.97,262,53.06z"/>
	<path class="st74" d="M263.91,72.09c0-2.67,0-5.33,0-8c4.97,3.31,10.62,2.17,15.9,1.82c5.17-0.34,7.1,1.1,6.08,6.17
		C278.56,75.42,271.24,75.01,263.91,72.09z"/>
	<path class="st69" d="M247.91,121.07c0.02,0.67,0.04,1.34,0.06,2c-0.36,2.33-0.72,4.65-1.07,6.98c-1.59,0.17-1.95-1.18-2.64-2.13
		c-2.69-1.85-5.77-1.22-8.68-1.22c-49.03-0.04-98.06-0.03-147.09-0.04c-2.81,0-5.66,0.28-8.41-0.64c-1.99-0.63-1.12-2.73-2-3.93
		c0.01-1,0.02-2,0.03-3c1.2-0.59,2.46-0.42,3.72-0.32c3.45,0.62,6.93,0.72,10.43,0.72c47.52-0.01,95.04-0.02,142.56,0.02
		c3.65,0,7.29-0.58,10.94-0.28C246.8,119.45,247.42,120.19,247.91,121.07z"/>
	<path class="st37" d="M245.92,128.07c0.02,0.81,0.18,1.55,0.98,1.99c-1.16,2.22-0.37,4.71-0.99,7c-0.58-4.62-3.47-5.09-7.58-5.08
		c-53.43,0.15-106.85,0.1-160.28,0.1c-0.16-1.46,0.32-2.75,1-4c0.26-0.21,0.51-0.41,0.77-0.62c3.3-1.14,6.6,0.04,9.91,0.04
		c50.63-0.13,101.25,0.15,151.88-0.17C243.09,127.3,244.61,127.08,245.92,128.07z"/>
	<path class="st49" d="M245.91,18.11c-2.26,4.35-6.43,3.96-10.3,3.97c-44.78,0.04-89.56,0.03-134.34,0.03
		c-4.99,0-9.99-0.03-14.98,0.01c-3.19,0.02-5.75-1.01-7.26-4c0-0.33,0-0.67,0-1c53.73,0,107.47-0.01,161.2,0.03
		C242.14,17.14,244.27,16.37,245.91,18.11z"/>
	<path class="st78" d="M66.05,30.1c0.54-3.73-0.73-5.47-4.82-5.07c-3.42,0.34-6.9,0.1-10.35,0.06c-1.57-0.02-3.47,0.45-3.81-1.99
		c3.62-1.86,7.51-0.93,11.25-0.91c2.89,0.02,5.18-0.52,6.73-3.08c0.15,1.39-0.48,2.98,1.06,4c1.45,1.01,0.88,2.53,0.99,3.88
		c1.05,1.6,1.4,3.23,0.25,4.94C65.42,32.38,65.51,31.4,66.05,30.1z"/>
	<path class="st79" d="M69.05,29.1c1.08-0.31,2.42-1.2,3.18-0.85c3.56,1.68,4.76-0.4,5.73-3.15c2,1.83,1.04,4.42,1.71,6.61
		c0.07,0.54,0.05,1.08-0.03,1.62c-0.36,1.36-0.71,2.72-2.07,3.48c-2.56,0.88-5.09,1.02-7.56-0.32
		C68.49,34.18,67.86,31.76,69.05,29.1z"/>
	<path class="st80" d="M69.05,29.1c0.57,2.3,1.31,4.57,1,7c1.2,1.94,1.87,3.8-0.73,5.21c-1.99-1.4-0.78-3.87-1.86-5.58
		c-0.82-2.88,0.3-5.65,0.5-8.47c0.08-1.06,0.15-2.12,0.23-3.17c0.29,0.01,0.57,0.02,0.86,0.02C69.05,25.77,69.05,27.44,69.05,29.1z"
		/>
	<path class="st49" d="M78.94,32.14c-1.74-2.15-0.28-4.74-0.98-7.04c0.06-0.34,0.12-0.67,0.17-1.01c0.3,0,0.6,0.01,0.9,0.01
		c0.33,0.33,0.67,0.67,1,1c0.33,0.36,0.61,0.77,0.83,1.21c0.24,0.72,0.33,1.46,0.34,2.21c-0.01,1.28-0.08,2.55-0.91,3.63
		C79.85,32.52,79.4,32.51,78.94,32.14z"/>
	<path class="st67" d="M67.96,27.26c0.03,2.95,0.05,5.89,0.08,8.84c0.35,1.23,1.49,2.72-1,3c0-1,0-2,0-2.99
		c-1.15-1.34-1.14-2.67,0-4c0.02-1.7,0.03-3.41,0.05-5.11C67.38,27.08,67.67,27.17,67.96,27.26z"/>
	<path class="st38" d="M80.04,32.1c0-1.33,0-2.66,0-4c18.24,1.11,36.5,0.43,54.76,0.49c30.26,0.11,60.52,0.05,90.79,0.01
		c7.11-0.01,14.24,0.29,21.33-0.5c-0.35,2.11,0.68,4,1,6c-0.51,0.43-1.07,0.78-1.69,1.04c-2.26,0.76-4.61,0.56-6.93,0.56
		c-49.94,0.02-99.89,0.02-149.83,0c-2.49,0-5,0.19-7.44-0.59C80.66,34.58,79.86,33.66,80.04,32.1z"/>
	<path class="st81" d="M246.92,34.1c0.33,0,0.66,0,1,0c0.06,1.35,0.13,2.7,0.21,4.36c1.17-1.24,0.62-2.41,0.84-3.45
		c0.58-0.24,1.06-0.11,1.44,0.38c0.92,1.5,0.79,3.19,0.87,4.84c-0.02,1.66,0,3.32,0,4.98c-0.24,1.89,0.4,4.16-2.13,5.08
		c-0.82-0.47-1.15-1.26-1.36-2.12c-0.39-1.37-0.06-2.87-0.76-4.19c-1.97-1.76-4.4-1.29-6.66-1.28c-39.27,0.06-78.53-0.17-117.8,0.08
		c-10.48,0.07-20.96-0.13-31.44-0.08c-2.42,0.01-5.03-0.5-7.1,1.39c-0.69,1.31-0.42,2.76-0.59,4.15c-0.25,1.89,0.35,4.17-2.22,5.04
		c-1.57-1.19-1.38-2.94-1.49-4.6c0.01-1.86,0.03-3.73-0.35-5.58c-0.06-0.56-0.04-1.11,0.03-1.66c0.92-2.13-0.88-5.37,2.61-6.46
		c2.76,1.46,5.77,1.51,8.76,1.51c48.93,0.02,97.85,0.03,146.78-0.02C240.82,36.47,244.29,36.83,246.92,34.1z"/>
	<path class="st82" d="M246.92,28.1c-1.88,1.51-3.96,2.05-6.43,2.05c-51.34-0.07-102.68-0.07-154.02,0c-2.47,0-4.55-0.54-6.43-2.05
		c0-0.67,0-1.33,0-2c53.04,0.02,106.08,0.01,159.12-0.02c2.27,0,4.69,0.61,6.76-0.98C247.1,25.82,246.89,27,246.92,28.1z"/>
	<path class="st83" d="M245.92,25.1c-0.81,3.29-3.5,1.93-5.37,1.94c-32.29,0.08-64.58,0.06-96.87,0.06c-19.11,0-38.23,0-57.34,0
		c-2.16,0-4.35,0.23-6.31-1c0-0.33,0-0.67,0-1C135.33,25.1,190.63,25.1,245.92,25.1z"/>
	<path class="st84" d="M249.96,45c0.02-1.65,0.04-3.31,0.05-4.96c0.41-1.62,0.98-3.24-0.17-4.81c-0.3-0.05-0.6-0.12-0.89-0.21
		c-0.04-1.29-0.08-2.58-0.12-3.87c0.1-0.82,0.28-1.59,1.08-2.04c2.66-0.88,5.33,0.49,7.99,0c0,1,0,2,0,3c1.67,2.85,0.77,5.99,1,9
		c-1.82,1.58-4.02,1.66-6.25,1.61c-0.35-0.09-0.57-0.52-0.7-0.52c-0.48-0.03-0.19,0.41-0.18,0.6c0.05,0.84-0.1,1.62-0.6,2.31
		C250.75,45.4,250.34,45.39,249.96,45z"/>
	<path class="st85" d="M249.92,29.1c-0.02,0.86-0.24,1.61-1.08,2.04c-1.18-0.82-0.93-1.98-0.72-3.12c1.39-0.96,0.23-2.79,1.8-4.42
		C249.92,25.81,249.92,27.45,249.92,29.1z"/>
	<path class="st34" d="M173.97,156.06c-2.53,1.71-1.99,4.34-1.99,6.78c-0.01,61.31-0.01,122.61-0.01,183.92
		c0,90.79,0,181.58-0.01,272.38c0,2.44,0.54,5.07-1.99,6.78c-0.67,0-1.33,0-2,0h0c-0.83-1.55-0.67-3.23-0.67-4.89
		c0.06-153.02,0.05-306.05,0-459.07c0-1.66-0.16-3.34,0.67-4.89c1.08-0.05,2.25,0.19,2.96-0.98
		C171.95,156.07,172.96,156.07,173.97,156.06z"/>
	<path class="st86" d="M79.04,108.08c-0.06-0.63-0.11-1.26-0.17-1.89c-0.19-0.02-0.39-0.05-0.58-0.07
		c-0.18,1.79,0.11,3.81-0.66,5.29c-0.72,1.38,0.79,4.59-2.77,4.07c-2.79-0.41-5.2-1.02-4.86-4.75c0.14-1.55,0.6-3.34-0.92-4.63
		c-0.02-1.01-0.03-2.02-0.05-3.03c-0.57-4.26-0.16-8.55-0.43-12.82c0.32-1.9-0.28-4.15,1.96-5.35c1.84,0.72,1.71,2.56,2.29,4
		c0.08,0.31,0.08,0.66,0.19,0.97c0.63,1.88-1.52,4.56,1.39,5.73c3.11,1.24,3.34-2.4,5.09-3.87c2.28,2.32,1.68,4.91,1.9,7.29
		C80.63,102.03,83.36,105.98,79.04,108.08z"/>
	<path class="st87" d="M70.03,90.07c0.43,4.39-0.51,8.68-1,13c-2.31-2.03,0.65-6.06-2.5-7.45c-3.04-1.35-6.49-0.38-9.76-0.51
		c-2.57-0.1-5.14-0.02-7.71-0.02c-1.26-2.24-1.2-4.58-0.59-6.98c1.61-2.48,4.21-2.4,6.68-2.42c4.48-0.04,8.96,0.02,13.38-0.91
		C70.69,86.06,68.63,88.55,70.03,90.07z"/>
	<path class="st88" d="M67.99,113.05c0.55,2.78-0.85,5.32-0.96,8.02c-2.72-2.11-5.44-0.05-8.14,0.04c-8.63,0.3-9.26,0-11.82-7.03
		c-0.02-0.7-0.04-1.4-0.05-2.11c0.02-1.3,0.04-2.6,0.06-3.89c0.74,3.37,2.42,4.63,6.19,4.13c4.52-0.6,9.18-0.14,13.78-0.14
		C67.36,112.4,67.68,112.72,67.99,113.05z"/>
	<path class="st89" d="M47.1,51.06c0.31,0.04,0.62,0.06,0.94,0.08c1.61,1.48,1.3,3.47,1.44,5.35c-0.04,9.13,0.02,18.25-0.01,27.38
		c-0.66,3.35-0.73,6.79-1.44,10.14c-0.3,0.04-0.6,0.09-0.89,0.16c-0.03-0.7-0.07-1.4-0.11-2.11C47.05,78.39,47.07,64.72,47.1,51.06z
		"/>
	<path class="st90" d="M48.02,94c0.02-3.31,0.04-6.62,0.06-9.93c0.53-0.32,1-0.24,1.39,0.24c0.75,1.35,0.42,2.58-0.41,3.77
		c0,2.33,0,4.67,0,7C48.71,94.72,48.36,94.36,48.02,94z"/>
	<path class="st65" d="M167.98,157.06c1.12,1.8,1.01,3.81,1.01,5.81c-0.01,152.41-0.01,304.82,0,457.23c0,2,0.11,4.01-1.01,5.81
		c-2.05,0.13-3.13-0.7-3.01-2.89c0.08-1.49,0.01-3,0.01-4.49c0-153.82,0-307.64,0-461.46C165.98,157.06,166.98,157.06,167.98,157.06
		z"/>
	<path class="st91" d="M49.06,47.09c4.52-1.16,9.14-1.15,13.75-0.96c2.13,0.09,3.89-0.32,5.23-2.03c1.29,1.27,0.1,2.85,0.53,4.18
		c0.2-0.86-0.44-2.17,1.15-2.46c0.54,0.2,0.91,0.56,1.15,1.07c1.21,4.04,0.31,8.17,0.57,12.25c-0.01,2.08,0.09,4.17-0.1,6.24
		c-0.14,1.5,0.06,3.34-2.18,3.64c-2.44-2.55-1.25-5.75-1.58-8.68c0.14-3.32-1.36-4.91-4.76-4.77c-2.32,0.1-4.66,0-6.99,0.01
		C47.72,55.62,47.72,55.62,49.06,47.09z"/>
	<path class="st92" d="M49.06,47.09c0,7,0,7,7.13,7c2.32,0,4.68,0.26,6.96-0.05c4.87-0.66,6.71,1.33,5.89,6.06
		c-1.31,2.88-3.81,3.43-6.61,3.4c-4.47-0.05-8.93,0.03-13.34,0.82c-1.37-2.61,0.34-5.6-1.02-8.2c-0.01-1.66-0.02-3.31-0.04-4.97
		C48.57,49.84,46.89,47.98,49.06,47.09z"/>
	<path class="st93" d="M67.05,32.1c0,1.33,0,2.67,0,4c-1.54,2.54-3.8,3.36-6.7,3.03c-1.79-0.2-3.63-0.04-5.45-0.04
		c-6.83,0-6.83,0-6.83-7c5.85-1.99,12.16,0.2,17.99-2C66.07,30.92,66.24,31.67,67.05,32.1z"/>
	<path class="st93" d="M69.1,45.99c-0.24,1.03,0.36,2.22-1.06,3.57c0-2.13,0-3.79,0-5.46c-0.33-1.67-0.66-3.33-0.99-5
		c1.17-0.72,0.96-1.9,1-3c1.55,1.39,0.69,3.31,1.09,4.95C70.5,42.71,70.39,44.35,69.1,45.99z"/>
	<path class="st94" d="M79.04,108.08c1.96-3.15,0.61-6.64,1.02-9.94c0.37-0.36,0.76-0.41,1.19-0.12c0.07,2.89,2.06,1.28,3.33,1.4
		c52.7,0.15,105.38,0.03,158.06,0.04c6.3,0,6.3-0.02,7.23,5.59c0.03,0.34,0.06,0.69,0.09,1.03c-0.36,2.66-0.72,5.32-1.08,7.98
		c-1.14,0.15-1.61-0.66-2.11-1.44c-1.61-2.82-4.38-1.94-6.72-1.94c-48.24-0.04-96.49-0.07-144.73,0.01
		c-4.91,0.01-9.99-1.08-14.71,1.44c-0.53,0.28-1.16-0.46-1.51-1.04C79.08,110.08,79.06,109.08,79.04,108.08z"/>
	<path class="st39" d="M79.1,111.09c4.56-3.53,9.86-1.93,14.83-1.94c50.44-0.13,100.89-0.03,151.33-0.24c4.4-0.02,2,2.67,2.66,4.17
		c-2.05,2.08-4.68,1.38-7.1,1.38c-50.4,0.04-100.8,0.02-151.19,0.06c-2.43,0-5.02-0.65-7.22,1.02c-0.85,1.48-1.16,3.24-2.37,4.53
		c-0.65-0.33-1.29-0.66-1.94-0.99C77.76,116.33,78.2,113.68,79.1,111.09z"/>
	<path class="st88" d="M78.07,122.08c1.15,0.72,0.93,1.9,0.97,2.98c0.81,1,0.81,2,0,3c0,0,0,0,0,0c-1.18-0.73-0.95-1.93-1.02-3.04
		C78.04,124.05,78.05,123.07,78.07,122.08z"/>
	<path class="st95" d="M249.88,105.05c-0.65-3.63-2.68-4.13-6.3-4.11c-52.08,0.2-104.16,0.14-156.23,0.15
		c-1.85,0-3.66-0.02-5.31-1.01c-0.78-1.81-1.04-3.71-0.87-5.67c0.48-2.6,2.42-3.37,4.68-3.72c1.65-0.25,3.31-0.22,4.97-0.22
		c49.83-0.01,99.66-0.01,149.5,0.01c4.14,0,8.54-0.44,10.54,4.57C250.53,98.38,250.2,101.72,249.88,105.05z"/>
	<path class="st96" d="M251.87,85.98c-1.29,1.14-0.77,2.7-0.96,4.09c-2.52-0.2-1.94-2.27-2.3-3.78c-0.1-1.39-0.01-2.78-0.06-4.18
		c-0.04-1.14,0.05-2.28-0.06-3.42c0-0.9,0.01-1.79-0.08-2.69c-0.02-3.1-1.52-4.48-4.67-4.37c-3.99,0.14-7.99,0.04-11.98,0.04
		c-46.26,0-92.52,0.02-138.78-0.03c-3.75,0-7.81,0.62-10.47-3.18c-1.01-2.61-1.33-5.18,0.48-7.61c3.26-1.03,6.6-0.35,9.9-0.36
		c51.35-0.11,102.7,0.09,154.05-0.12c0.67,0,1.33,0.04,1.98,0.14c2.06,0.78,1.64,2.25,1.02,4.07c1.5-2.25-1.07-4.92,1.19-6.74
		c0.68-0.04,1.17,0.24,1.49,0.84c1.37,8.38,0.66,16.79,0.44,25.19C253.02,84.72,252.52,85.42,251.87,85.98z"/>
	<path class="st97" d="M249.92,86.08c0.15,1.38-0.46,2.94,0.99,3.99c-0.02,1.66-0.04,3.32-0.06,4.98c-2.38-2.32-5.12-3.06-8.52-3.05
		c-51.35,0.11-102.7,0.07-154.05,0.12c-2.42,0-5.67-1.17-6.25,2.96c-0.59,0.35-1.06,0.23-1.4-0.37c0.16-2.07-1.05-3.91-0.99-5.96
		c0.6-3.3-1.48-7.17,2.05-9.86c1.5,0.83,1.53,2.31,1.64,3.74c0.24,1.82-1.02,3.4-0.83,5.22c-0.17,0.64,1.14,0.2,0.48,0.08
		c-0.15-0.03-0.17-0.11-0.2-0.2c-0.52-1.46,0.33-2.03,1.54-2.39c51.6,0.33,103.19,0.02,154.78,0.19
		C242.7,85.53,246.4,84.39,249.92,86.08z"/>
	<path class="st98" d="M261.96,60.09c0,0.63,0,1.26,0.01,1.88c-0.02,5.71-0.04,11.41-0.06,17.12c-1.24,0.95-0.95,2.33-0.99,3.61
		c-0.26,7.6-0.25,7.61-7.42,8.56c-0.14,0.02-0.38-0.77-0.57-1.18c-1.09-5.37-0.19-10.79-0.48-16.18c3.34-2.89,4.68-2.78,7.65,0.79
		c0.02-1.77-0.79-3.31-0.55-4.94c0.09-3.14-0.61-6.35,0.9-9.35C260.85,59.86,261.36,59.76,261.96,60.09z"/>
	<path class="st99" d="M252.92,73.09c0,5.66,0,11.33,0,16.99c-1.49-1.07-0.82-2.7-1.05-4.1c0-9.26,0-18.53,0-27.79
		c-0.94-1.28-1.18-2.59-0.25-3.99c0.52-0.4,1.05-0.41,1.59-0.05c0.6,0.7,0.86,1.53,0.98,2.42c0.3,4.11,0.21,8.23,0.11,12.34
		C254.32,70.47,253.98,71.9,252.92,73.09z"/>
	<path class="st100" d="M80.04,115.07c1.37-2.8,3.96-1.97,6.17-1.97c53.9-0.03,107.81-0.03,161.71-0.02
		c0.32,0.33,0.65,0.66,0.97,0.99c0.33,2.43-0.39,4.71-0.97,7.01c-0.33-0.33-0.66-0.66-1-1c-2.8-3.32-6.65-3.38-10.52-3.38
		c-25.29-0.01-50.58,0-75.87,0c-24.12,0-48.25,0.02-72.37-0.02C85.38,116.66,82.45,117.12,80.04,115.07z"/>
	<path class="st101" d="M252.92,56.09c0-0.67,0-1.33,0-2c-3.41-3.74-1.8-7.9-1-12c2.3-0.57,4.57-1.31,6.99-1
		c0.33,0.33,0.67,0.67,1,1c0.64,3.82,1.37,7.64,0.75,11.55C258.74,56.55,256.17,57.39,252.92,56.09z"/>
	<path class="st102" d="M259.91,54.09c0-4,0-8,0-12c0.3,0,0.61,0,0.91,0c0.04,1.63,0.09,3.26,0.13,4.89c1.1,1.92-0.21,4.18,0.86,6.1
		c0,0,0.19-0.03,0.19-0.03c-0.02,2.34-0.03,4.69-0.05,7.03c-0.35,0-0.7,0-1.04,0C259.27,58.31,259.29,56.25,259.91,54.09z"/>
	<path class="st101" d="M261.82,53.09c-1.65-1.84-0.64-4.06-0.86-6.1C262.48,48.85,261.71,51.03,261.82,53.09z"/>
	<path class="st88" d="M80.04,115.07c52.9,0,105.8-0.03,158.71,0.06c3.45,0.01,8.29-1.38,8.17,4.94c-4.88,1.26-9.86,1-14.83,1
		c-45.74,0-91.48,0-137.22,0c-4.97,0-9.95,0.25-14.83-1C80.04,118.4,80.04,116.74,80.04,115.07z"/>
	<path class="st71" d="M79.04,128.07c0-1,0-2,0-3c53.84,0,107.67-0.01,161.51,0.05c2.13,0,5.45-1.4,5.38,2.95
		c-2.56,0.76-5.15,1.03-7.84,1.03c-49.73-0.04-99.46-0.07-149.2,0.04C85.51,129.15,82.37,127.92,79.04,128.07z"/>
	<path class="st103" d="M69.1,45.99c0.01-1.65,0.02-3.29,0.04-4.94c1.54-1.42,0.67-3.29,0.91-4.95c2.66,0,5.32,0,7.99,0
		c2,4.28,1.91,8.83,1.7,13.39c-5.1,2.57-8.3,1.28-9.07-3.66c0-0.01-0.27-0.04-0.37,0.03c-0.13,0.08-0.21,0.24-0.31,0.37
		C69.69,46.16,69.39,46.08,69.1,45.99z"/>
	<path class="st104" d="M79.04,50.09c-0.33-4.66-0.67-9.33-1-13.99c0.04-1.08-0.17-2.23,0.9-2.99c1.72,2.8,1.92,5.81,1.2,8.94
		c0.01,0.37,0.02,0.73,0.03,1.1c0.71,1.71,0.23,3.51,0.37,5.27c-0.15,1.86,0.36,3.83-0.68,6.13C77.99,52.92,77.98,51.6,79.04,50.09z
		"/>
	<path class="st82" d="M80.13,42.04c-0.4-2.98-0.8-5.96-1.19-8.94c0.06-0.32,0.06-0.64,0.01-0.97c0.36-0.01,0.73-0.03,1.09-0.04
		c0.33,0.67,0.67,1.33,1,2c0.35,0.22,0.46,0.44,0.35,0.67c-0.12,0.22-0.23,0.33-0.35,0.33C80.67,37.41,81.9,39.92,80.13,42.04z"/>
	<path class="st93" d="M81.04,35.1c0-0.33,0-0.67,0-1c55.29,0,110.59,0,165.88,0c0.26,2.6-1.39,3.57-3.54,3.89
		c-1.3,0.2-2.65,0.1-3.98,0.1c-50.37,0-100.74-0.01-151.11,0.04C85.32,38.14,82.67,38.01,81.04,35.1z"/>
	<path class="st91" d="M82.07,83.05c-0.02-1.34-0.04-2.67-0.07-4.01c-0.91-0.83-1.31-1.94-1.24-3.09
		c0.38-6.23-1.31-12.34-1.13-18.55c-0.05-1.62,0.54-3.02,1.47-4.31c1.56-1.43,0.7-3.31,0.93-4.99c1.15-0.88,2.48-0.8,3.82-0.79
		c50.75,0.38,101.5,0.03,152.25,0.22c3.59,0.01,7.29-1.13,10.81,0.57c0,0.67,0,1.33,0,2c1.82,1.78,2.84,3.62,0.45,5.74
		c-2.86,1.25-5.9,0.86-8.87,0.86c-49.28,0.03-98.57,0.04-147.85-0.02c-4.02-0.01-7.68,0.18-9.61,4.43c0,2.33,0,4.67,0,7
		c1.53,2.22,1.43,4.75,1.4,7.27c-0.03,1.06-0.08,2.13-0.09,3.19c-0.03,1.03-0.08,2.06-0.3,3.08c-0.12,0.5-0.34,0.96-0.65,1.37
		C82.97,83.41,82.53,83.42,82.07,83.05z"/>
	<path class="st41" d="M248.92,48.09c-2.56,0.76-5.15,1.03-7.84,1.03c-50.4-0.04-100.8-0.04-151.2,0c-2.69,0-5.28-0.27-7.84-1.03
		c0-1.33,0-2.67,0-4c1.55-0.83,3.23-0.66,4.88-0.65c52.37,0.07,104.74,0.05,157.11,0c1.66,0,3.34-0.18,4.88,0.66
		C248.92,45.43,248.92,46.76,248.92,48.09z"/>
	<path class="st105" d="M248.92,44.1c-1.8,1.12-3.81,1-5.81,1c-51.76-0.01-103.51-0.01-155.27,0c-2,0-4.01,0.11-5.81-1
		c0.45-3.82,3.41-2.97,5.76-2.98c23.11-0.04,46.22-0.02,69.33-0.02c28.97,0,57.93-0.01,86.9,0.03
		C246.15,41.13,249.1,40.14,248.92,44.1z"/>
	<path class="st106" d="M81.11,53.09c-0.04,1.34-0.07,2.69-0.11,4.03c-1.13,3.12-0.05,6.35-0.46,9.5c-2.97,1.41-5.78-0.41-8.67-0.44
		c-1.94-3.09-0.03-6.37-0.3-8.98c0.08,0.26-0.03,1.07-0.28,1.87c-0.42,0.33-0.82,0.3-1.19-0.07c-0.03-4.26-0.07-8.52-0.1-12.78
		c0.05-0.96,0.1-1.92,0.15-2.88c-0.79,7.26,5.26,5.44,8.89,6.76c0.09,1.02,0.19,2.05,0.28,3.07c0.26-0.02,0.52-0.05,0.78-0.07
		c0-1.71,0-3.42,0-5.13c0.4-0.3,0.7-0.22,0.89,0.24C81.03,49.83,81.07,51.46,81.11,53.09z"/>
	<path class="st41" d="M249.92,55.09c-0.33-1.67-0.66-3.33-1-5c1.69-1.42,0.72-3.39,1.04-5.1c0.29,0.1,0.59,0.18,0.89,0.24
		c1.17,2.15,0.07,4.6,0.91,6.79c-0.37,1.98-0.06,4.05-0.8,5.98c0,2.31,0,4.61,0,7.59c-1.56-1.75-0.79-3.23-1.05-4.5
		C248.17,59.09,248.45,57.09,249.92,55.09z"/>
	<path class="st107" d="M249.85,35.22c0.25-0.37,0.66-1.62,0.83-0.83c0.39,1.81,0.93,3.94-0.66,5.64
		C249.96,38.43,249.9,36.83,249.85,35.22z"/>
	<path class="st105" d="M80.99,48.2c-0.3-0.07-0.6-0.15-0.89-0.24c0.02-1.61,0.04-3.21,0.05-4.82C81.66,44.63,80.83,46.5,80.99,48.2
		z"/>
	<path class="st108" d="M251.02,52.13c-0.05-2.3-0.11-4.6-0.16-6.9c0.63-0.95-0.98-2.67,1.06-3.13c-0.2,4.04,0.07,8.05,1,12
		c-0.33,0-0.66,0-1,0C251.21,53.63,251.61,52.65,251.02,52.13z"/>
	<path class="st109" d="M81,89.06c0.02,2.01,0.04,4.02,0.06,6.02c0.65,0.99,0.68,1.97-0.06,2.94c-0.31,0.03-0.63,0.07-0.94,0.12
		c0-1.62,0-3.24,0-5.81c-1.71,2.22,0.29,5.51-4.4,5.15c-8.2-0.62-2.49-5.66-3.62-8.4c-0.22-2.91-1.92-5.71-0.63-8.73
		c4.17-3.22,5.48-3.14,8.85,0.54C81.06,83.56,79.84,86.41,81,89.06z"/>
	<path class="st110" d="M70.09,59c0.3,0.09,0.6,0.15,0.9,0.2c1.51,8.59,2.27,17.19,0,25.78c-1.47,1.48-0.68,3.39-0.97,5.09
		c-1.65-1.4-0.74-3.31-0.99-4.98c-1.83-1.97-1.35-4.41-1.4-6.74c0.12-2.89-0.46-5.84,0.79-8.63c0.2-0.21,0.41-0.42,0.61-0.63
		C71.09,65.9,69.54,62.34,70.09,59z"/>
	<path class="st111" d="M71,84.98c0-8.59,0-17.19,0-25.78c0-1.28,0-2.57,0-3.85c0.35-0.01,0.7-0.02,1.05-0.03c0,3.59,0,7.19,0,10.78
		c2.47,4.67,2.25,9.33,0,14c0,3,0,6,0,9C70.56,88,71.22,86.38,71,84.98z"/>
	<path class="st65" d="M69.04,78.08c0,2.33,0,4.67,0,7c-2.23,2.18-5.03,1.92-7.83,2.05c-4.05,0.18-8.23-0.97-12.15,0.95
		c0-1.33,0-2.67,0-4c-0.73-1.78-0.76-3.56,0.05-5.32C55.7,76.93,62.35,76.99,69.04,78.08z"/>
	<path class="st112" d="M49.06,79.08c0,1.67,0,3.33,0,5c-0.33,0-0.66,0-0.98,0c0-9.32,0-18.65,0-27.97
		c1.97,2.46,0.55,5.33,0.99,7.98c1.73,1.74,1.36,3.98,1.43,6.11C50.43,73.23,51.18,76.39,49.06,79.08z"/>
	<path class="st110" d="M49.06,70.09c0-2,0-4,0-6c1.69-2.48,4.28-1.82,6.69-2.03c4.47-0.38,9.27,1.44,13.29-1.96c0,3,0,5.99,0,8.99
		c0,0,0,0,0,0c-0.54,0.84-1.13,1.82-2.15,1.92C60.91,71.59,54.87,72.91,49.06,70.09z"/>
	<path class="st40" d="M81,98.02c0.02-0.98,0.04-1.96,0.06-2.94c0.33,0,0.65,0,0.98,0c0,1.67,0,3.33,0,5
		c-0.08,0.3-0.16,0.61-0.23,0.91C80.19,100.36,81.42,98.97,81,98.02z"/>
	<path class="st62" d="M83.04,76.09c0-2.67,0-5.33,0-8c1.88,1.51,3.96,2.05,6.43,2.05c51.34-0.07,102.67-0.04,154.01-0.06
		c6.44,0,6.44-0.06,6.44,7.01c-1.77,1.64-3.97,1.49-6.13,1.49c-51.22,0.01-102.43,0.01-153.65-0.01
		C87.51,78.56,84.7,78.92,83.04,76.09z"/>
	<path class="st92" d="M249.92,55.09c0,2,0,4,0,6c-1.8,1.12-3.81,1-5.81,1c-51.76-0.01-103.51-0.01-155.27,0c-2,0-4.01,0.11-5.81-1
		c-0.82-4.75,1.07-6.12,5.91-6.11C142.6,55.16,196.26,55.09,249.92,55.09z"/>
	<path class="st40" d="M83.03,83.08c0-0.33,0-0.66,0-1c1.58-0.75,3.27-0.48,4.91-0.48c52.35-0.01,104.71-0.01,157.06,0
		c1.65,0,3.33-0.27,4.91,0.48c0,1.33,0,2.67,0,4c-2.56,0.76-5.15,1.03-7.84,1.03c-50.4-0.04-100.8-0.04-151.2,0
		c-2.69,0-5.28-0.27-7.84-1.03C82.37,85.08,82.33,84.08,83.03,83.08z"/>
	<path class="st113" d="M249.92,82.08c-1.8,1.12-3.8,1.01-5.81,1.01c-51.76-0.01-103.51-0.01-155.27,0c-2,0-4.01,0.11-5.81-1.01
		c0-1,0-2,0-3c1.58-0.75,3.27-0.48,4.91-0.48c52.35-0.01,104.71-0.01,157.06,0c1.65,0,3.33-0.27,4.91,0.48
		C249.92,80.08,249.92,81.08,249.92,82.08z"/>
	<path class="st113" d="M249.92,79.08c-1.8,1.12-3.8,1.01-5.81,1.01c-51.76-0.01-103.51-0.01-155.27,0c-2,0-4.01,0.11-5.81-1.01
		c0-1,0-2,0-3c2.12,1.33,4.49,0.99,6.8,0.99c53.36,0.01,106.72,0.01,160.08,0.01C249.92,77.75,249.92,78.42,249.92,79.08z"/>
	<path class="st101" d="M251.02,52.13c0.75,0.45,0.88,1.18,0.91,1.97c-0.02,1.36-0.03,2.73-0.05,4.09c-0.3-0.06-0.61-0.12-0.91-0.18
		C250.98,56.05,251,54.09,251.02,52.13z"/>
	<path class="st114" d="M81,89.06c-1.94-2.46-0.53-5.33-0.97-7.97c-2.14-4.66-2.51-9.33,0-13.99c0.44-3.31-1-6.8,0.96-9.97
		c0.23,7.31,1.45,14.58,1.01,21.92C80.15,82.22,81.52,85.73,81,89.06z"/>
	<path class="st113" d="M83.03,83.08c0,1,0,2,0,3c0,0.95,0,1.89,0,2.84c-0.32,0.02-0.65,0.04-0.97,0.05c0-1.97,0-3.95,0-5.92
		C82.39,83.07,82.71,83.08,83.03,83.08z"/>
	<path class="st115" d="M259.91,54.09c1.19,1.86,1.02,3.94,1,6c0,3.33,0,6.66,0,10c-2.87,1.35-5.49,0.6-7.99-1c0-4.33,0-8.66,0-13
		C255.25,55.42,257.58,54.76,259.91,54.09z"/>
	<path class="st73" d="M252.92,69.09c2.74-0.24,5.39,0.2,7.99,1c0,1.95,0,3.91,0,7.56c-1.76-5.51-5.09-4.46-7.99-4.56
		C252.92,71.75,252.92,70.42,252.92,69.09z"/>
	<path class="st116" d="M80.04,67.09c0,4.66,0,9.33,0,13.99c-2.4-2.44-5.15-2.07-7.99-1c0-4.67,0-9.33,0-14
		C74.97,64.32,77.59,65.02,80.04,67.09z"/>
	<path class="st62" d="M49.06,70.09c6.65-0.5,13.41,1.1,19.98-1c0,3,0,6,0,9c-6.6,1.6-13.31,0.83-19.98,1
		C49.06,76.08,49.06,73.08,49.06,70.09z"/>
</g>
</svg>
