<?xml version="1.0" encoding="utf-8"?>
<!-- Generator: Adobe Illustrator 23.1.0, SVG Export Plug-In . SVG Version: 6.00 Build 0)  -->
<svg version="1.1" id="Layer_1" xmlns="http://www.w3.org/2000/svg" xmlns:xlink="http://www.w3.org/1999/xlink" x="0px" y="0px"
	 viewBox="0 0 638.64 601.29" style="enable-background:new 0 0 638.64 601.29;" xml:space="preserve">
<style type="text/css">
	.st0{fill:#030202;}
	.st1{fill:#FFFFFF;}
	.st2{fill:#794523;}
	.st3{fill:#7F1517;}
	.st4{fill:#54100F;}
	.st5{fill:#B0B0B0;}
	.st6{fill:#523019;}
	.st7{fill:#811617;}
	.st8{fill:#FBFBFB;}
	.st9{fill:#FCFCFC;}
	.st10{fill:#CDCDCD;}
	.st11{fill:#CECECD;}
	.st12{fill:#CFCFCF;}
	.st13{fill:#C8C8C8;}
	.st14{fill:#FBFAFA;}
	.st15{fill:#FDFCFC;}
	.st16{fill:#CECECE;}
	.st17{fill:#FCFCFB;}
	.st18{fill:#381212;}
	.st19{fill:#C7C7C6;}
	.st20{fill:#FEFEFE;}
	.st21{fill:#FBB046;}
	.st22{fill:#C87829;}
	.st23{fill:#F9AE43;}
	.st24{fill:#C7C6C6;}
	.st25{fill:#FAAF44;}
	.st26{fill:#B07A2D;}
	.st27{fill:#FBB044;}
	.st28{fill:#F5AA3E;}
	.st29{fill:#D58628;}
	.st30{fill:#E99A2C;}
	.st31{fill:#7A4623;}
	.st32{fill:#D58729;}
	.st33{fill:#D18229;}
	.st34{fill:#D48528;}
	.st35{fill:#D28229;}
	.st36{fill:#CE7F29;}
	.st37{fill:#F0A435;}
	.st38{fill:#533019;}
	.st39{fill:#E89A29;}
	.st40{fill:#F6AA3C;}
	.st41{fill:#ED9F2F;}
	.st42{fill:#721313;}
	.st43{fill:#AE792C;}
	.st44{fill:#FAFAF9;}
	.st45{fill:#7B4723;}
	.st46{fill:#55311A;}
	.st47{fill:#C3C2C2;}
	.st48{fill:#010101;}
	.st49{fill:#020202;}
	.st50{fill:#ABABAB;}
	.st51{fill:#8D8D8D;}
	.st52{fill:#F7F7F6;}
	.st53{fill:#F8F8F8;}
	.st54{fill:#F9F8F8;}
	.st55{fill:#292A74;}
	.st56{fill:#B1B0B0;}
	.st57{fill:#FDFDFD;}
	.st58{fill:#A8A8A8;}
	.st59{fill:#D1D0D0;}
	.st60{fill:#8D8D8C;}
</style>
<g>
	<path class="st0" d="M12.94,601.19C-6.27,545.72-6.14,492.62,27.38,441.24c22.94-35.17,42.45-72.57,63.6-108.91
		c1.21-2.08-0.31-3.01-0.92-4.32c-17.25-37.4-28.59-75.88-19.09-117.47c3.7-16.2,12.72-29.2,28.6-36.23
		c4.24-1.88,3.48-5.98,4.43-9.23c13.01-44.67,37.17-82.16,73.63-113.14c-8.32,1.44-15.35,2.67-22.39,3.88
		c-1.87,0.32-3.87,0.47-4.55-1.79c-0.66-2.19,0.25-3.96,2.56-4.57c42.37-11.18,79.92-35.78,123.11-44.56
		c62.77-12.77,120.68-0.38,173.89,34.88c9.29,6.16,20.51,7.51,30.37,12.21c2.64,1.26,7.83,1.11,6.31,5.79
		c-1.44,4.44-5.49,1.61-8.5,1.21c-1.06-0.14-2.14-0.13-4.26-0.24c28.02,25.9,48.22,55.88,60.74,90.92c0.71,2,1.85,4,1.93,6.04
		c0.56,15.45,14.32,20.46,22.7,29.95c18.21,20.63,18.54,46.05,15.46,71.66c-2.73,22.78-9.27,44.55-18.69,65.47
		c-0.48,1.06-0.26,2.88,0.35,3.94c26.94,46.83,53.95,93.62,80.98,140.41c0.13,0.23,0.52,0.31,0.79,0.46c0,1,0,1.99,0,2.99
		c-1.44,2.73-4.07,2.56-6.54,2.59c-8.65,0.1-17.29-0.04-25.94,0.07c-5.21,0.06-5.73,0.54-5.76,5.75
		c-0.08,14.95-0.05,29.91-0.02,44.86c0.01,3.26,0.98,6.17,2.62,8.96c10.76,18.35,21.19,36.89,32.01,55.2
		c1.73,2.93,2.44,6.12,3.63,9.18c0.75,3.41-0.58,4.08-3.99,4.08C427.27,601.18,220.11,601.19,12.94,601.19z"/>
	<path class="st1" d="M320.72,94.69c15.1-22.62,34.66-37.31,63.03-36.92c30.74,0.42,57.97,24.94,67.51,60.8
		c11.76,44.18-10.78,91.87-49.72,105.09c-17.74,6.02-34.82,4.02-51.19-4.77c-1.25-0.67-3.14-2.44-2.93-3.2
		c4.09-14.89-6.32-21.12-16.44-26.93c-10.78-6.19-20.96-2.58-29.8,4.54c-6.97,5.61-12.95,12.13-8.22,22.51
		c1.51,3.32-2.44,3.48-4.09,4.31c-35.96,18.08-77.34-0.11-94.46-41.4c-19.75-47.65,2.74-104.23,46.98-118.22
		c28.65-9.05,56.59,2.29,77.28,31.38C319.31,92.77,319.98,93.67,320.72,94.69z"/>
	<path class="st1" d="M238.25,378.95c-2.6-2.41-4.62-5.45-9.03-5.22c-3.59,0.19-1.77-3.01-1.5-4.39c1.42-7.25,3.38-14.41,4.8-21.66
		c1.84-9.37-0.84-15.48-12.51-14.75c4.72-8.79,9.38-17.05,13.6-25.53c2.42-4.86,3.89-9.97-1.98-13.97c-2.6-1.77,0.55-2.39,1.13-3.02
		c6.16-6.64,16.74-10.37,18.87-19.26c6.18-25.69,28.81-27.3,47.53-34.93c3.44-1.07,4.32,1.82,5.38,3.82
		c3.03,5.7,6.08,11.37,9.57,16.8c1.61,2.51,3.28,4.97,5.1,7.32c4.8,6.18,6.61,6.13,10.82-0.4c4.86-7.52,8.7-15.59,12.43-23.71
		c0.76-1.64,1.15-3.47,2.72-4.63c18.58,3.15,36.96,10.07,47.37,24.84c4.58,6.5,7.01,16,14.1,22.08c2.77,2.37,5.43,4.87,8.23,7.21
		c2.11,1.77,2.86,2.64-0.25,4.69c-4.89,3.22-3.57,8.34-1.42,12.5c4.09,7.87,8.81,15.42,13.24,23.11c1.23,2.13,2.36,3.59-1.91,3.69
		c-11.97,0.28-14.42,5.56-10.5,21.3c0.11,3.61-2.9,4.6-5.25,5.9C386.1,373.28,362,382,336.32,385.93
		c-30.5,4.67-60.83,3.77-90.85-3.81C242.87,381.45,240.37,380.67,238.25,378.95z"/>
	<path class="st2" d="M172.61,229.28c-1.77-10.27,2.73-16.39,12.55-19.09c2.34-0.64,4.08-2.31,3.09-4.78
		c-1.35-3.37-4.66-2.43-6.92-1.62c-6.93,2.49-11.83,7.76-16.49,13.22c-1.57,1.84-3.1,3.71-5.21,6.25
		c-0.05-6.68,1.78-11.9,3.78-17.14c0.96-2.51,3.94-5.13,0.51-8.02c-3.26-2.75-7.02-2.46-10.22-0.6c-6.56,3.8-12.79,8.14-19.56,12.52
		c3.76-10.17,11.35-16.38,19.9-21.86c2.77-1.77,7.26-3.34,5.88-7.52c-1.37-4.17-5.86-5.19-9.97-5.07
		c-4.88,0.14-9.75,0.86-15.34,1.39c8.31-7.6,17-12.25,28.14-9.9c2.69,0.57,5.47,0.84,6.26-2.1c0.81-3.04-1.77-4.01-4.45-4.68
		c-6.71-1.67-13.91-1.84-19.32,1.82c-9.61,6.5-19.91,8.1-30.97,8.36c-3.45,0.08-4.47-0.5-3.47-3.89
		c13.57-46.08,38.83-84.25,76.9-113.78c5.97-4.63,13.12-2.59,19.72-3.32c14.31-1.58,28.61-0.62,44.14,1.71
		c-36.25,6.18-60.53,31.88-69.42,72.26c-8.22,37.32,8.69,79.76,40.26,99.38c23.11,14.36,47.12,14.76,71.4,2.53
		c1.02-0.51,2.53-1,3.4-0.6c0.81,0.38,1.73,2.33,1.4,2.91c-0.57,1-1.98,1.79-3.19,2.13c-18.39,5.17-34.62,14.11-48.39,27.39
		c-1.03,0.99-2.68,2.74-2.39,3.5c4.91,12.8-7.77,14.83-12.97,21.35c-2.97,3.72-6.47,7.01-9.36,10.78c-1.49,1.95-1.67,5.5,1.07,5.8
		c9.11,1,4.3,5.79,2.64,9.13c-4.26,8.58-10.32,16.25-12.82,25.71c-1.48,5.6-0.37,8.52,6.34,6.78c5.35-1.39,7.95,0.51,6.5,6.51
		c-2.02,8.34-3.75,16.75-5.6,25.13c-2.05,1.67-4.14,0.75-6.11-0.07c-8.29-3.44-16.29-7.49-24.17-11.77
		c-3.14-1.71-4.69-4.58-5.89-7.75c-5.85-15.49-8.94-31.58-10.35-48.03c-1.76-20.54-0.86-41.12-0.94-61.69
		C172.94,238.14,172.91,233.7,172.61,229.28z"/>
	<path class="st2" d="M420.96,351.93c-1.62-3.13-3.37-6.73-1.25-9.78c2.29-3.28,6.19-1.91,9.69-1.39c5.34,0.8,7.44-1.5,5.88-6.97
		c-3.06-10.75-10.61-19.07-15.37-28.88c-1.5-3.1-2.85-5.63,2.86-6.03c5.89-0.41,5.11-4.86,2.31-7.8
		c-6.95-7.3-14.48-14.04-21.72-21.07c-2.03-1.97-4.32-3.69-0.46-6.6c2.77-2.09,0.46-4.42-1.4-6.19
		c-15.38-14.63-33.55-24.04-54.18-28.86c-1.46-0.34-4.14,0.06-3.55-2.3c0.72-2.89,3.24-1.06,4.52-0.42
		c59.9,29.79,112.34-25.59,112.59-79.2c0.2-43.08-16.98-75.33-59.73-93.72c22.31,0.73,45.27-4.91,62.11,6.81
		c27.02,18.8,45.85,46.11,58.53,76.99c3.36,10.8,3.59,21.77,1.81,32.85c-7.3,1.63-13.41,0.01-19.71-4.52
		c-7.43-5.34-16.37-6.9-25.61-4.43c-2.42,0.65-4.88,1.49-4.02,4.45c0.76,2.62,3.26,2.97,5.8,2.34c11.39-2.8,20.09,2.25,29.18,9.96
		c-7.46-0.63-13.65-3.03-20.01-0.96c-2.6,0.84-5.41,1.85-5.96,4.66c-0.59,2.99,1.98,4.6,4.28,6.05c9.16,5.74,17.48,12.27,21.76,23.2
		c-6.9-4.46-13.23-8.86-19.86-12.73c-3.27-1.91-7.23-1.96-10.3,0.67c-3.2,2.74-0.07,5.39,0.74,8.06c1.6,5.29,3.14,10.6,5.53,18.72
		c-7.94-8.47-12.74-15.82-20.54-19.87c-3.08-1.6-7.39-3.61-9.34,0.03c-2.46,4.58,2.75,4.5,5.45,5.99
		c6.19,3.42,11.53,7.16,10.97,15.9c-0.53,8.38,0.58,16.86,0.96,25.29c1.22,19.41-0.3,38.64-3.68,57.75
		c-0.39,2.22-1.63,3.95-3.14,5.54c-12.01,12.68-24.85,24.41-39.4,34.15C424.99,350.78,423.45,352.63,420.96,351.93z"/>
	<path class="st3" d="M229.27,446.74c-0.68,3.89-1.93,7.79-1.91,11.68c0.03,7.23-3.27,8.38-9.97,8.35c-64-0.3-128-0.22-192-0.1
		c-4.75,0.01-5.71-0.55-3.09-5.06c23.61-40.53,47.05-81.17,70.49-121.79c1.2-2.08,1.86-3.51,3.78-0.43
		c10.74,17.22,24.51,31.64,40.98,43.49c0.73,2-0.53,3.53-1.32,5.11c-2.95,5.87-2.4,11.51,0.85,17.05
		c4.17,7.1,10.57,11.75,17.43,15.91c11.86,7.21,24.8,11.83,37.98,15.85c10.63,3.24,21.38,6.01,32.31,8.06
		C226.42,445.17,228.15,445.26,229.27,446.74z"/>
	<path class="st2" d="M74.79,241.26c-0.47-23.47,2.13-45.81,24.94-59.28c4.67-2.76,10.51-3.91,15.98-4.83
		c3.15-0.53,10.58-4.91,7.18,5.36c-1.48,4.48,3.05,4.19,5.98,3.62c6.28-1.23,12.5-2.74,23.11-5.11
		c-15.42,10.12-23.72,20.59-27.42,34.35c-0.68,2.54-2.17,5.4,0.45,7.33c2.7,1.99,4.85-0.37,7-1.95
		c7.83-5.77,15.72-11.47,25.15-18.33c-3.59,9.43-5.19,17.28-4.52,25.43c0.24,2.91-0.17,6.93,2.85,7.92
		c5.23,1.71,5.8-4.82,10.05-7.15c-5.07,48.31-12.54,96.29,9.04,142.27c-2.1,0.97-3.9-0.2-5.69-0.92
		c-32.77-13.2-56.81-36.1-73.71-66.78C85.99,286.5,79.93,268.64,76.14,250C75.55,247.1,76.08,244.04,74.79,241.26z"/>
	<path class="st2" d="M461.85,394.78c-2.57,0.45-5.14,0.9-9.76,1.71c40.96-51.39,32.65-109.01,26.04-166.67
		c4.46,1.22,5.52,9.02,9.76,5.44c5.3-4.48,2.98-11.82,2.51-17.93c-0.33-4.34-2.1-8.58-3.63-14.37c9.17,6.63,17.41,12.48,25.51,18.51
		c2.04,1.52,4.06,2.79,6.25,1.18c2.07-1.52,1.08-3.84,0.53-5.96c-3.65-14.08-11.43-25.17-23.43-34.58
		c6.18,1.32,12.34,2.69,18.53,3.95c3.8,0.77,8.42,0.56,6.11-4.62c-3.03-6.8,1.13-4.92,4.38-4.88c7.59,4.08,10.97,11.51,13.9,18.81
		c7.69,19.11,9.63,39.08,7.99,59.57c-1.24,15.58-2.99,31.08-7.35,46.1c-10.39,35.75-29.64,65.32-61.32,86.01
		C472.85,390.33,467.51,392.86,461.85,394.78z"/>
	<path class="st4" d="M422.01,455.67c-1.68-4.99-2.27-10.81-5.3-14.77c-4.78-6.25-2.9-8.17,3.32-10.94
		c15.64-6.95,28.97-17.9,43.57-26.46c11.96-7.02,26.59-9.69,38.45-17.84c11.64-7.99,22.46-16.92,31.59-27.78
		c1.5-0.23,2.97-0.17,4.41,0.37c12.98,4.92,25.27,10.99,34.94,21.32c9.4,10.05,9.31,22.38-0.07,32.53
		c-7.48,8.1-16.81,13.42-26.72,17.83c-28.32,12.62-58.38,18.67-88.84,23.15c-10.01,1.47-20.06,2.64-30.16,3.42
		C425.39,456.65,423.57,457.08,422.01,455.67z"/>
	<path class="st5" d="M238.25,378.95c24.57,6.17,49.48,9.35,74.84,7.84c35.17-2.09,68.09-11.81,98.54-29.62
		c0.94-0.55,1.63-1.55,2.43-2.34c1.28,3.18,2.77,6.31,3.8,9.57c1.45,4.6,6.19,9.25-4.33,10.98c-9.58,1.57-8.99,12.39-10.33,20.09
		c-1.44,8.26-1.86,16.59-13.18,16.86c-0.61,0.01-1.5,0.32-1.78,0.78c-11.89,19.64-34.68,17.1-52,25.64
		c-8.45,4.16-16.4,4.31-24.57-0.39c-8.76-5.05-17.78-8.85-28.28-5.48c-3.28,1.05-5.06-2.06-6.87-3.97
		c-7.57-8.01-13.92-17.39-26.53-18.65c-1.79-0.18-3.48-5.19-4.52-8.21C242.85,394.42,240.63,386.66,238.25,378.95z"/>
	<path class="st4" d="M22.97,590.27c3.63-9.92,9.81-13.65,21.2-13.37c38.71,0.94,77.47,0.36,116.2,0.36
		c141.42,0,282.84-0.13,424.26,0.26c10.6,0.03,16.38-1.4,14.07-13.29c2.34,0.11,3.44,1.88,4.46,3.56
		c3.37,5.54,6.66,11.12,9.71,16.84c2.51,4.71,1.31,6.75-3.94,7.33c-2.15,0.24-4.32,0.15-6.48,0.15
		c-189.66,0-379.32,0.01-568.98-0.04C29.92,592.07,26.09,593.03,22.97,590.27z"/>
	<path class="st3" d="M422.01,455.67c42.01-4.44,83.81-9.84,123.04-26.94c10.11-4.4,19.47-9.87,27.14-18.02
		c10.62-11.28,7.45-26.23-7.74-36.97c-9.55-6.76-20.12-11.4-30.82-15.85c5.49-7.85,11.02-15.67,16.43-23.58
		c1.47-2.16,2.2-3.99,4.32-0.3c24.84,43.23,49.79,86.39,74.78,129.53c1.56,2.68,0.65,3.06-1.82,3.06
		c-67.28-0.02-134.55,0.14-201.83-0.24C418.26,466.33,423.68,459.15,422.01,455.67z"/>
	<path class="st2" d="M385.89,16.32c-23.84,8.9-37.62,26.24-48.23,47.41c-3.47,6.93-10.54,12.07-16.07,17.93
		c-0.29,0.31-1.96-0.01-2.3-0.51c-6.71-9.92-17.84-15.76-22.93-27.58c-6.99-16.23-19.04-28.8-35.96-37.85
		C302.94,3.65,344.03,4.15,385.89,16.32z"/>
	<path class="st6" d="M420.96,351.93c11.79-8.52,22.79-18.05,34.14-27.08c12.91-10.27,14.74-23.67,15.71-38.07
		c0.78-11.53,1.41-23.07,2.1-34.6c7.16,48.3,7.28,95.39-23.88,137.01c-3.45,4.61-5.65,9.02,1.17,12.56
		c1.82,0.94,1.18,1.54,0.03,2.37c-23.96,17.21-50.35,28.97-82.01,36.46c13.05-8.39,17.22-22.48,33.12-23.93
		c7.13-0.65,6.94-12.07,8.6-19.22c0.97-4.17,1.81-8.37,2.88-12.52c0.8-3.09,2.8-4.41,5.99-3.24c9.64,3.56,10.03-2.74,8.71-8.98
		C426.03,365.64,423.2,358.85,420.96,351.93z"/>
	<path class="st6" d="M461.85,394.78c13.87-8.02,27.5-16.33,38.65-28.1c25.95-27.39,38.99-60.39,43.25-97.46
		c2.71-23.55,2.86-46.74-5.05-69.49c-3.05-8.77-7.99-16.28-14.02-23.18c26.44,3.38,42.23,19.73,43.8,47.37
		c3.06,54.1-12.25,102.06-51.31,140.69C501.9,379.7,483.89,391.35,461.85,394.78z"/>
	<path class="st6" d="M172.61,229.28c0.64,5.53,1.79,11.05,1.85,16.58c0.33,31.91-0.36,63.67,7.44,95.25
		c5.36,21.68,23.08,23.83,38.5,30.73c0.6,5.52-2.26,13.92,9.29,9.49c2.57-0.98,3.62,4.15,4.51,6.79c1.74,5.16,2.7,10.59,4.44,15.75
		c2.38,7.06,4.57,13.6,14.38,14.56c9.43,0.92,13.43,10.64,19.82,16.45c4.44,4.03,8.33,6.64,14.96,4.34
		c6.98-2.42,13.35,1.3,21.91,5.83c-28-1.85-52.17-7.78-75.41-17.85c-13.6-5.89-26.42-13.11-38.49-21.67
		c-1.77-1.26-4.43-2.18-0.27-4.75c4.32-2.68,2.61-6.91-0.02-10.36c-26.47-34.69-31.66-74.33-27.22-116.27
		C169.9,259.21,171.19,244.24,172.61,229.28z"/>
	<path class="st7" d="M22.97,590.27c194.71-0.01,389.43-0.03,584.14-0.07c1.92,0,3.84-0.43,5.75-0.65
		c-0.77-1.74-1.38-3.58-2.33-5.22c-3.89-6.73-7.88-13.41-11.83-20.1c0-7.55,0-15.09,0-24.08c10.57,18.2,20.43,35.19,30.32,52.17
		c1.4,2.4,0.69,3.26-1.96,3.05c-1.49-0.12-2.99-0.03-4.49-0.03c-198.94,0-397.87,0-596.81-0.03c-1.71,0-3.42-0.48-5.13-0.73
		C21.41,593.15,22.19,591.71,22.97,590.27z"/>
	<path class="st8" d="M19.06,506.45c0.01-2.3,0.02-4.6,0.03-6.89c1.97-1.21,4.17-0.97,6.31-0.97c71.62,0.01,143.25-0.15,214.87,0.1
		c18.4,0.07,36.82-0.61,55.22,0.3c4.15,0.21,8.28-0.45,12.44-0.44c30.54,0.06,61.08,0.6,91.6,0.33
		c62.15-0.56,124.29-0.01,186.43-0.31c2.14-0.01,4.33-0.37,6.39,0.62c1.13,2.55,1.01,5.1,0.06,7.67c-1.5,1.27-3.34,1.37-5.17,1.46
		c-1.83,0.1-3.65,0.06-5.48,0.06c-183.91,0-367.82,0.01-551.73-0.04C26.33,508.34,22.32,509.34,19.06,506.45z"/>
	<path class="st9" d="M19.07,517.42c0-1.97,0-3.94,0-5.91c2.3-1.36,4.85-0.95,7.31-0.95c184.86,0,369.73-0.02,554.59,0.03
		c3.79,0,7.64-0.75,11.38,0.57c1.14,2.54,1.01,5.1,0.07,7.66c-1.97,1.6-4.35,1.47-6.66,1.5c-5.32,0.08-10.63,0.03-15.95,0.03
		c-178.95,0-357.89,0-536.84,0c-2.82,0-5.65,0.09-8.47-0.12C22.31,520.06,20.15,519.77,19.07,517.42z"/>
	<path class="st10" d="M592.4,511.66c-2.29,0.25-4.58,0.72-6.88,0.72c-186.38,0.03-372.76,0.04-559.13,0
		c-2.44,0-4.88-0.57-7.32-0.87c0-1.69-0.01-3.37-0.01-5.06c189.8,0,379.61,0.01,569.41,0.01c1.33,0,2.66-0.09,3.98-0.13
		C593.31,508.11,593.39,509.89,592.4,511.66z"/>
	<path class="st11" d="M19.07,517.42c1.59,0.33,3.19,0.96,4.78,0.96c189.04,0.04,378.07,0.03,567.11,0.01c0.5,0,0.99-0.07,1.49-0.11
		c0.93,1.88,0.8,3.77,0.05,5.66c-1.29,1.87-3.3,2.09-5.3,2.26c-2.32,0.19-4.65,0.12-6.98,0.12c-134.8,0-269.59,0-404.39,0.01
		c-4.16,0-8.31-0.05-12.42-0.68c-16.76-0.86-33.55-0.26-50.33-0.35c-10.46-0.06-20.94-0.34-31.38,0.29
		c-17.72,1.07-35.47,0.37-53.21,0.56c-3.36,0.03-6.68-0.08-9.26-2.71C19.18,521.43,19.13,519.43,19.07,517.42z"/>
	<path class="st12" d="M592.39,499.69c-2.29,0.25-4.58,0.73-6.87,0.73c-186.54,0.03-373.08,0.03-559.61-0.01
		c-2.27,0-4.55-0.57-6.82-0.87c0.23-3.09,0.46-6.17,0.7-9.26c3.42,2.7,7.47,2.32,11.43,2.32c66.11,0.01,132.22,0.01,198.34-0.01
		c3,0,5.97,0.08,8.89,0.82c6.87,4.91,13.87,6.01,20.95,0.52c1.44-1.11,2.15-0.03,3.35,0.28c13.72,3.63,27.61,1.51,41.45,0.97
		c0.6-0.02,1.19-0.49,1.79-0.75c2.54-1.34,5.23-1.9,8.1-1.78c9.36,0.39,18.77-0.85,28.1,0.77c6.68,4.86,13.58,5.88,20.58,0.83
		c1.51-1.09,2.23-0.47,3.72-0.07c13.69,3.68,27.59,1.68,41.44,1.01c0.6-0.03,1.19-0.5,1.78-0.76c2.87-1.53,5.95-1.86,9.15-1.85
		c55.1,0.02,110.19,0.01,165.29,0.04c2.79,0,5.69-0.37,8.18,1.42C593.43,495.92,593.38,497.8,592.39,499.69z"/>
	<path class="st4" d="M229.27,446.74c-31.75-5.81-63.32-12.39-88.51-34.59c-9.32-8.21-11.22-18.52-3.2-29.26
		c30.51,16.56,60.78,33.59,91.66,49.42C241.08,438.38,227.82,442.03,229.27,446.74z"/>
	<path class="st6" d="M74.79,241.26c5.05,16.39,8.36,33.31,15.54,49.04c17.38,38.06,44.8,65.59,84.25,80.58
		c4.04,6.43,8.09,12.85,12.1,19.3c1.03,1.65,1.94,3.37,2.91,5.06c-2.23,0.08-4.56,0.63-6.66,0.16
		c-37.08-8.37-63.44-31.28-82.27-63.03C84.13,304.48,75.39,273.91,74.79,241.26z"/>
	<path class="st13" d="M169.14,571.47l-0.32,0.08l-0.26-0.21c-1.54-1.93-4.35-3.73-0.63-6.2c2.56-0.96,5.25-0.74,7.89-0.75
		c135.86-0.01,271.71-0.02,407.57,0c2.8,0,5.67-0.3,8.34,0.96c0.58,0.37,0.99,0.87,1.24,1.51c0.78,3.95-0.82,4.99-4.78,4.99
		c-138.36-0.1-276.72-0.08-415.09-0.09C171.77,571.77,170.43,571.92,169.14,571.47z"/>
	<path class="st8" d="M20.79,482.31c0.42-2.56,0.85-5.12,1.27-7.69c1.97-1.22,4.17-0.95,6.31-0.95
		c63.63,0.01,127.26-0.02,190.89,0.03c3.09,0,6.39-0.6,8.99,1.91c0.72,2.31,1.44,4.62,2.16,6.94c-2.59,2.54-5.91,1.86-8.98,1.86
		c-33.23,0.06-66.45-0.03-99.68,0.05c-32.72,0.08-65.45-0.35-98.17,0.24C21.94,484.73,19.87,485.24,20.79,482.31z"/>
	<path class="st14" d="M418.79,482.5c0.75-2.3,1.5-4.61,2.26-6.91c2.04-1.64,4.47-0.99,6.73-0.99c50.47-0.04,100.94-0.03,151.4-0.03
		c-50.32,0-100.63,0.02-150.95-0.08c-2.12,0-5.08,1.51-6.29-1.93l0,0c1.22-0.76,2.59-0.46,3.89-0.46
		c54.47-0.01,108.94-0.01,163.4-0.01c1.15,0,2.33-0.16,3.44,0.35l0.01,0.01c0.36,3.53,0.98,7.07-0.33,10.55
		c-2,1.55-4.38,1.43-6.68,1.43c-53.31,0.04-106.61,0.05-159.92-0.01C423.3,484.41,420.7,484.63,418.79,482.5z"/>
	<path class="st15" d="M238.44,493.42c-1.88,0.36-3.76,1.03-5.64,1.03c-69.04,0.05-138.09,0.03-207.13,0.08
		c-3.16,0-6.13,0.25-5.88-4.23c0.1-0.9,0.19-1.81,0.29-2.71c1.97-1.21,4.17-0.95,6.32-0.95c66.67,0.01,133.33,0,200-0.01
		c2.34,0,4.65,0.07,6.86,0.97C234.98,489.53,236.71,491.48,238.44,493.42z"/>
	<path class="st16" d="M233.25,487.59c-1.94,0.3-3.88,0.86-5.82,0.86c-67.19,0.05-134.37,0.05-201.56,0c-1.94,0-3.87-0.57-5.81-0.87
		c0.24-1.76,0.48-3.51,0.71-5.27c2.01,0.07,4.02,0.21,6.03,0.22c67.86,0.01,135.72,0.02,203.58,0.02
		C231.35,484.23,232.3,485.91,233.25,487.59z"/>
	<path class="st17" d="M592.44,494.36c-60.91,0.03-121.83,0.05-182.74,0.08c2.09-2.3,4.19-4.6,6.28-6.89
		c2.54-0.98,5.19-0.92,7.86-0.92c54.45,0,108.89,0.07,163.34-0.03c1.66,0,3.33-0.15,4.92,0.49
		C593.72,489.44,593.22,491.89,592.44,494.36z"/>
	<path class="st16" d="M592.4,487.73c-1.95,0.25-3.91,0.72-5.86,0.72c-54.92,0.04-109.83,0.04-164.75-0.01
		c-1.94,0-3.87-0.59-5.81-0.9c0.93-1.68,1.87-3.36,2.8-5.04c57.89-0.04,115.78-0.07,173.66-0.11
		C593.31,484.18,593.39,485.96,592.4,487.73z"/>
	<path class="st18" d="M14.5,478.86c-4.38,31.83,0.25,62.57,9.1,93.06c1.84,6.33-4.8,11.24-7.24,16.93c-0.8,1.86-1.85-0.35-2.1-1.19
		C3.44,551.33,2.1,515.03,14.5,478.86z"/>
	<path class="st19" d="M228.24,475.61c-66.46-0.02-132.93-0.02-199.39-0.08c-2.27,0-4.53-0.59-6.8-0.9
		c-0.62-3.43,1.86-2.82,3.76-2.82c66.1-0.01,132.2,0.01,198.3-0.07C227.09,471.73,228.48,472.59,228.24,475.61z"/>
	<path class="st20" d="M290.06,55.44c-31.59-14.67-63.72-14.44-96.09-12.8c19.89-4.8,39.34-13.21,60.43-6.26
		c2.33,0.77,4.4,0.07,5.8-1.71c2.95-3.78,0.53-7.41-1.14-11.82C272.82,30.61,282.18,41.39,290.06,55.44z"/>
	<path class="st20" d="M377.81,27.36c-2.96,13.25-1.35,14.1,11.88,11.43c18.22-3.67,35.39,2.83,52.72,7.7
		c-32.06-1.28-63.94-1.63-94.67,13.04C355.18,45.8,364.48,35,377.81,27.36z"/>
	<path class="st21" d="M319.09,243.61c-8.52-9.35-15.13-19.94-20.13-31.5c-2.97-6.86,6.91-17.06,17.92-18.86
		c2.84-1,4.13,0.22,4.12,3.01c-0.05,14.28,0.3,28.55-0.21,42.83C320.72,240.73,320.53,242.43,319.09,243.61z"/>
	<path class="st1" d="M25,554.31c-0.38-1.64-0.75-3.27-1.13-4.91c0.58-3.34,3.41-2.62,5.45-2.7c7.23-0.27,14.47-0.14,21.71-0.09
		c3.48,0.02,6.88-0.25,10.14-1.43c2.75,1.5,2.07,4.14,1.9,6.47c-0.59,8.1-0.64,8.09,6.88,6.78c7.49,0.66,15.04-0.67,22.48,0.95
		c2.45,2.1,6.41,3.58,3.19,7.94c-1.87,0.85-3.87,0.82-5.86,0.83c-18.04,0.04-36.07,0.02-54.11,0.01c-2.67,0-5.32-0.07-7.52-1.91
		c-0.42-1.63-0.83-3.26-1.25-4.89c0.6-3.36,3.45-2.59,5.5-2.69c6.12-0.29,12.25-0.05,18.38-0.14c1.88-0.03,3.89,0.32,5.97-1.17
		c-1.78-1.52-3.63-1.21-5.32-1.23c-6.62-0.09-13.25,0.01-19.88-0.06C29.22,556.04,26.84,556.15,25,554.31z"/>
	<path class="st5" d="M345.19,235.41c-3.5,12.38-9.8,23.32-17.35,33.6c-2.1,2.86-4.17,2.51-6.43-0.04
		c-7.18-8.1-12.39-17.45-17.45-26.92c-1.18-2.21-1.65-5.18-4.8-5.84c2.99-1.9,5.23-1.2,6.82,1.91c0.3,0.58,0.79,1.05,1.17,1.59
		c13.42,18.87,16.96,18.82,28.95-1.21C338.62,234.33,341.12,233.4,345.19,235.41z"/>
	<path class="st22" d="M327.09,194.57c14.79,6.54,17.32,13.12,10.1,27.81c-2.88,5.85-6.59,11.29-9.93,16.92
		c-4.04,0.63-3.6-2.59-3.77-4.77c-0.42-5.62-0.15-11.27-0.16-16.91c-0.01-5.64-0.15-11.28,0.09-16.91
		C323.53,198.11,323.48,195.19,327.09,194.57z"/>
	<path class="st5" d="M169.14,571.47c34.08-0.07,68.15-0.18,102.23-0.19c105.07-0.03,210.13-0.02,315.2,0.04
		c3.63,0,6.82,0.14,6.07-4.93l0.29-0.39l0.4,0.28c1.2,4.92-0.84,6-5.66,6c-137.75-0.13-275.5-0.1-413.25-0.13
		C172.67,572.13,170.91,571.7,169.14,571.47z"/>
	<path class="st23" d="M288.11,460.69c-0.33,3.61-0.65,7.21-0.98,10.82c-9.86-0.71-19.8,0.72-29.63-0.98
		c-1.29-4.92-1.44-9.83,0.05-14.74c1.71-1.1,3.52-0.57,5.28-0.27c6.35,1.08,12.72,1.92,19.13,2.51
		C284.31,458.25,286.57,458.64,288.11,460.69z"/>
	<path class="st1" d="M19.24,523.44c2.61-2.58,4,1.31,6.61,1.22c18.28-0.57,36.59-0.36,54.88-0.4c-2.64,4.29-6.67,6.47-11.45,7.54
		c-10.9,0.79-21.79,0.19-32.68,0.37c-5.36,0.09-10.83-0.61-15.78,2.26C20.3,530.77,19.77,527.11,19.24,523.44z"/>
	<path class="st12" d="M28.13,566.25c22.83-0.01,45.65-0.02,68.48-0.03c2.55,0.99,4.88,2.08,2.63,5.41
		c-22.47,0.35-44.95,0.06-67.42,0.15c-0.68,0-1.31-0.12-1.87-0.5C29.34,569.59,28.73,567.92,28.13,566.25z"/>
	<path class="st24" d="M421.93,472.56c2.06,0.32,4.12,0.92,6.18,0.92c52.37,0.05,104.73,0.04,157.1,0.04c1.89,0,3.77,0,5.66,0
		c0,0.69,0,1.38-0.01,2.07c-56.61,0-113.22,0-169.82,0C421.34,474.58,421.64,473.57,421.93,472.56z"/>
	<path class="st25" d="M390.98,455.64c2.11,4.98-0.3,9.93-0.06,14.9c-9.89-0.35-19.78-0.35-29.67-0.01
		c-0.74-3.65-1.93-7.29-0.33-11.01c2.01-1.72,4.55-1.75,6.96-2.1c5.68-0.81,11.34-1.79,17.02-2.67
		C387,454.43,389.15,453.98,390.98,455.64z"/>
	<path class="st26" d="M390.98,455.64c-10.02,1.3-20.04,2.59-30.06,3.89c-0.69-18.46,15.59-12.01,24.34-15.33
		C389.42,442.62,389.74,451.23,390.98,455.64z"/>
	<path class="st26" d="M288.11,460.69c-10.19-1.64-20.37-3.27-30.56-4.9c0.55-8.1,2.46-13.58,12.73-9.48
		C277.92,449.36,289.57,446.63,288.11,460.69z"/>
	<path class="st27" d="M397.86,474.27c0.09-6.86,0.18-13.73,0.27-20.59c4.51-2.87,9.42-4.22,14.78-3.94
		c3.77,8.1,2.52,16.4,0.92,24.7c-5.05-1.13-10.1-2.8-14.86,1.03C398.25,476.04,397.43,475.44,397.86,474.27z"/>
	<path class="st28" d="M250.26,454.66c0.07,6.24,0.15,12.49,0.22,18.73c0.37,2.11-1.25,1.39-2.16,1.42
		c-4.25,0.12-8.5,0.06-12.73,0.59c-2.37-7.9-2.75-15.82-0.14-23.75C240.94,449.96,245.75,451.55,250.26,454.66z"/>
	<path class="st29" d="M389.92,475.54c-2.32,7.24-5.06,14.91-14.12,14.75c-7.85-0.14-11.15-6.53-12.75-13.58
		c-1.03-2.28,0.6-3.24,2.22-3.43c7.36-0.86,14.75-1.02,22.12,0.08C388.61,473.53,389.34,474.5,389.92,475.54z"/>
	<path class="st5" d="M29.95,571.27c21.51,0,43.03,0.01,64.54-0.06c1.72-0.01,3.43-0.59,5.15-0.91c0.39-0.37,0.85-0.59,1.38-0.65
		c16.06-0.06,32.13,0.19,48.55-0.05c-0.4-1.56-1.8-1.94-2.54-2.86c-1.31-0.97-2.78-1.75-3.89-2.89c-1.16-1.19-2.87-2.49-0.81-4.37
		c6.29-1.6,12.64-0.96,18.97-0.44c0.82,0.2,1.56,0.56,2.2,1.11c1.54,1.79,2.87,3.7,3.05,6.17c0.67,1.67,1.34,3.34,2.01,5.01
		c-45.85,0.26-91.7,0.51-137.55,0.73C30.65,572.08,30.3,571.55,29.95,571.27z"/>
	<path class="st30" d="M327.09,194.57c-3.94,4.81-1.52,10.44-1.79,15.66c-0.44,8.23-0.14,16.49-0.1,24.74
		c0.01,1.71-0.57,3.82,2.06,4.33c-2.87,1.17-1.48,10.39-8.17,4.31c0.04-15.59,0.04-31.19,0.18-46.78c0.02-1.98,0.39-3.69-2.39-3.57
		C320.57,191.42,323.84,192.96,327.09,194.57z"/>
	<path class="st31" d="M428.27,33.76c-14.7-1.64-29-5.2-44.29-0.97c4.18-8.6,6.34-18.36,19.22-10.56
		C411.02,26.95,419.88,29.97,428.27,33.76z"/>
	<path class="st10" d="M20.83,534.44c1.05-3.15,2.97-4.23,6.51-4.15c14.55,0.31,29.1,0.19,43.66,0.22c-0.35,4-2.7,6.23-6.43,7.26
		c-9.89,0.82-19.8,0.21-29.7,0.37c-4.6,0.07-9.23-0.18-13.7,1.26C21.05,537.75,20.94,536.09,20.83,534.44z"/>
	<path class="st32" d="M397.86,474.27c5.36-3.34,10.7-5.18,15.96,0.17c-0.76,4.51-2.82,8.41-5.83,11.79
		c-3.51,3.93-7.74,5.98-12.76,3.13c-5.63-3.2,0.56-6.01,0.72-9.06C396.05,478.27,397.19,476.28,397.86,474.27z"/>
	<path class="st33" d="M285.18,478.51c-2.35,6.05-5.37,11.9-12.81,11.89c-7.45-0.01-10.39-5.95-12.82-11.93
		c0.41-2.67,2.35-3.41,4.65-3.53c5.45-0.27,10.91-0.3,16.36,0.02C282.82,475.09,284.82,475.8,285.18,478.51z"/>
	<path class="st1" d="M21.16,539.4c0.99-1.97,2.13-3.15,4.8-3.1c13.43,0.23,26.87,0.16,40.3,0.2c0.31,3.66-0.53,6.71-4.36,8.16
		c-13.05-0.61-26.11-1.6-39.1,0.77C22.26,543.41,21.71,541.4,21.16,539.4z"/>
	<path class="st34" d="M354.2,473.44c1.67,4.25,3.38,8.49,4.95,12.78c0.25,0.69,0.13,2-0.34,2.38c-2.61,2.13-5.72,2.74-8.79,1.37
		c-6.24-2.79-9.01-8.3-10.68-14.54c0.04-2.76,1.4-4.3,4.21-4.33C347.27,471.06,351.21,470.09,354.2,473.44z"/>
	<path class="st35" d="M235.6,475.4c4.43-4.58,10.01-0.69,14.89-2.01c1.66,4.26,3.23,8.57,5.04,12.77c0.59,1.36,0.47,2.02-0.75,2.79
		c-2.86,1.81-5.86,2.35-8.91,0.82C239.96,486.81,237.2,481.49,235.6,475.4z"/>
	<path class="st36" d="M309.13,477.49c-1.88,3.21-3.36,6.74-5.72,9.54c-3.31,3.93-7.86,5.03-12.38,2.1
		c-4.66-3.02,0.67-5.52,0.98-8.32c0.25-2.21,1.35-4.32,2.07-6.47c3.2-1.7,6.64-1.38,10.06-1.22
		C306.96,473.24,308.66,474.66,309.13,477.49z"/>
	<path class="st10" d="M22.81,545.42c1.18-1.77,2.22-3.21,4.92-3.14c10.07,0.23,20.15,0.01,30.22,0.18c1.58,0.03,3.13,1.22,4.7,1.87
		c0.89,1.11,0.75,1.88-0.73,2.2c-7.38,3.84-15.28,1-22.91,1.8c-5.03,0.53-10.09,0.73-15.13,1.09
		C23.52,548.07,23.16,546.75,22.81,545.42z"/>
	<path class="st37" d="M309.13,477.49c-4.03-5.77-10.2-1.34-15.06-3.16c0.4-4.57,0.8-9.15,1.21-13.72
		c5.43-1.12,10.84-1.74,16.05,0.94C312.27,467.09,310.95,472.33,309.13,477.49z"/>
	<path class="st26" d="M412.9,449.74c-4.93,1.31-9.85,2.62-14.78,3.94c0.9-4.76-7.88-9.66-0.8-13.88
		C408.04,433.42,410.24,442.41,412.9,449.74z"/>
	<path class="st38" d="M523.6,169.37c-0.6-10.95-1.21-21.9-1.81-32.85c5.56,9.65,9.79,20.17,11.17,30.92
		C533.8,174.02,526.65,167.48,523.6,169.37z"/>
	<path class="st10" d="M25,554.31c10.29,0.01,20.58,0.03,30.87,0.02c2.11,0,4-0.03,4.01,2.97c0.02,2.98-1.83,2.97-3.96,3.03
		c-9.69,0.3-19.37,0.68-29.06,1.03C26.25,559.01,25.63,556.66,25,554.31z"/>
	<path class="st39" d="M285.18,478.51c-8.54-3.23-17.08-3.18-25.64-0.04c-0.68-2.65-1.36-5.29-2.04-7.94
		c9.92-0.96,19.87-2.8,29.63,0.98C286.48,473.85,285.83,476.18,285.18,478.51z"/>
	<path class="st26" d="M250.26,454.66c-4.93-1-9.87-2.01-14.8-3.01c2.72-6.51,3.02-16.45,14.56-10.94
		C258.99,444.99,248.59,450.02,250.26,454.66z"/>
	<path class="st8" d="M342.18,493.43c-12.01,2.37-24.14,0.47-36.2,1.01c2.09-2.3,4.18-4.59,6.27-6.89
		c8.24-1.18,16.48-1.25,24.72,0.04C338.71,489.54,340.45,491.49,342.18,493.43z"/>
	<path class="st40" d="M354.2,473.44c-5.05-0.07-10.59-3.76-14.86,1.99c-0.44-2.23-0.88-4.47-1.33-6.7
		c-0.24-2.7-1.79-6.47,1.03-7.68c4.37-1.88,9.35-3.36,14.15-0.47C353.53,464.87,353.86,469.15,354.2,473.44z"/>
	<path class="st41" d="M389.92,475.54c-9.01-0.78-18.08-3.13-26.87,1.17c-0.6-2.06-1.2-4.11-1.8-6.17
		c9.89-3.22,19.78-3.22,29.67,0.01C390.59,472.2,390.25,473.87,389.92,475.54z"/>
	<path class="st42" d="M318.4,460.16c-0.57-4.73-0.59-8.65,5.35-7.42c2.75,0.57,8.32-2.44,7.08,3.87
		c-0.7,3.56,2.95,10.32-5.82,10.18C319.43,466.71,316.65,465.55,318.4,460.16z"/>
	<path class="st24" d="M592.67,472.44c-37.83,0.12-75.66,0.29-113.49,0.34c-19.08,0.03-38.16-0.14-57.24-0.23
		c1.04-0.25,2.08-0.73,3.13-0.73c54.95-0.04,109.91-0.04,164.86-0.01C590.84,471.82,591.75,472.22,592.67,472.44z"/>
	<path class="st43" d="M353.19,460.58c-4.88,3.06-15.63-4.82-15.18,8.15c-3.56-12.08,2.95-20.45,15.1-17.93
		C356.79,451.57,353.25,457.18,353.19,460.58z"/>
	<path class="st26" d="M311.32,461.55c-5.35-0.31-10.7-0.63-16.05-0.94c-0.26-3.28-0.53-6.56-0.79-9.84
		c4.88,0.42,10.07-0.03,14.56,1.51C312.78,453.57,310.97,458.28,311.32,461.55z"/>
	<path class="st16" d="M336.98,487.59c-8.24,1.43-16.49,1.49-24.72-0.04c0.94-1.68,1.88-3.37,2.82-5.05
		c6.36-2.77,12.72-2.9,19.07,0.04C335.09,484.23,336.03,485.91,336.98,487.59z"/>
	<path class="st44" d="M334.14,482.55c-6.36-0.01-12.71-0.03-19.07-0.04c0.74-2.3,1.48-4.61,2.23-6.91c4.9-2.74,9.8-2.78,14.7,0.02
		C332.71,477.92,333.43,480.24,334.14,482.55z"/>
	<path class="st45" d="M253.75,29.14c-7.06-3.15-14.17-2.02-21.26-2.24C242.37,18.15,250.07,18.76,253.75,29.14z"/>
	<path class="st24" d="M593.34,566.27c-0.24,0-0.47,0.04-0.7,0.11c0,0-0.18-0.16-0.18-0.16c-1.57-1.67-1.55-3.72-1.41-5.8
		c-0.2-2.01-0.23-4.02,0-6.04c-0.2-2-0.22-3.99,0-5.99c-0.2-1.99-0.22-3.99,0-5.98c-0.2-2-0.22-3.99,0-5.99
		c-0.21-2.01-0.22-4.02,0-6.03c-0.29-2.39-0.05-4.67,1.35-6.72c0.02-1.8,0.04-3.6,0.06-5.4c-0.02-2.21-0.03-4.42-0.05-6.62
		c0.02-1.78,0.03-3.56,0.05-5.34c-0.02-2.21-0.04-4.42-0.06-6.63c0.02-1.78,0.03-3.55,0.05-5.33c-0.01-2.21-0.03-4.42-0.04-6.63
		c0.02-1.78,0.03-3.56,0.05-5.34c0.08-3.32,0.15-6.63,0.23-9.95c0.29,18.73,0.67,37.45,0.83,56.18
		C593.61,541.17,593.41,553.72,593.34,566.27z"/>
	<path class="st46" d="M366.05,441.21c-9.09,1.38-16.42,2.49-26.04,3.95C349.01,439.81,355.96,436.23,366.05,441.21z"/>
	<path class="st47" d="M332,475.61c-4.9-0.01-9.8-0.01-14.7-0.02c-0.48-3.08,1.17-4.64,3.85-3.7
		C324.75,473.17,330.7,467.84,332,475.61z"/>
	<path class="st48" d="M349.49,173.54c-13.96-0.05-25.24-11.27-25.29-25.17c-0.06-13.82,11.72-25.68,25.52-25.69
		c14.12,0,25.44,11.68,25.35,26.17C374.99,162.73,363.74,173.59,349.49,173.54z"/>
	<path class="st48" d="M293.63,173.54c-14.19-0.04-25.45-11.46-25.31-25.64c0.14-13.59,11.85-25.19,25.45-25.21
		c13.91-0.03,25.44,11.59,25.42,25.63C319.18,162.59,308.04,173.59,293.63,173.54z"/>
	<path class="st1" d="M592.39,523.69c0.03,2.2,0.06,4.39,0.08,6.59c-1.49,1.59-3.45,1.87-5.47,1.97c-1.99,0.09-3.99,0.07-5.98,0.07
		c-136.36,0-272.71,0.01-409.07-0.02c-3.46,0-6.99,0.49-10.32-0.96c-3.05-3.29,0.18-4.86,1.91-6.85
		c140.49-0.03,280.98-0.06,421.46-0.13C587.47,524.35,589.93,523.92,592.39,523.69z"/>
	<path class="st49" d="M163.55,524.48c0.55,2.56-1.04,3.95-2.87,5.21c-0.36,0.58-0.61,1.24-1.11,1.73
		c-5.05,3.4-10.84,5.74-14.92,10.52c-1.72,2.3-3.67,4.44-4.86,7.11c-0.94,1.79-1.67,3.64-2.04,5.64c-0.23,1.14-0.56,2.26-0.73,3.42
		c-0.38,2.41-0.88,4.8-0.98,7.26c-1.59,4.41-3.2,5.28-7.24,3.89c-1.57-0.54-2.99-1.37-4.32-2.33c-3.3-1.97-6.64-3.9-9.37-6.68
		c-3.31-3.22-6.35-6.7-9.1-10.43c-0.28-0.37-0.51-0.77-0.72-1.18c-1.55-3.71-4.14-4.72-8-3.51c-3.01,0.94-5.99,1.9-8.9,3.07
		c-0.81,0.37-1.64,0.73-2.45,1.12c-3.21,1.5-6.42,3-9.31,5.1c-2.61,1.67-4.77,4.06-7.89,4.89c-2,0.71-3.24,4.15-5.82,2.34
		c-3.1-2.18-1.82-5.62-1.49-8.69c0.23-2.13,0.32-4.28,0.47-6.43c0.24-0.73,0.49-1.46,0.73-2.2c1.21-2.61,2.42-5.22,3.63-7.83
		c1.57-1.99,3.15-3.98,4.72-5.98c3.25-2.08,6.5-4.16,9.75-6.24c20.11-0.35,40.22-0.91,60.33-0.93
		C148.54,523.33,156.18,521.77,163.55,524.48z"/>
	<path class="st1" d="M592.48,560.44c0,1.93-0.01,3.86-0.02,5.79c-141.97,0.04-283.94,0.07-425.92,0.11
		c-1.04-1.66-2.08-3.32-3.12-4.99c0.37-2.44,2.42-2.44,4.16-2.73c2.13-0.36,4.31-0.21,6.47-0.21c135.99,0,271.97-0.01,407.96,0.03
		C585.58,558.44,589.42,557.57,592.48,560.44z"/>
	<path class="st10" d="M68.75,559.29c2.37-1.92,4.74-3.83,7.12-5.75c3.94-0.81,7.9-1.19,11.88-0.38c0.76,0.21,1.45,0.56,2.07,1.04
		c1.48,1.36,2.64,2.93,3.17,4.92c0.06,0.51-0.13,0.92-0.55,1.23C84.55,560,76.65,559.65,68.75,559.29z"/>
	<path class="st50" d="M100.89,570.34c-0.42-0.01-0.83-0.02-1.25-0.03c-1.01-1.36-2.02-2.73-3.03-4.09
		c-1.39-1.95-2.77-3.91-4.16-5.86c0.17-0.02,0.35-0.05,0.53-0.07c2.67-2.25,5.68-1.58,8.68-1c0.52,0.21,0.96,0.53,1.33,0.94
		c0.77,2.11,0.17,4.26,0.15,6.4C102.9,568.18,103.15,570.02,100.89,570.34z"/>
	<path class="st10" d="M592.48,560.44c-141.79-0.04-283.57-0.08-425.36-0.08c-1.23,0-2.46,0.65-3.69,0.99
		c-0.32-0.38-0.64-0.75-0.96-1.13c-2.66-2.08-4.23-4.27-0.72-7c2.56-1,5.24-0.79,7.89-0.79c137.93-0.02,275.85-0.02,413.78,0.01
		c3.1,0,6.38-0.57,9.06,1.76C592.48,556.28,592.48,558.36,592.48,560.44z"/>
	<path class="st12" d="M100.89,570.34c0.29-1.36,0.58-2.72,0.87-4.08c6.11-3.19,12.58-1.51,18.92-1.35c1.28,0.03,2.57,0.58,3.9,0.69
		c3.41-0.12,7.07,7.9,10.23-0.31c4.26-1.47,8.51-0.23,12.77,0.03c2.36,1.74,4.71,3.49,6.78,5.02
		C136.64,570.34,118.77,570.34,100.89,570.34z"/>
	<path class="st51" d="M160.44,554.46c0.68,1.92,1.36,3.84,2.04,5.76c-6.99,0.08-13.98,0.16-20.97,0.23
		c-3.11,1.19-4.4-1.03-5.79-3.08c0.32-1.02,0.64-2.04,0.97-3.06c2-1.92,4.55-1.83,7.01-1.75c5.1,0.16,10.25-0.7,15.3,0.68
		C159.59,553.51,160.07,553.92,160.44,554.46z"/>
	<path class="st52" d="M135.71,557.38c1.93,1.03,3.86,2.05,5.79,3.08c2.03,1.62,4.05,3.24,6.08,4.86c-4.26,1.7-8.52,1.48-12.77-0.03
		C135.11,562.65,135.41,560.01,135.71,557.38z"/>
	<path class="st1" d="M592.48,536.51c0,1.91,0,3.82,0,5.73c-1.35,1.44-3.11,1.82-4.97,1.94c-1.83,0.12-3.65,0.1-5.48,0.1
		c-138.07,0-276.14,0.01-414.21-0.02c-3.44,0-7.02,0.6-10.19-1.51c-1.95-2.66-1.95-5.1,0.77-7.24c2.49-1.17,5.18-1.02,7.83-1.02
		c139.1-0.02,278.2-0.02,417.29,0.01C586.62,534.5,589.91,533.97,592.48,536.51z"/>
	<path class="st10" d="M157.75,542.35c144.91-0.04,289.82-0.07,434.73-0.11c0,2.08,0,4.15,0,6.23c-1.57,1.5-3.56,1.66-5.57,1.74
		c-1.99,0.08-3.99,0.05-5.98,0.05c-136.98,0-273.96,0-410.94-0.01c-3.31,0-6.66,0.3-9.92-0.57c-1.28-0.4-2.27-1.16-2.9-2.35
		c-0.74-1.44-0.87-2.91-0.08-4.38C157.29,542.75,157.52,542.55,157.75,542.35z"/>
	<path class="st10" d="M592.48,536.51c-141.85-0.04-283.69-0.08-425.54-0.13c-2.82,0-5.64-0.1-8.47-0.15
		c-1.81-2.36,0.07-3.99,1.13-5.78c0.36-0.25,0.71-0.51,1.07-0.76c0.94,0.24,1.88,0.69,2.82,0.69
		c142.99-0.01,285.99-0.05,428.98-0.09C592.48,532.35,592.48,534.43,592.48,536.51z"/>
	<path class="st1" d="M158.64,548.41c144.61,0.02,289.22,0.04,433.83,0.07c0,1.91,0,3.83,0,5.74
		c-141.19,0.04-282.38,0.08-423.57,0.13c-2.82,0-5.64,0.08-8.47,0.13c-0.24-0.08-0.48-0.16-0.71-0.24
		C157.91,552.55,156.77,550.76,158.64,548.41z"/>
	<path class="st53" d="M347.3,140.05c-0.11,4.25-2.5,6.22-5.65,6.15c-3.11-0.07-5.55-2.09-5.47-5.75c0.08-3.63,2.5-5.59,5.65-5.58
		C345.05,134.89,347.21,137.04,347.3,140.05z"/>
	<path class="st54" d="M291.4,139.7c-0.05,4.57-2.46,6.54-5.6,6.49c-3.1-0.04-5.55-2-5.51-5.7c0.04-3.67,2.45-5.62,5.6-5.63
		C289.1,134.86,291.3,136.98,291.4,139.7z"/>
	<path class="st55" d="M150.56,528.43c-12.28,8.09-19.31,17.82-20.9,31.01c-0.43,3.55-2.44,1.26-3.43,0.64
		c-6.71-4.23-12.84-9.49-15.78-16.81c-3.01-7.49-7.53-7.07-13.67-5.34c-10.8,3.04-20.61,7.92-29.62,15.12
		c0.52-14.59,10.61-24.62,24.24-24.62C110.49,528.43,129.58,528.43,150.56,528.43z"/>
	<path class="st5" d="M158.64,548.41c0.36,1.94,0.72,3.88,1.08,5.81c-7.68,0.03-15.36,0.07-23.04,0.1c0.69-1.98,1.39-3.95,2.08-5.93
		c2.86-2.3,6.26-1.72,9.52-1.74c3.14-0.02,6.26-0.33,9.4-0.36C158,547,158.32,547.7,158.64,548.41z"/>
	<path class="st56" d="M89.6,555.39c-0.32-0.39-0.64-0.77-0.96-1.16c-2.2-1.38-3.85-3.04-2.91-5.95c0.67-0.32,1.34-0.63,2.01-0.95
		c4.11-0.19,8.18-1.03,12.34-0.77c2.35,0.15,4.61,0.35,6.56,1.81c0.24,0.14,0.28,0.32,0.14,0.56c1.2,2.66,0.82,4.85-1.89,6.35
		C99.82,556.53,94.71,556.3,89.6,555.39z"/>
	<path class="st57" d="M124.58,565.6c-7.61,0.22-15.21,0.44-22.81,0.66c0.37-1.98,0.75-3.95,1.12-5.93c4.07-2.8,8.44-1.85,12.79-1
		C118.64,561.42,121.61,563.51,124.58,565.6z"/>
	<path class="st58" d="M159.61,530.45c-0.38,1.93-0.76,3.86-1.13,5.78c-0.24,2.04-0.48,4.08-0.73,6.12
		c-0.17,0.01-0.33,0.03-0.5,0.06c-5.3,2.9-11.14,2.41-13.7-1.14C147.9,536.18,153.6,533.08,159.61,530.45z"/>
	<path class="st51" d="M143.55,541.27c4.39,2.46,9.16,0.45,13.7,1.14c0.14,1.3,0.29,2.59,0.43,3.89c-5.86,4.69-12.69,0.75-18.92,2.1
		C140.36,546.02,141.96,543.65,143.55,541.27z"/>
	<path class="st59" d="M115.68,559.33c-4.26,0.33-8.53,0.67-12.79,1c-0.17-0.02-0.34-0.04-0.51-0.07c-1.09-2.73,0.68-4.32,2.38-5.93
		c0.68-1.8,1.36-3.6,2.05-5.4C109.76,552.39,112.72,555.86,115.68,559.33z"/>
	<path class="st51" d="M106.65,548.37c-6.3-0.35-12.6-0.69-18.9-1.04C94.13,546.32,101,536.28,106.65,548.37z"/>
	<path class="st44" d="M85.74,548.28c0.97,1.98,1.94,3.97,2.91,5.95c-4.26-0.23-8.52-0.46-12.78-0.69
		C79.16,551.79,82.45,550.03,85.74,548.28z"/>
	<path class="st60" d="M104.75,554.33c-0.79,1.98-1.59,3.95-2.38,5.93c-3.13,0.01-6.27,0.02-9.4,0.02
		c-1.12-1.63-2.24-3.26-3.37-4.89C94.65,555.04,99.7,554.68,104.75,554.33z"/>
</g>
</svg>
